<svg width="19" height="23" viewBox="0 0 19 23" fill="none" xmlns="http://www.w3.org/2000/svg">
<path d="M16.328 13.8C16.6789 13.8 17.0263 13.8669 17.3505 13.997C17.6747 14.127 17.9693 14.3176 18.2174 14.5579C18.4655 14.7981 18.6623 15.0834 18.7966 15.3973C18.9309 15.7112 19 16.0477 19 16.3875V17.4271C19.0002 18.0487 18.8615 18.6631 18.5936 19.228C18.3257 19.7929 17.9349 20.295 17.4478 20.7C15.5893 22.2456 12.9279 23 9.49584 23C6.06375 23 3.40596 22.2456 1.55097 20.7C1.06461 20.2953 0.674249 19.7937 0.406567 19.2294C0.138885 18.6651 0.000201932 18.0515 0 17.4305V16.3864C0.000314873 15.7003 0.281971 15.0425 0.783042 14.5575C1.28411 14.0725 1.96358 13.8 2.67204 13.8H16.328ZM9.37708 0.00690005L9.49584 0C9.71108 8.78933e-06 9.91902 0.075489 10.0812 0.212482C10.2434 0.349475 10.3489 0.538713 10.3782 0.7452L10.3865 0.8625L10.3853 1.72385H14.5418C15.2505 1.72385 15.9302 1.99646 16.4313 2.48171C16.9324 2.96696 17.2139 3.6251 17.2139 4.31135V9.4921C17.2139 10.1783 16.9324 10.8365 16.4313 11.3217C15.9302 11.807 15.2505 12.0796 14.5418 12.0796H4.44746C3.7388 12.0796 3.05915 11.807 2.55805 11.3217C2.05694 10.8365 1.77542 10.1783 1.77542 9.4921V4.3125C1.77542 3.97261 1.84458 3.63605 1.97893 3.32204C2.11329 3.00804 2.31022 2.72274 2.55847 2.48245C2.80671 2.24217 3.10142 2.0516 3.42574 1.92163C3.75007 1.79167 4.09766 1.72485 4.44865 1.725L8.60516 1.72385V0.8625C8.60521 0.653904 8.68332 0.452393 8.82503 0.295291C8.96674 0.138188 9.16245 0.0361409 9.3759 0.00804996L9.49584 0L9.37471 0.00804996L9.37708 0.00690005ZM6.82261 5.175C6.62283 5.16726 6.42349 5.19867 6.23656 5.26737C6.04963 5.33606 5.87895 5.44062 5.73477 5.57476C5.59059 5.7089 5.47588 5.86986 5.39753 6.04799C5.31917 6.22612 5.27878 6.41774 5.27878 6.61135C5.27878 6.80497 5.31917 6.99658 5.39753 7.17471C5.47588 7.35284 5.59059 7.5138 5.73477 7.64794C5.87895 7.78208 6.04963 7.88664 6.23656 7.95533C6.42349 8.02402 6.62283 8.05544 6.82261 8.0477C7.20573 8.03285 7.56806 7.87503 7.83371 7.60728C8.09935 7.33954 8.24771 6.98265 8.24771 6.61135C8.24771 6.24005 8.09935 5.88316 7.83371 5.61542C7.56806 5.34767 7.20573 5.18985 6.82261 5.175ZM12.1584 5.175C11.9586 5.16726 11.7593 5.19867 11.5723 5.26737C11.3854 5.33606 11.2147 5.44062 11.0705 5.57476C10.9264 5.7089 10.8117 5.86986 10.7333 6.04799C10.6549 6.22612 10.6145 6.41774 10.6145 6.61135C10.6145 6.80497 10.6549 6.99658 10.7333 7.17471C10.8117 7.35284 10.9264 7.5138 11.0705 7.64794C11.2147 7.78208 11.3854 7.88664 11.5723 7.95533C11.7593 8.02402 11.9586 8.05544 12.1584 8.0477C12.5415 8.03285 12.9038 7.87503 13.1695 7.60728C13.4351 7.33954 13.5835 6.98265 13.5835 6.61135C13.5835 6.24005 13.4351 5.88316 13.1695 5.61542C12.9038 5.34767 12.5415 5.18985 12.1584 5.175Z" fill="#C7C6C3"/>
</svg>
