<svg width="20" height="23" viewBox="0 0 20 23" fill="none" xmlns="http://www.w3.org/2000/svg">
<path d="M6.64804 2.19048V0H13.352V2.19048H6.64804ZM7.76536 15.0595L6.53631 12.65C6.4432 12.4492 6.30354 12.2984 6.11732 12.1977C5.9311 12.0969 5.73557 12.0469 5.53073 12.0476H0C0.27933 9.58333 1.36871 7.50676 3.26816 5.8179C5.1676 4.12905 7.41155 3.28498 10 3.28571C11.1546 3.28571 12.2626 3.46825 13.324 3.83333C14.3855 4.19841 15.3817 4.72778 16.3128 5.42143L17.8771 3.8881L19.4413 5.42143L17.8771 6.95476C18.473 7.72143 18.9479 8.52935 19.3017 9.37852C19.6555 10.2277 19.8883 11.1174 20 12.0476H15.1676L13.2402 8.26905C13.0354 7.84921 12.7002 7.63929 12.2346 7.63929C11.7691 7.63929 11.4339 7.84921 11.229 8.26905L7.76536 15.0595ZM10 23C7.41155 23 5.1676 22.1556 3.26816 20.4667C1.36871 18.7779 0.27933 16.7017 0 14.2381H4.8324L6.75978 18.0167C6.96462 18.4365 7.29981 18.6464 7.76536 18.6464C8.23091 18.6464 8.56611 18.4365 8.77095 18.0167L12.2346 11.2262L13.4637 13.6357C13.5568 13.8365 13.6965 13.9873 13.8827 14.088C14.0689 14.1888 14.2644 14.2388 14.4693 14.2381H20C19.7207 16.7024 18.6313 18.7786 16.7318 20.4667C14.8324 22.1548 12.5885 22.9993 10 23Z" fill="#C7C6C3"/>
</svg>
