<svg width="21" height="18" viewBox="0 0 21 18" fill="none" xmlns="http://www.w3.org/2000/svg">
<path d="M13.44 1.61287L20.4761 12.774C21.4873 14.377 20.9906 16.486 19.3663 17.484C18.8211 17.8202 18.1856 17.9994 17.5361 18H3.46291C1.55085 18 0 16.47 0 14.581C0 13.942 0.181651 13.317 0.522902 12.774L7.56002 1.61287C8.57012 0.00985845 10.7058 -0.481145 12.3302 0.516862C12.7796 0.792865 13.1597 1.16787 13.44 1.61287ZM10.5 14C10.7785 14 11.0456 13.8946 11.2425 13.7071C11.4394 13.5195 11.55 13.2652 11.55 13C11.55 12.7347 11.4394 12.4804 11.2425 12.2928C11.0456 12.1053 10.7785 12 10.5 12C10.2216 12 9.95448 12.1053 9.75757 12.2928C9.56065 12.4804 9.45003 12.7347 9.45003 13C9.45003 13.2652 9.56065 13.5195 9.75757 13.7071C9.95448 13.8946 10.2216 14 10.5 14ZM10.5 4.9999C10.2216 4.9999 9.95448 5.10526 9.75757 5.29279C9.56065 5.48033 9.45003 5.73469 9.45003 5.99991V9.99994C9.45003 10.2652 9.56065 10.5195 9.75757 10.707C9.95448 10.8946 10.2216 10.9999 10.5 10.9999C10.7785 10.9999 11.0456 10.8946 11.2425 10.707C11.4394 10.5195 11.55 10.2652 11.55 9.99994V5.99991C11.55 5.73469 11.4394 5.48033 11.2425 5.29279C11.0456 5.10526 10.7785 4.9999 10.5 4.9999Z" fill="#C7C6C3"/>
</svg>
