<svg width="720" height="718" viewBox="0 0 720 718" fill="none" xmlns="http://www.w3.org/2000/svg">
<path fill-rule="evenodd" clip-rule="evenodd" d="M720 0H0V718H149V571.258C94.0458 516.882 60 441.417 60 358C60 192.315 194.315 58 360 58C525.685 58 660 192.315 660 358C660 440.91 626.367 515.964 572 570.264V718H720V0Z" fill="url(#paint0_linear_73_59)"/>
<path fill-rule="evenodd" clip-rule="evenodd" d="M655.217 417.722C643.602 476.11 614.935 529.744 572.839 571.839L492.5 491.5C518.706 465.294 536.553 431.905 543.783 395.557C551.013 359.208 547.302 321.531 533.12 287.291C518.937 253.052 494.92 223.786 464.105 203.196C433.29 182.606 397.061 171.617 360 171.617C322.939 171.617 286.711 182.607 255.896 203.196C225.08 223.786 201.063 253.052 186.881 287.291C172.698 321.531 168.987 359.208 176.217 395.557C183.448 431.905 201.294 465.294 227.5 491.5L147.161 571.839C105.065 529.744 76.3979 476.11 64.7838 417.722C53.1696 359.334 59.1304 298.813 81.9124 243.812C104.694 188.812 143.274 141.802 192.773 108.728C242.273 75.6533 300.468 58 360 58C419.532 58 477.728 75.6533 527.227 108.728C576.726 141.802 615.306 188.812 638.088 243.812C660.87 298.813 666.831 359.334 655.217 417.722Z" fill="url(#paint1_linear_73_59)" fill-opacity="0.01"/>
<path opacity="0.5" fill-rule="evenodd" clip-rule="evenodd" d="M655.216 417.722C643.602 476.11 614.935 529.744 572.839 571.839L492.5 491.5C518.706 465.294 536.553 431.906 543.783 395.557C551.013 359.208 547.302 321.531 533.12 287.292C518.937 253.052 494.92 223.786 464.105 203.197C433.29 182.607 397.061 171.617 360 171.617C322.939 171.617 286.711 182.607 255.896 203.197C225.081 223.786 201.063 253.052 186.88 287.292C172.698 321.531 168.987 359.208 176.217 395.557C183.448 431.906 201.294 465.294 227.5 491.5L147.161 571.839C105.065 529.744 76.3979 476.11 64.7838 417.722C53.1696 359.334 59.1304 298.813 81.9124 243.812C104.694 188.812 143.274 141.802 192.773 108.728C242.273 75.6534 300.468 58 360 58C419.532 58 477.728 75.6534 527.227 108.728C576.726 141.802 615.306 188.812 638.088 243.812C660.87 298.813 666.831 359.334 655.216 417.722Z" fill="url(#paint2_radial_73_59)"/>
<defs>
<linearGradient id="paint0_linear_73_59" x1="720" y1="402.5" x2="2.79223e-05" y2="400.5" gradientUnits="userSpaceOnUse">
<stop stop-color="#39D3B7"/>
<stop offset="1" stop-color="#414640"/>
</linearGradient>
<linearGradient id="paint1_linear_73_59" x1="59" y1="349" x2="661" y2="358.5" gradientUnits="userSpaceOnUse">
<stop stop-color="#456949"/>
<stop offset="1" stop-color="#39CBAF"/>
</linearGradient>
<radialGradient id="paint2_radial_73_59" cx="0" cy="0" r="1" gradientUnits="userSpaceOnUse" gradientTransform="translate(360 356) rotate(90) scale(307.5 307.5)">
<stop stop-color="#C1D3D0" stop-opacity="0"/>
<stop offset="0.638892" stop-color="#00FFD1" stop-opacity="0"/>
<stop offset="1" stop-color="#00AF8F" stop-opacity="0.4"/>
</radialGradient>
</defs>
</svg>
