<svg width="25" height="25" viewBox="0 0 25 25" fill="none" xmlns="http://www.w3.org/2000/svg">
<path d="M12.5 24.917C10.0277 24.917 7.61099 24.2132 5.55538 22.8946C3.49976 21.576 1.89761 19.7019 0.951511 17.5092C0.00541607 15.3165 -0.242126 12.9037 0.24019 10.5759C0.722505 8.24813 1.91301 6.10992 3.66117 4.43169C5.40933 2.75346 7.63661 1.6106 10.0614 1.14758C12.4861 0.684551 14.9995 0.922184 17.2835 1.83044C19.5676 2.73869 21.5198 4.27676 22.8934 6.25014C24.2669 8.22354 25 10.5436 25 12.917C25 16.0996 23.683 19.1518 21.3388 21.4023C18.9946 23.6527 15.8152 24.917 12.5 24.917ZM12.5 2.91698C10.4398 2.91698 8.42582 3.50347 6.71281 4.60229C4.9998 5.7011 3.66467 7.2629 2.87626 9.09016C2.08785 10.9174 1.88156 12.9281 2.28349 14.8679C2.68542 16.8077 3.67751 18.5895 5.13431 19.9881C6.5911 21.3866 8.44718 22.339 10.4678 22.7248C12.4884 23.1107 14.5829 22.9127 16.4863 22.1558C18.3897 21.3989 20.0165 20.1172 21.1611 18.4727C22.3057 16.8282 22.9167 14.8948 22.9167 12.917C22.9167 10.2683 21.8221 7.72778 19.8731 5.85299C17.9241 3.9782 15.2799 2.92228 12.5208 2.91698H12.5ZM13.2708 18.637C13.174 18.7307 13.0588 18.8051 12.9319 18.8559C12.8049 18.9066 12.6688 18.9328 12.5313 18.9328C12.3937 18.9328 12.2576 18.9066 12.1306 18.8559C12.0037 18.8051 11.8885 18.7307 11.7917 18.637L6.58334 13.637C6.38719 13.4487 6.27699 13.1933 6.27699 12.927C6.27699 12.6607 6.38719 12.4053 6.58334 12.217C6.77949 12.0287 7.04552 11.9229 7.32292 11.9229C7.60032 11.9229 7.86635 12.0287 8.0625 12.217L11.5 15.517V7.91699C11.5 7.65177 11.6097 7.39742 11.8051 7.20988C12.0004 7.02234 12.2654 6.91699 12.5417 6.91699C12.8179 6.91699 13.0829 7.02234 13.2782 7.20988C13.4736 7.39742 13.5833 7.65177 13.5833 7.91699V15.507L17.0208 12.207C17.2213 12.0444 17.4783 11.9605 17.7404 11.9719C18.0026 11.9834 18.2506 12.0894 18.4348 12.2688C18.619 12.4482 18.726 12.6878 18.7342 12.9396C18.7424 13.1914 18.6513 13.4369 18.4792 13.627L13.2708 18.637Z" fill="#6AFFF3"/>
</svg>
