<svg width="30" height="29" viewBox="0 0 30 29" fill="none" xmlns="http://www.w3.org/2000/svg">
<path d="M15.4504 28.2173C12.5728 28.2173 9.75978 27.3898 7.36713 25.8395C4.97447 24.2893 3.10962 22.0858 2.0084 19.5078C0.907183 16.9298 0.619054 14.093 1.18045 11.3562C1.74185 8.61939 3.12755 6.10546 5.16234 4.13233C7.19713 2.15921 9.7896 0.815517 12.6119 0.271133C15.4343 -0.273252 18.3597 0.00613785 21.0183 1.07399C23.6768 2.14183 25.9492 3.95017 27.5479 6.27032C29.1466 8.59048 29.9999 11.3182 29.9999 14.1087C29.9999 17.8505 28.467 21.4391 25.7385 24.085C23.0099 26.7308 19.3092 28.2173 15.4504 28.2173ZM15.4504 2.35146C13.0524 2.35146 10.7082 3.04101 8.71433 4.3329C6.72045 5.6248 5.16642 7.46103 4.24874 9.60938C3.33105 11.7577 3.09095 14.1217 3.55878 16.4024C4.02661 18.683 5.18136 20.778 6.87701 22.4223C8.57267 24.0665 10.7331 25.1863 13.085 25.6399C15.437 26.0936 17.8748 25.8608 20.0903 24.9709C22.3058 24.081 24.1994 22.5741 25.5316 20.6406C26.8639 18.7071 27.575 16.434 27.575 14.1087C27.575 10.9945 26.3009 8.0076 24.0324 5.80338C21.7638 3.59915 18.6861 2.35769 15.4746 2.35146H15.4504ZM16.3476 20.8338C16.2349 20.944 16.1008 21.0314 15.9531 21.0911C15.8053 21.1508 15.6468 21.1815 15.4868 21.1815C15.3267 21.1815 15.1682 21.1508 15.0205 21.0911C14.8727 21.0314 14.7386 20.944 14.6259 20.8338L8.56363 14.9552C8.33532 14.7338 8.20706 14.4335 8.20706 14.1204C8.20706 13.8073 8.33532 13.507 8.56363 13.2857C8.79194 13.0643 9.1016 12.9399 9.42448 12.9399C9.74736 12.9399 10.057 13.0643 10.2853 13.2857L14.2864 17.1655V8.23006C14.2864 7.91824 14.4142 7.61919 14.6416 7.3987C14.8689 7.17821 15.1773 7.05434 15.4989 7.05434C15.8205 7.05434 16.1289 7.17821 16.3562 7.3987C16.5836 7.61919 16.7114 7.91824 16.7114 8.23006V17.1538L20.7125 13.2739C20.9458 13.0828 21.2449 12.9841 21.5501 12.9976C21.8552 13.011 22.1438 13.1357 22.3583 13.3466C22.5727 13.5575 22.6972 13.8392 22.7067 14.1352C22.7163 14.4312 22.6103 14.7199 22.4099 14.9434L16.3476 20.8338Z" fill="#7FCD9F"/>
</svg>
