<svg width="70" height="70" viewBox="0 0 70 70" fill="none" xmlns="http://www.w3.org/2000/svg">
<path opacity="0.5" d="M35.0687 22.5518C28.1959 22.5518 22.5933 28.1544 22.5933 35.0272C22.5933 41.9 28.1959 47.5026 35.0687 47.5026C41.9415 47.5026 47.5441 41.9 47.5441 35.0272C47.5441 28.1544 41.9415 22.5518 35.0687 22.5518ZM45.7794 34.1732H40.728C40.6033 30.2185 39.7527 26.8694 38.4121 24.8053C42.4292 26.1436 45.4177 29.7932 45.7794 34.1732ZM35.0687 45.7379C33.3029 45.7379 31.3567 41.6029 31.1764 35.8823H39.0291C38.7796 41.6018 36.8345 45.7379 35.0687 45.7379ZM31.1764 34.1732C31.3578 28.4538 33.3029 24.3176 35.0687 24.3176C36.8345 24.3176 38.7807 28.4538 38.961 34.1732H31.1764ZM31.7207 24.803C30.3768 26.8751 29.5285 30.2185 29.4037 34.1165H24.3512C24.7198 29.7932 27.7082 26.1436 31.7196 24.803H31.7207ZM24.358 35.8812H29.4094C29.5341 39.8359 30.3847 43.1226 31.723 45.1947C27.7082 43.9097 24.7198 40.2612 24.358 35.8812ZM38.4178 45.2491C39.7595 43.1793 40.6067 39.8359 40.7314 35.9379H45.784C45.4176 40.2612 42.4292 43.9108 38.4178 45.2491Z" fill="white"/>
<circle opacity="0.3" cx="35.0688" cy="35.0269" r="33.9956" stroke="white" stroke-width="1.87132"/>
</svg>
