<svg width="71" height="71" viewBox="0 0 71 71" fill="none" xmlns="http://www.w3.org/2000/svg">
<path d="M22.0964 24.7705H24.6536C24.9079 24.7705 25.1517 24.8715 25.3315 25.0513C25.5113 25.2311 25.6124 25.475 25.6124 25.7293C25.6124 25.9836 25.5113 26.2274 25.3315 26.4072C25.1517 26.587 24.9079 26.6881 24.6536 26.6881H22.0977C21.8434 26.6881 21.5995 26.587 21.4197 26.4072C21.2399 26.2274 21.1389 25.9836 21.1389 25.7293C21.1389 25.475 21.2399 25.2311 21.4197 25.0513C21.5995 24.8715 21.8421 24.7705 22.0964 24.7705ZM28.1695 24.4526C28.5088 24.4526 28.8342 24.5874 29.0741 24.8273C29.314 25.0672 29.4488 25.3926 29.4488 25.7319C29.4488 26.0712 29.314 26.3965 29.0741 26.6364C28.8342 26.8764 28.5088 27.0111 28.1695 27.0111C27.8444 26.9903 27.5394 26.8465 27.3165 26.6089C27.0936 26.3713 26.9695 26.0577 26.9695 25.7319C26.9695 25.4061 27.0936 25.0925 27.3165 24.8549C27.5394 24.6173 27.8444 24.4734 28.1695 24.4526ZM32.0073 24.4526C32.3466 24.4526 32.672 24.5874 32.9119 24.8273C33.1518 25.0672 33.2865 25.3926 33.2865 25.7319C33.2865 26.0712 33.1518 26.3965 32.9119 26.6364C32.672 26.8764 32.3466 27.0111 32.0073 27.0111C31.668 27.0111 31.3426 26.8764 31.1027 26.6364C30.8628 26.3965 30.728 26.0712 30.728 25.7319C30.728 25.3926 30.8628 25.0672 31.1027 24.8273C31.3426 24.5874 31.668 24.4526 32.0073 24.4526ZM35.8424 24.4526C36.1817 24.4526 36.5071 24.5874 36.747 24.8273C36.9869 25.0672 37.1217 25.3926 37.1217 25.7319C37.1217 26.0712 36.9869 26.3965 36.747 26.6364C36.5071 26.8764 36.1817 27.0111 35.8424 27.0111C35.5031 27.0111 35.1778 26.8764 34.9379 26.6364C34.698 26.3965 34.5632 26.0712 34.5632 25.7319C34.5632 25.3926 34.698 25.0672 34.9379 24.8273C35.1778 24.5874 35.5031 24.4526 35.8424 24.4526ZM39.3584 24.7705H43.1948C43.4491 24.7705 43.693 24.8715 43.8728 25.0513C44.0526 25.2311 44.1536 25.475 44.1536 25.7293C44.1536 25.9836 44.0526 26.2274 43.8728 26.4072C43.693 26.587 43.4491 26.6881 43.1948 26.6881H39.3584C39.1041 26.6881 38.8602 26.587 38.6804 26.4072C38.5006 26.2274 38.3996 25.9836 38.3996 25.7293C38.3996 25.475 38.5006 25.2311 38.6804 25.0513C38.8602 24.8715 39.1041 24.7705 39.3584 24.7705Z" fill="white"/>
<path d="M42.6325 21.9015L45.7979 25.0669C45.9647 25.2494 46.0548 25.4891 46.0492 25.7363C46.0437 25.9835 45.9431 26.219 45.7683 26.3938C45.5935 26.5686 45.358 26.6692 45.1108 26.6747C44.8637 26.6802 44.6239 26.5902 44.4415 26.4234L41.276 23.258C41.0962 23.0781 40.9951 22.8341 40.9951 22.5797C40.9951 22.3254 41.0962 22.0814 41.276 21.9015C41.4559 21.7217 41.6999 21.6206 41.9543 21.6206C42.2086 21.6206 42.4526 21.7217 42.6325 21.9015Z" fill="white"/>
<path d="M41.2773 28.2183L44.4427 25.0529C44.6252 24.886 44.8649 24.796 45.1121 24.8015C45.3592 24.807 45.5948 24.9077 45.7696 25.0825C45.9444 25.2573 46.045 25.4928 46.0505 25.7399C46.056 25.9871 45.966 26.2269 45.7992 26.4093L42.6337 29.5747C42.4539 29.7546 42.2099 29.8556 41.9555 29.8556C41.7012 29.8556 41.4572 29.7546 41.2773 29.5747C41.0974 29.3948 40.9964 29.1509 40.9964 28.8965C40.9964 28.6421 41.0974 28.3982 41.2773 28.2183Z" fill="white"/>
<path d="M22.0964 45.2306H24.6536C24.9079 45.2306 25.1517 45.3316 25.3315 45.5114C25.5113 45.6912 25.6124 45.9351 25.6124 46.1894C25.6124 46.4437 25.5113 46.6876 25.3315 46.8674C25.1517 47.0472 24.9079 47.1482 24.6536 47.1482H22.0977C21.8434 47.1482 21.5995 47.0472 21.4197 46.8674C21.2399 46.6876 21.1389 46.4437 21.1389 46.1894C21.1389 45.9351 21.2399 45.6912 21.4197 45.5114C21.5995 45.3316 21.8421 45.2306 22.0964 45.2306ZM28.1695 44.9102C28.5088 44.9102 28.8342 45.0449 29.0741 45.2848C29.314 45.5247 29.4488 45.8501 29.4488 46.1894C29.4488 46.5287 29.314 46.8541 29.0741 47.094C28.8342 47.3339 28.5088 47.4687 28.1695 47.4687C27.8303 47.4687 27.5049 47.3339 27.265 47.094C27.0251 46.8541 26.8903 46.5287 26.8903 46.1894C26.8903 45.4831 27.4658 44.9102 28.1695 44.9102ZM32.0073 44.9102C32.3466 44.9102 32.672 45.0449 32.9119 45.2848C33.1518 45.5247 33.2865 45.8501 33.2865 46.1894C33.2865 46.5287 33.1518 46.8541 32.9119 47.094C32.672 47.3339 32.3466 47.4687 32.0073 47.4687C31.6822 47.4478 31.3771 47.304 31.1542 47.0664C30.9313 46.8288 30.8073 46.5152 30.8073 46.1894C30.8073 45.8636 30.9313 45.55 31.1542 45.3124C31.3771 45.0748 31.6822 44.931 32.0073 44.9102ZM35.8424 44.9102C36.1817 44.9102 36.5071 45.0449 36.747 45.2848C36.9869 45.5247 37.1217 45.8501 37.1217 46.1894C37.1217 46.5287 36.9869 46.8541 36.747 47.094C36.5071 47.3339 36.1817 47.4687 35.8424 47.4687C35.5031 47.4687 35.1778 47.3339 34.9379 47.094C34.698 46.8541 34.5632 46.5287 34.5632 46.1894C34.5632 45.8501 34.698 45.5247 34.9379 45.2848C35.1778 45.0449 35.5031 44.9102 35.8424 44.9102ZM39.3584 45.2306H43.1948C43.4491 45.2306 43.693 45.3316 43.8728 45.5114C44.0526 45.6912 44.1536 45.9351 44.1536 46.1894C44.1536 46.4437 44.0526 46.6876 43.8728 46.8674C43.693 47.0472 43.4491 47.1482 43.1948 47.1482H39.3584C39.1041 47.1482 38.8602 47.0472 38.6804 46.8674C38.5006 46.6876 38.3996 46.4437 38.3996 46.1894C38.3996 45.9351 38.5006 45.6912 38.6804 45.5114C38.8602 45.3316 39.1041 45.2306 39.3584 45.2306Z" fill="white"/>
<path d="M42.6324 42.3595L45.7979 45.5249C45.9647 45.7074 46.0547 45.9471 46.0492 46.1943C46.0437 46.4414 45.9431 46.6769 45.7683 46.8518C45.5934 47.0266 45.3579 47.1272 45.1108 47.1327C44.8636 47.1382 44.6239 47.0482 44.4414 46.8814L41.276 43.7159C41.1092 43.5335 41.0191 43.2937 41.0247 43.0466C41.0302 42.7994 41.1308 42.5639 41.3056 42.3891C41.4804 42.2143 41.7159 42.1137 41.9631 42.1081C42.2102 42.1026 42.45 42.1927 42.6324 42.3595Z" fill="white"/>
<path d="M41.2773 48.6758L44.4427 45.5104C44.6252 45.3436 44.8649 45.2535 45.1121 45.259C45.3592 45.2645 45.5948 45.3652 45.7696 45.54C45.9444 45.7148 46.045 45.9503 46.0505 46.1975C46.056 46.4446 45.966 46.6844 45.7992 46.8668L42.6337 50.0322C42.4539 50.2121 42.2099 50.3132 41.9555 50.3132C41.7012 50.3132 41.4572 50.2121 41.2773 50.0322C41.0974 49.8524 40.9964 49.6084 40.9964 49.354C40.9964 49.0996 41.0974 48.8557 41.2773 48.6758Z" fill="white"/>
<path d="M25.9328 34.9995H28.4887C28.743 34.9995 28.9869 35.1005 29.1667 35.2803C29.3465 35.4601 29.4475 35.704 29.4475 35.9583C29.4475 36.2126 29.3465 36.4564 29.1667 36.6362C28.9869 36.816 28.743 36.9171 28.4887 36.9171H25.9341C25.6798 36.9171 25.436 36.816 25.2562 36.6362C25.0764 36.4564 24.9753 36.2126 24.9753 35.9583C24.9753 35.704 25.0764 35.4601 25.2562 35.2803C25.436 35.1005 25.6785 34.9995 25.9328 34.9995ZM32.0073 34.6816C32.3466 34.6816 32.6719 34.8164 32.9118 35.0563C33.1518 35.2962 33.2865 35.6216 33.2865 35.9609C33.2865 36.3002 33.1518 36.6255 32.9118 36.8655C32.6719 37.1054 32.3466 37.2401 32.0073 37.2401C31.6821 37.2193 31.3771 37.0755 31.1542 36.8379C30.9313 36.6003 30.8073 36.2867 30.8073 35.9609C30.8073 35.6351 30.9313 35.3215 31.1542 35.0839C31.3771 34.8463 31.6821 34.7024 32.0073 34.6816ZM35.8424 34.6816C36.1817 34.6816 36.5071 34.8164 36.747 35.0563C36.9869 35.2962 37.1217 35.6216 37.1217 35.9609C37.1217 36.3002 36.9869 36.6255 36.747 36.8655C36.5071 37.1054 36.1817 37.2401 35.8424 37.2401C35.5031 37.2401 35.1778 37.1054 34.9378 36.8655C34.6979 36.6255 34.5632 36.3002 34.5632 35.9609C34.5632 35.6216 34.6979 35.2962 34.9378 35.0563C35.1778 34.8164 35.5031 34.6816 35.8424 34.6816ZM39.6775 34.6816C40.0168 34.6816 40.3422 34.8164 40.5821 35.0563C40.822 35.2962 40.9568 35.6216 40.9568 35.9609C40.9568 36.3002 40.822 36.6255 40.5821 36.8655C40.3422 37.1054 40.0168 37.2401 39.6775 37.2401C39.3524 37.2193 39.0474 37.0755 38.8245 36.8379C38.6016 36.6003 38.4775 36.2867 38.4775 35.9609C38.4775 35.6351 38.6016 35.3215 38.8245 35.0839C39.0474 34.8463 39.3524 34.7024 39.6775 34.6816ZM43.1948 34.9995H47.0313C47.2855 34.9995 47.5294 35.1005 47.7092 35.2803C47.889 35.4601 47.99 35.704 47.99 35.9583C47.99 36.2126 47.889 36.4564 47.7092 36.6362C47.5294 36.816 47.2855 36.9171 47.0313 36.9171H43.1935C42.9392 36.9171 42.6954 36.816 42.5156 36.6362C42.3357 36.4564 42.2347 36.2126 42.2347 35.9583C42.2347 35.704 42.3357 35.4601 42.5156 35.2803C42.6954 35.1005 42.9392 34.9995 43.1935 34.9995H43.1948Z" fill="white"/>
<path d="M46.4689 32.1305L49.6343 35.2959C49.8011 35.4784 49.8912 35.7181 49.8856 35.9653C49.8801 36.2124 49.7795 36.4479 49.6047 36.6228C49.4299 36.7976 49.1944 36.8982 48.9472 36.9037C48.7001 36.9092 48.4603 36.8192 48.2779 36.6524L45.1124 33.4869C44.9456 33.3045 44.8556 33.0647 44.8611 32.8176C44.8666 32.5704 44.9672 32.3349 45.142 32.1601C45.3169 31.9853 45.5524 31.8847 45.7995 31.8791C46.0467 31.8736 46.2864 31.9637 46.4689 32.1305Z" fill="white"/>
<path d="M45.1138 38.4473L48.2766 35.2819C48.459 35.115 48.6988 35.025 48.9459 35.0305C49.1931 35.036 49.4286 35.1367 49.6034 35.3115C49.7782 35.4863 49.8789 35.7218 49.8844 35.969C49.8899 36.2161 49.7998 36.4559 49.633 36.6383L46.4676 39.8037C46.2852 39.9706 46.0454 40.0606 45.7982 40.0551C45.5511 40.0496 45.3156 39.9489 45.1408 39.7741C44.966 39.5993 44.8653 39.3638 44.8598 39.1166C44.8543 38.8695 44.9443 38.6297 45.1112 38.4473H45.1138Z" fill="white"/>
<circle opacity="0.3" cx="35.4601" cy="35.9019" r="34.0844" stroke="white" stroke-width="1.87132"/>
</svg>
