<svg width="8" height="8" viewBox="0 0 8 8" fill="none" xmlns="http://www.w3.org/2000/svg">
<path d="M3.13778 0.748991L0 3.98352L3.13778 7.21807C3.16612 7.25622 3.20212 7.28768 3.24335 7.31034C3.28458 7.33301 3.33007 7.34627 3.37676 7.34934C3.42344 7.35241 3.47021 7.34512 3.51391 7.32806C3.55762 7.31095 3.59723 7.28443 3.63007 7.25025C3.66291 7.21608 3.6882 7.1751 3.70425 7.13001C3.72029 7.08499 3.72671 7.0369 3.72307 6.9891C3.71942 6.94125 3.7058 6.89484 3.68312 6.85283C3.66044 6.81088 3.62925 6.77442 3.59163 6.74591L1.24401 4.31833H7.49019C7.57676 4.31833 7.6598 4.28307 7.72104 4.22027C7.78228 4.15747 7.81667 4.0723 7.81667 3.98352C7.81667 3.89471 7.78228 3.80955 7.72104 3.74675C7.6598 3.68395 7.57676 3.64868 7.49019 3.64868H1.24401L3.59163 1.22111C3.65268 1.15806 3.6868 1.07272 3.6865 0.983866C3.68619 0.895015 3.65148 0.809924 3.59 0.747315C3.52851 0.684712 3.4453 0.649713 3.35866 0.650027C3.27201 0.65034 3.18903 0.685942 3.12798 0.748991H3.13778Z" fill="#7FCD9F"/>
</svg>
