<svg width="21" height="21" viewBox="0 0 21 21" fill="none" xmlns="http://www.w3.org/2000/svg">
<path fill-rule="evenodd" clip-rule="evenodd" d="M20.7111 10.0619C20.7111 15.6191 16.0749 20.1238 10.3555 20.1238C4.63618 20.1238 0 15.6191 0 10.0619C0 4.5047 4.63618 0 10.3555 0C16.0749 0 20.7111 4.5047 20.7111 10.0619ZM10.3553 3.71593C7.47123 3.71593 4.99985 5.56008 4.16341 8.14818C3.94006 8.83923 4.31922 9.58049 5.01027 9.80384C5.70133 10.0272 6.44259 9.64802 6.66593 8.95697C7.14878 7.46296 8.60319 6.3459 10.3553 6.3459C12.1079 6.3459 13.5618 7.46289 14.0447 8.95697C14.2437 9.57283 14.8613 9.95228 15.5006 9.85153C16.14 9.75079 16.6109 9.1998 16.6109 8.55257V5.53401C16.6109 4.80776 16.0222 4.21902 15.2959 4.21902C14.7974 4.21902 14.3636 4.49648 14.1406 4.90541C13.0719 4.15504 11.7629 3.71593 10.3553 3.71593ZM16.5472 11.9755C16.7705 11.2845 16.3914 10.5432 15.7003 10.3199C15.0093 10.0965 14.268 10.4757 14.0447 11.1667C13.5618 12.6608 12.1079 13.7778 10.3553 13.7778C8.60319 13.7778 7.14878 12.6607 6.66593 11.1667C6.4669 10.5509 5.84931 10.1714 5.20998 10.2722C4.57064 10.3729 4.09968 10.9239 4.09968 11.5711V14.5897C4.09968 15.3159 4.68842 15.9047 5.41467 15.9047C5.91328 15.9047 6.34706 15.6272 6.57002 15.2182C7.63882 15.9686 8.94793 16.4078 10.3553 16.4078C13.24 16.4078 15.7108 14.5636 16.5472 11.9755Z" fill="#C7C6C3"/>
</svg>
