<svg width="134" height="74" viewBox="0 0 134 74" fill="none" xmlns="http://www.w3.org/2000/svg">
<path d="M111.294 13.9479C99.4186 8.25394 83.6884 5.1123 67 5.1123C50.3116 5.1123 34.572 8.25394 22.7036 13.9479C10.2229 19.9338 3.35001 28.1196 3.35001 36.9996C3.35001 45.8796 10.2229 54.0653 22.7036 60.0513C34.572 65.7452 50.3076 68.8869 67 68.8869C83.6924 68.8869 99.42 65.7506 111.295 60.0566C123.776 54.0653 130.65 45.8796 130.65 36.9996C130.65 28.1196 123.776 19.9338 111.294 13.9479ZM109.064 55.365C97.8709 60.7321 82.9339 63.688 66.9987 63.688C51.0634 63.688 36.1237 60.728 24.9334 55.365C14.5042 50.3626 8.52241 43.669 8.52241 36.9996C8.52241 30.3302 14.5042 23.6365 24.9334 18.6341C36.1251 13.2671 51.0634 10.3111 66.9987 10.3111C82.9339 10.3111 97.8709 13.2711 109.064 18.6341C119.494 23.6365 125.478 30.3302 125.478 36.9996C125.478 43.669 119.494 50.3626 109.064 55.365Z" fill="#F0F4F3"/>
<path d="M55.1156 53.265L51.8942 48.8721H49.0789V60.0743H51.8768V53.7924L54.1146 56.8224H55.7092L57.7433 53.7924V60.0743H60.7945V48.8721H57.9979L55.1156 53.265Z" fill="#E7E7E7"/>
<path d="M62.3542 51.4096H66.0164V60.0743H69.1199V51.4096H72.7647V48.8721H62.3542V51.4096Z" fill="#E7E7E7"/>
<path d="M82.1232 55.0517L77.1049 48.8721H74.3244V60.0743H77.121V53.6727L82.3604 60.0743H84.9212V48.8721H82.1232V55.0517Z" fill="#E7E7E7"/>
<path d="M24.4054 23.7256H28.7001V39.2266H24.4054V23.7256Z" fill="#E7E7E7"/>
<path d="M39.4456 27.4715C39.6332 27.4715 39.8476 27.4836 40.1022 27.5065C40.3403 27.5297 40.5757 27.5747 40.8057 27.641V31.6451C40.521 31.5488 40.2287 31.4768 39.932 31.4298C39.6489 31.3835 39.3626 31.3597 39.0757 31.3585C38.3253 31.3585 37.7116 31.4957 37.2346 31.7702C36.7659 32.0377 36.3676 32.4136 36.0728 32.8668V39.2267H31.9188V28.272L35.9026 27.4473V29.896C36.2889 29.1702 36.8437 28.5485 37.52 28.0837C38.0878 27.6937 38.7577 27.4807 39.4456 27.4715Z" fill="#E7E7E7"/>
<path d="M54.4603 27.4477V39.2258H50.4711V37.7902C49.5331 39.0146 48.3365 39.6272 46.8812 39.6281C46.199 39.6321 45.5236 39.4914 44.8994 39.2151C44.2848 38.943 43.7303 38.5505 43.2686 38.0607C42.7892 37.5501 42.4145 36.9499 42.1658 36.2941C41.8928 35.5761 41.7564 34.813 41.7638 34.0445C41.7546 33.1314 41.9425 32.2272 42.3145 31.3939C43.0285 29.7997 44.3388 28.5518 45.962 27.92C46.7867 27.5895 47.667 27.4214 48.5549 27.4249C49.1572 27.4259 49.7581 27.4849 50.3492 27.6011C50.917 27.7106 51.4774 27.8562 52.0268 28.037L54.4603 27.4477ZM48.4772 36.3049C48.7957 36.3014 49.112 36.2497 49.4152 36.1515C49.7663 36.034 50.0762 35.8172 50.3076 35.5272V31.0051C50.0351 30.8521 49.743 30.7375 49.4393 30.6647C49.163 30.5963 48.8797 30.5606 48.5951 30.5584C48.2718 30.5576 47.9505 30.6094 47.6437 30.7118C47.3422 30.8138 47.0675 30.9826 46.8397 31.2056C46.5905 31.4558 46.3985 31.7574 46.2769 32.0895C46.1262 32.5122 46.0549 32.9593 46.0665 33.4081C46.0665 34.3051 46.2773 35.0119 46.699 35.5285C47.1206 36.0452 47.7134 36.3044 48.4772 36.3062V36.3049Z" fill="#E7E7E7"/>
<path d="M65.2057 27.4715C65.7791 27.4678 66.3481 27.5718 66.8834 27.7782C67.4022 27.9785 67.8678 28.2967 68.2435 28.708C68.6444 29.1561 68.9507 29.681 69.144 30.2512C69.3745 30.9337 69.4856 31.6511 69.4723 32.3716V39.2334H65.3464V33.6902C65.3464 32.812 65.2017 32.133 64.9123 31.6532C64.6228 31.1733 64.1655 30.9338 63.5401 30.9347C63.1228 30.9295 62.7111 31.0309 62.3435 31.2293C61.9813 31.4269 61.6558 31.6859 61.3814 31.9949V39.2267H57.2274V28.272L61.2166 27.4473V29.1964C61.7125 28.6348 62.3306 28.1956 63.0229 27.9128C63.7145 27.6228 64.4563 27.4728 65.2057 27.4715Z" fill="#E7E7E7"/>
<path d="M77.6637 39.7448C76.7879 39.7557 75.9173 39.608 75.0936 39.3089C74.3558 39.0414 73.6781 38.6299 73.0997 38.098C72.5446 37.5773 72.1093 36.9414 71.824 36.2345C71.5201 35.479 71.3684 34.6705 71.3778 33.8558C71.3657 32.9827 71.5335 32.1166 71.8706 31.3118C72.2077 30.507 72.7069 29.7808 73.3369 29.179C73.9459 28.603 74.661 28.152 75.442 27.851C76.2695 27.5332 77.1489 27.3735 78.0349 27.3801C78.6905 27.3878 79.3433 27.4667 79.9819 27.6155C80.6593 27.7642 81.3207 27.9783 81.9571 28.2546V31.7878C81.4605 31.4393 80.9149 31.1672 80.3384 30.9805C79.7771 30.7895 79.189 30.69 78.5964 30.6859C77.703 30.6859 76.9834 30.9334 76.4376 31.4286C75.8918 31.9237 75.618 32.5794 75.6162 33.3956C75.6162 34.2926 75.8704 34.9954 76.3787 35.5039C76.887 36.0125 77.6016 36.2677 78.5227 36.2695C79.0287 36.2607 79.5308 36.1773 80.0127 36.0219C80.5331 35.8653 81.0332 35.6476 81.5028 35.3734L83.013 37.6728C82.2997 38.3477 81.4559 38.8684 80.534 39.2026C79.6177 39.5558 78.6452 39.7395 77.6637 39.7448Z" fill="#E7E7E7"/>
<path d="M96.3862 37.6957C95.6447 38.2948 94.8182 38.7791 93.934 39.1327C91.9627 39.8785 89.8004 39.9448 87.7874 39.321C87.001 39.0661 86.2724 38.6578 85.6434 38.1195C85.0509 37.6046 84.5784 36.9652 84.2592 36.2467C83.923 35.4788 83.7549 34.6474 83.7661 33.8087C83.7599 32.9334 83.937 32.0666 84.286 31.2644C84.6199 30.4943 85.1069 29.8007 85.7171 29.2261C86.3452 28.6422 87.0777 28.183 87.8759 27.8726C88.736 27.5368 89.6519 27.3688 90.5746 27.3774C91.3606 27.3682 92.1422 27.4956 92.8848 27.7542C93.544 27.9842 94.1504 28.3447 94.6683 28.8144C95.1571 29.2707 95.5459 29.8242 95.81 30.4397C96.0901 31.1023 96.2298 31.8162 96.2201 32.5359C96.2231 32.942 96.1876 33.3475 96.1142 33.7468C96.057 34.076 95.9584 34.3965 95.8207 34.7007H88.0085C88.2546 35.293 88.6986 35.7807 89.2641 36.0798C89.8492 36.4009 90.5961 36.5615 91.5046 36.5615C92.1281 36.5622 92.7483 36.4715 93.3458 36.2924C93.9213 36.1219 94.4823 35.9055 95.0234 35.6452L96.3862 37.6957ZM90.5438 30.2042C90.0052 30.2101 89.4767 30.3516 89.0068 30.6159C88.4835 30.9102 88.0929 31.3953 87.9161 31.9708H92.6315C92.5741 31.4774 92.3409 31.0215 91.9749 30.6872C91.6149 30.3661 91.1379 30.2051 90.5438 30.2042Z" fill="#E7E7E7"/>
<path d="M98.4498 23.3486L102.604 22.501V39.2263H98.4498V23.3486Z" fill="#E7E7E7"/>
<path d="M105.441 23.3486L109.595 22.501V39.2263H105.441V23.3486Z" fill="#E7E7E7"/>
</svg>
