<svg width="134" height="74" viewBox="0 0 134 74" fill="none" xmlns="http://www.w3.org/2000/svg">
<g id="Layer 2">
<g id="Layer 1">
<path id="Vector" d="M111.294 13.9479C99.4187 8.25394 83.6885 5.1123 67.0001 5.1123C50.3117 5.1123 34.5721 8.25394 22.7037 13.9479C10.223 19.9338 3.3501 28.1196 3.3501 36.9996C3.3501 45.8796 10.223 54.0653 22.7037 60.0513C34.5721 65.7452 50.3077 68.8869 67.0001 68.8869C83.6925 68.8869 99.4201 65.7506 111.295 60.0566C123.776 54.0653 130.65 45.8796 130.65 36.9996C130.65 28.1196 123.776 19.9338 111.294 13.9479ZM109.064 55.365C97.871 60.7321 82.934 63.688 66.9988 63.688C51.0635 63.688 36.1238 60.728 24.9335 55.365C14.5043 50.3626 8.5225 43.669 8.5225 36.9996C8.5225 30.3302 14.5043 23.6365 24.9335 18.6341C36.1252 13.2671 51.0635 10.3111 66.9988 10.3111C82.934 10.3111 97.871 13.2711 109.064 18.6341C119.495 23.6365 125.478 30.3302 125.478 36.9996C125.478 43.669 119.495 50.3626 109.064 55.365Z" fill="#434544"/>
<path id="Vector_2" d="M55.1153 53.265L51.894 48.8721H49.0786V60.0743H51.8765V53.7924L54.1143 56.8224H55.7089L57.7431 53.7924V60.0743H60.7942V48.8721H57.9977L55.1153 53.265Z" fill="#434544"/>
<path id="Vector_3" d="M62.354 51.4096H66.0162V60.0743H69.1197V51.4096H72.7645V48.8721H62.354V51.4096Z" fill="#434544"/>
<path id="Vector_4" d="M82.123 55.0517L77.1047 48.8721H74.3242V60.0743H77.1208V53.6727L82.3602 60.0743H84.9209V48.8721H82.123V55.0517Z" fill="#434544"/>
<path id="Vector_5" d="M24.4053 23.7256H28.7V39.2266H24.4053V23.7256Z" fill="#434544"/>
<path id="Vector_6" d="M39.4457 27.4715C39.6333 27.4715 39.8477 27.4836 40.1023 27.5065C40.3404 27.5297 40.5759 27.5747 40.8058 27.641V31.6451C40.5211 31.5488 40.2289 31.4768 39.9321 31.4298C39.649 31.3835 39.3627 31.3597 39.0759 31.3585C38.3255 31.3585 37.7118 31.4957 37.2347 31.7702C36.7661 32.0377 36.3678 32.4136 36.0729 32.8668V39.2267H31.9189V28.272L35.9028 27.4473V29.896C36.289 29.1702 36.8438 28.5485 37.5201 28.0837C38.088 27.6937 38.7578 27.4807 39.4457 27.4715Z" fill="#434544"/>
<path id="Vector_7" d="M54.4605 27.4477V39.2258H50.4713V37.7902C49.5333 39.0146 48.3367 39.6272 46.8814 39.6281C46.1992 39.6321 45.5239 39.4914 44.8996 39.2151C44.285 38.943 43.7306 38.5505 43.2688 38.0607C42.7894 37.5501 42.4147 36.9499 42.166 36.2941C41.893 35.5761 41.7566 34.813 41.764 34.0445C41.7548 33.1314 41.9427 32.2272 42.3147 31.3939C43.0287 29.7997 44.339 28.5518 45.9622 27.92C46.7869 27.5895 47.6672 27.4214 48.5551 27.4249C49.1574 27.4259 49.7583 27.4849 50.3494 27.6011C50.9172 27.7106 51.4776 27.8562 52.0271 28.037L54.4605 27.4477ZM48.4774 36.3049C48.796 36.3014 49.1122 36.2497 49.4154 36.1515C49.7665 36.034 50.0764 35.8172 50.3078 35.5272V31.0051C50.0354 30.8521 49.7432 30.7375 49.4395 30.6647C49.1632 30.5963 48.8799 30.5606 48.5953 30.5584C48.272 30.5576 47.9507 30.6094 47.6439 30.7118C47.3424 30.8138 47.0677 30.9826 46.8399 31.2056C46.5907 31.4558 46.3987 31.7574 46.2771 32.0895C46.1264 32.5122 46.0551 32.9593 46.0667 33.4081C46.0667 34.3051 46.2776 35.0119 46.6992 35.5285C47.1209 36.0452 47.7136 36.3044 48.4774 36.3062V36.3049Z" fill="#434544"/>
<path id="Vector_8" d="M65.2059 27.4715C65.7793 27.4678 66.3483 27.5718 66.8836 27.7782C67.4024 27.9785 67.8679 28.2967 68.2437 28.708C68.6445 29.1561 68.9508 29.681 69.1442 30.2512C69.3746 30.9337 69.4857 31.6511 69.4725 32.3716V39.2334H65.3466V33.6902C65.3466 32.812 65.2019 32.133 64.9124 31.6532C64.623 31.1733 64.1656 30.9338 63.5403 30.9347C63.123 30.9295 62.7112 31.0309 62.3437 31.2293C61.9814 31.4269 61.6559 31.6859 61.3815 31.9949V39.2267H57.2275V28.272L61.2167 27.4473V29.1964C61.7126 28.6348 62.3307 28.1956 63.023 27.9128C63.7146 27.6228 64.4564 27.4728 65.2059 27.4715Z" fill="#434544"/>
<path id="Vector_9" d="M77.6635 39.7448C76.7877 39.7557 75.9171 39.608 75.0934 39.3089C74.3556 39.0414 73.6779 38.6299 73.0995 38.098C72.5444 37.5773 72.1091 36.9414 71.8238 36.2345C71.5198 35.479 71.3682 34.6705 71.3776 33.8558C71.3655 32.9827 71.5333 32.1166 71.8704 31.3118C72.2075 30.507 72.7067 29.7808 73.3366 29.179C73.9457 28.603 74.6607 28.152 75.4418 27.851C76.2693 27.5332 77.1487 27.3735 78.0347 27.3801C78.6902 27.3878 79.3431 27.4667 79.9817 27.6155C80.659 27.7642 81.3205 27.9783 81.9569 28.2546V31.7878C81.4603 31.4393 80.9147 31.1672 80.3381 30.9805C79.7769 30.7895 79.1888 30.69 78.5961 30.6859C77.7028 30.6859 76.9832 30.9334 76.4374 31.4286C75.8916 31.9237 75.6178 32.5794 75.616 33.3956C75.616 34.2926 75.8701 34.9954 76.3784 35.5039C76.8868 36.0125 77.6014 36.2677 78.5224 36.2695C79.0285 36.2607 79.5306 36.1773 80.0125 36.0219C80.5329 35.8653 81.033 35.6476 81.5026 35.3734L83.0128 37.6728C82.2995 38.3477 81.4557 38.8684 80.5338 39.2026C79.6175 39.5558 78.645 39.7395 77.6635 39.7448Z" fill="#434544"/>
<path id="Vector_10" d="M96.3863 37.6957C95.6448 38.2948 94.8183 38.7791 93.9341 39.1327C91.9628 39.8785 89.8004 39.9448 87.7875 39.321C87.001 39.0661 86.2724 38.6578 85.6435 38.1195C85.051 37.6046 84.5785 36.9652 84.2593 36.2467C83.9231 35.4788 83.7549 34.6474 83.7662 33.8087C83.7599 32.9334 83.9371 32.0666 84.2861 31.2644C84.62 30.4943 85.107 29.8007 85.7172 29.2261C86.3453 28.6422 87.0778 28.183 87.8759 27.8726C88.736 27.5368 89.6519 27.3688 90.5747 27.3774C91.3606 27.3682 92.1422 27.4956 92.8849 27.7542C93.544 27.9842 94.1505 28.3447 94.6684 28.8144C95.1572 29.2707 95.546 29.8242 95.8101 30.4397C96.0902 31.1023 96.2298 31.8162 96.2201 32.5359C96.2231 32.942 96.1877 33.3475 96.1143 33.7468C96.057 34.076 95.9584 34.3965 95.8208 34.7007H88.0086C88.2547 35.293 88.6987 35.7807 89.2642 36.0798C89.8493 36.4009 90.5961 36.5615 91.5047 36.5615C92.1281 36.5622 92.7484 36.4715 93.3458 36.2924C93.9213 36.1219 94.4823 35.9055 95.0235 35.6452L96.3863 37.6957ZM90.5439 30.2042C90.0053 30.2101 89.4768 30.3516 89.0069 30.6159C88.4835 30.9102 88.093 31.3953 87.9161 31.9708H92.6316C92.5741 31.4774 92.3409 31.0215 91.975 30.6872C91.615 30.3661 91.1379 30.2051 90.5439 30.2042Z" fill="#434544"/>
<path id="Vector_11" d="M98.4497 23.3486L102.604 22.501V39.2263H98.4497V23.3486Z" fill="#434544"/>
<path id="Vector_12" d="M105.44 23.3486L109.594 22.501V39.2263H105.44V23.3486Z" fill="#434544"/>
</g>
</g>
</svg>
