<svg width="20" height="20" viewBox="0 0 20 20" fill="none" xmlns="http://www.w3.org/2000/svg">
<path d="M18.9998 1H1.6665V7.93333H18.9998V1ZM18.9998 11.4H1.6665V18.3333H18.9998V11.4Z" fill="#C7C6C3" stroke="#C7C6C3" stroke-width="1.73333" stroke-linejoin="round"/>
<path d="M5.5666 3.59998H4.69993C4.58501 3.59998 4.47479 3.64563 4.39352 3.7269C4.31226 3.80816 4.2666 3.91838 4.2666 4.03331V4.89998C4.2666 5.0149 4.31226 5.12512 4.39352 5.20639C4.47479 5.28765 4.58501 5.33331 4.69993 5.33331H5.5666C5.68153 5.33331 5.79175 5.28765 5.87301 5.20639C5.95428 5.12512 5.99993 5.0149 5.99993 4.89998V4.03331C5.99993 3.91838 5.95428 3.80816 5.87301 3.7269C5.79175 3.64563 5.68153 3.59998 5.5666 3.59998ZM5.5666 14H4.69993C4.58501 14 4.47479 14.0456 4.39352 14.1269C4.31226 14.2082 4.2666 14.3184 4.2666 14.4333V15.3C4.2666 15.4149 4.31226 15.5251 4.39352 15.6064C4.47479 15.6877 4.58501 15.7333 4.69993 15.7333H5.5666C5.68153 15.7333 5.79175 15.6877 5.87301 15.6064C5.95428 15.5251 5.99993 15.4149 5.99993 15.3V14.4333C5.99993 14.3184 5.95428 14.2082 5.87301 14.1269C5.79175 14.0456 5.68153 14 5.5666 14ZM9.03327 3.59998H8.1666C8.05167 3.59998 7.94145 3.64563 7.86019 3.7269C7.77892 3.80816 7.73327 3.91838 7.73327 4.03331V4.89998C7.73327 5.0149 7.77892 5.12512 7.86019 5.20639C7.94145 5.28765 8.05167 5.33331 8.1666 5.33331H9.03327C9.14819 5.33331 9.25842 5.28765 9.33968 5.20639C9.42095 5.12512 9.4666 5.0149 9.4666 4.89998V4.03331C9.4666 3.91838 9.42095 3.80816 9.33968 3.7269C9.25842 3.64563 9.14819 3.59998 9.03327 3.59998ZM9.03327 14H8.1666C8.05167 14 7.94145 14.0456 7.86019 14.1269C7.77892 14.2082 7.73327 14.3184 7.73327 14.4333V15.3C7.73327 15.4149 7.77892 15.5251 7.86019 15.6064C7.94145 15.6877 8.05167 15.7333 8.1666 15.7333H9.03327C9.14819 15.7333 9.25842 15.6877 9.33968 15.6064C9.42095 15.5251 9.4666 15.4149 9.4666 15.3V14.4333C9.4666 14.3184 9.42095 14.2082 9.33968 14.1269C9.25842 14.0456 9.14819 14 9.03327 14Z" fill="black"/>
</svg>
