<svg width="36" height="36" viewBox="0 0 36 36" fill="none" xmlns="http://www.w3.org/2000/svg">
<g id="Group">
<path id="Vector" d="M34.3341 2H2.03027V14.9215H34.3341V2ZM34.3341 21.3823H2.03027V34.3038H34.3341V21.3823Z" fill="#C7C6C3" stroke="#C7C6C3" stroke-width="3.23038" stroke-linejoin="round"/>
<path id="Vector_2" d="M9.29779 6.84558H7.6826C7.46841 6.84558 7.26299 6.93067 7.11154 7.08212C6.96009 7.23357 6.875 7.43899 6.875 7.65318V9.26837C6.875 9.48255 6.96009 9.68797 7.11154 9.83942C7.26299 9.99088 7.46841 10.076 7.6826 10.076H9.29779C9.51197 10.076 9.71739 9.99088 9.86884 9.83942C10.0203 9.68797 10.1054 9.48255 10.1054 9.26837V7.65318C10.1054 7.43899 10.0203 7.23357 9.86884 7.08212C9.71739 6.93067 9.51197 6.84558 9.29779 6.84558ZM9.29779 26.2279H7.6826C7.46841 26.2279 7.26299 26.3129 7.11154 26.4644C6.96009 26.6159 6.875 26.8213 6.875 27.0355V28.6506C6.875 28.8648 6.96009 29.0702 7.11154 29.2217C7.26299 29.3732 7.46841 29.4582 7.6826 29.4582H9.29779C9.51197 29.4582 9.71739 29.3732 9.86884 29.2217C10.0203 29.0702 10.1054 28.8648 10.1054 28.6506V27.0355C10.1054 26.8213 10.0203 26.6159 9.86884 26.4644C9.71739 26.3129 9.51197 26.2279 9.29779 26.2279ZM15.7585 6.84558H14.1434C13.9292 6.84558 13.7238 6.93067 13.5723 7.08212C13.4208 7.23357 13.3358 7.43899 13.3358 7.65318V9.26837C13.3358 9.48255 13.4208 9.68797 13.5723 9.83942C13.7238 9.99088 13.9292 10.076 14.1434 10.076H15.7585C15.9727 10.076 16.1781 9.99088 16.3296 9.83942C16.4811 9.68797 16.5661 9.48255 16.5661 9.26837V7.65318C16.5661 7.43899 16.4811 7.23357 16.3296 7.08212C16.1781 6.93067 15.9727 6.84558 15.7585 6.84558ZM15.7585 26.2279H14.1434C13.9292 26.2279 13.7238 26.3129 13.5723 26.4644C13.4208 26.6159 13.3358 26.8213 13.3358 27.0355V28.6506C13.3358 28.8648 13.4208 29.0702 13.5723 29.2217C13.7238 29.3732 13.9292 29.4582 14.1434 29.4582H15.7585C15.9727 29.4582 16.1781 29.3732 16.3296 29.2217C16.4811 29.0702 16.5661 28.8648 16.5661 28.6506V27.0355C16.5661 26.8213 16.4811 26.6159 16.3296 26.4644C16.1781 26.3129 15.9727 26.2279 15.7585 26.2279Z" fill="black"/>
</g>
</svg>
