<svg width="71" height="70" viewBox="0 0 71 70" fill="none" xmlns="http://www.w3.org/2000/svg">
<circle opacity="0.3" cx="35.5285" cy="35.0269" r="33.9956" stroke="white" stroke-width="1.87132"/>
<path opacity="0.6" d="M47.176 47.5026C47.067 47.5031 46.959 47.4808 46.8581 47.4369C46.7573 47.3931 46.6656 47.3285 46.5884 47.2471C46.5111 47.1656 46.4499 47.0687 46.408 46.9621C46.3662 46.8555 46.3447 46.7412 46.3447 46.6257V46.0491C46.3447 44.4429 45.4034 43.0026 44.0061 42.474C42.2845 41.8205 39.4276 41.0409 35.5285 41.0409C31.6293 41.0409 28.7725 41.8217 27.0565 42.4704C25.6615 42.999 24.7202 44.4381 24.7202 46.0443V46.6209C24.7202 47.1086 24.3459 47.4978 23.8889 47.4978C23.4318 47.4978 23.053 47.1062 23.053 46.6257V46.0491C23.053 43.6969 24.4367 41.5959 26.4963 40.8162C28.3358 40.1159 31.3923 39.2834 35.5285 39.2834C39.6647 39.2834 42.7189 40.1159 44.5607 40.8162C46.6203 41.5971 48.0039 43.7029 48.0039 46.0491V46.6257C48.0039 47.1062 47.6297 47.5026 47.176 47.5026ZM35.5285 24.3177C38.2787 24.3177 40.5187 26.6902 40.5187 29.6034C40.5187 32.5165 38.2799 34.889 35.5285 34.889C32.7771 34.889 30.5383 32.5189 30.5383 29.6034C30.5383 26.6878 32.7782 24.3177 35.5285 24.3177ZM35.5285 22.5542C33.7893 22.5958 32.1347 23.3568 30.9186 24.6744C29.7025 25.992 29.0216 27.7614 29.0216 29.604C29.0216 31.4465 29.7025 33.2159 30.9186 34.5335C32.1347 35.8511 33.7893 36.6121 35.5285 36.6537C37.2789 36.6295 38.9499 35.876 40.1797 34.5563C41.4094 33.2366 42.0989 31.457 42.0989 29.6028C42.0989 27.7485 41.4094 25.9689 40.1797 24.6492C38.9499 23.3295 37.2789 22.576 35.5285 22.5518V22.5542Z" fill="white"/>
</svg>
