<svg width="24" height="25" viewBox="0 0 24 25" fill="none" xmlns="http://www.w3.org/2000/svg">
<path d="M6.23741 11.5314C6.32844 11.6498 6.44483 11.7464 6.57802 11.8139C6.71121 11.8814 6.85782 11.9182 7.00709 11.9216H17.0029C17.268 11.9216 17.5223 11.8162 17.7097 11.6286C17.8972 11.4409 18.0025 11.1865 18.0025 10.9212C18.0025 10.6558 17.8972 10.4014 17.7097 10.2138C17.5223 10.0261 17.268 9.92074 17.0029 9.92074H8.92628L11.985 6.85947C12.0896 6.76979 12.1746 6.65942 12.2346 6.5353C12.2946 6.41118 12.3283 6.276 12.3337 6.13822C12.339 6.00045 12.3158 5.86305 12.2655 5.73467C12.2153 5.6063 12.1391 5.4897 12.0416 5.3922C11.9442 5.2947 11.8277 5.21842 11.6995 5.16812C11.5712 5.11783 11.4339 5.09461 11.2962 5.09993C11.1586 5.10526 11.0235 5.139 10.8995 5.19905C10.7755 5.2591 10.6652 5.34415 10.5756 5.44888L6.03749 9.99078C5.85131 10.1782 5.74682 10.4318 5.74682 10.6961C5.74682 10.9604 5.85131 11.2139 6.03749 11.4014C6.0987 11.4525 6.16582 11.4962 6.23741 11.5314ZM11.995 0.916992C9.62262 0.916992 7.30351 1.62108 5.33094 2.9402C3.35837 4.25933 1.82094 6.13426 0.913071 8.32789C0.00519727 10.5215 -0.232344 12.9353 0.230486 15.2641C0.693316 17.5928 1.83573 19.7319 3.51326 21.4108C5.19079 23.0897 7.32809 24.2331 9.6549 24.6963C11.9817 25.1595 14.3935 24.9218 16.5853 24.0132C18.7771 23.1045 20.6505 21.5658 21.9685 19.5916C23.2865 17.6174 23.99 15.2964 23.99 12.922C23.99 9.73807 22.7263 6.68456 20.4768 4.43318C18.2273 2.18181 15.1763 0.916992 11.995 0.916992ZM11.995 22.9262C10.018 22.9262 8.08542 22.3394 6.44162 21.2402C4.79781 20.1409 3.51662 18.5784 2.76006 16.7504C2.0035 14.9224 1.80555 12.9109 2.19124 10.9703C2.57693 9.02967 3.52894 7.24708 4.92688 5.84797C6.32482 4.44886 8.10591 3.49607 10.0449 3.11006C11.9839 2.72405 13.9937 2.92215 15.8202 3.67934C17.6467 4.43654 19.2079 5.71879 20.3062 7.36397C21.4046 9.00915 21.9908 10.9434 21.9908 12.922C21.9908 15.5718 20.9405 18.1134 19.0702 19.989C17.1999 21.8645 14.6626 22.9209 12.015 22.9262H11.995ZM17.7326 14.3126C17.6416 14.1941 17.5252 14.0976 17.392 14.0301C17.2588 13.9626 17.1122 13.9258 16.9629 13.9224H6.9671C6.70199 13.9224 6.44775 14.0278 6.26029 14.2154C6.07283 14.403 5.96752 14.6575 5.96752 14.9228C5.96752 15.1882 6.07283 15.4426 6.26029 15.6302C6.44775 15.8178 6.70199 15.9232 6.9671 15.9232H15.0537L11.995 18.9845C11.8904 19.0742 11.8054 19.1846 11.7454 19.3087C11.6854 19.4328 11.6517 19.568 11.6464 19.7058C11.641 19.8435 11.6642 19.9809 11.7145 20.1093C11.7647 20.2377 11.841 20.3543 11.9384 20.4518C12.0358 20.5493 12.1523 20.6256 12.2806 20.6759C12.4088 20.7262 12.5461 20.7494 12.6838 20.7441C12.8214 20.7387 12.9565 20.705 13.0805 20.6449C13.2045 20.5849 13.3148 20.4998 13.4044 20.3951L17.9425 15.8532C18.1287 15.6658 18.2332 15.4122 18.2332 15.1479C18.2332 14.8836 18.1287 14.6301 17.9425 14.4426C17.8782 14.3908 17.8077 14.3471 17.7326 14.3126Z" fill="#FFF38E"/>
</svg>
