<svg width="11" height="12" viewBox="0 0 11 12" fill="none" xmlns="http://www.w3.org/2000/svg">
<path d="M9.80767 0.0429187C9.8695 0.00889928 9.93878 -0.00534793 10.0076 0.00179771C10.0764 0.00894336 10.1421 0.037195 10.197 0.083339C10.252 0.129483 10.2941 0.191667 10.3185 0.262817C10.3429 0.333967 10.3487 0.411228 10.3351 0.485809L9.29866 4.42713C9.27933 4.50058 9.24156 4.56654 9.18967 4.61743C9.13779 4.66832 9.07391 4.70207 9.00537 4.71481L4.80178 5.48926C4.60379 5.53233 4.60379 5.84438 4.80178 5.88745L9.00537 6.6619C9.07391 6.67464 9.13779 6.70839 9.18967 6.75928C9.24156 6.81017 9.27933 6.87613 9.29866 6.94958L10.3351 10.8909C10.3487 10.9655 10.3429 11.0427 10.3185 11.1139C10.2941 11.185 10.252 11.2472 10.197 11.2934C10.1421 11.3395 10.0764 11.3678 10.0076 11.3749C9.93878 11.3821 9.8695 11.3678 9.80767 11.3338L0.2037 6.0516C0.142426 6.01782 0.0909052 5.96596 0.0548992 5.9018C0.0188942 5.83765 -0.000175476 5.76375 -0.000175476 5.68835C-0.000175476 5.61296 0.0188942 5.53905 0.0548992 5.4749C0.0909052 5.41075 0.142426 5.35888 0.2037 5.3251L9.80767 0.0429187Z" fill="white"/>
</svg>
