<svg width="20" height="16" viewBox="0 0 20 16" fill="none" xmlns="http://www.w3.org/2000/svg">
<path d="M8.45985 11.5C8.877 11.9167 9.40261 12.1127 10.0367 12.088C10.6708 12.0633 11.1296 11.834 11.4133 11.4L15.6432 5.075C15.7934 4.84167 15.7727 4.629 15.5811 4.437C15.3896 4.245 15.1767 4.22433 14.9424 4.375L8.61002 8.6C8.17618 8.9 7.93857 9.35433 7.89719 9.963C7.85581 10.5717 8.04336 11.084 8.45985 11.5ZM3.10361 16C2.73652 16 2.39879 15.9207 2.09043 15.762C1.78207 15.6033 1.53579 15.366 1.35157 15.05C0.917735 14.2667 0.584013 13.454 0.350408 12.612C0.116803 11.77 0 10.8993 0 10C0 8.61667 0.262973 7.31667 0.788918 6.1C1.31486 4.88333 2.02803 3.825 2.92841 2.925C3.82946 2.025 4.88902 1.31267 6.10711 0.788C7.32519 0.263333 8.62671 0.000666666 10.0117 0C11.3799 0 12.6647 0.258333 13.8661 0.775C15.0675 1.29167 16.1188 1.996 17.0198 2.888C17.9209 3.77933 18.6384 4.821 19.1723 6.013C19.7063 7.205 19.9816 8.484 19.9983 9.85C20.015 10.7667 19.9105 11.6627 19.6849 12.538C19.4593 13.4133 19.1132 14.2507 18.6467 15.05C18.4632 15.3667 18.2169 15.6043 17.9078 15.763C17.5988 15.9217 17.2611 16.0007 16.8947 16H3.10361Z" fill="#C7C6C3"/>
</svg>
