<svg width="30" height="29" viewBox="0 0 30 29" fill="none" xmlns="http://www.w3.org/2000/svg">
<path opacity="0.5" d="M14.853 0.645508C11.9754 0.645508 9.16243 1.47297 6.76977 3.02325C4.37712 4.57352 2.51227 6.77699 1.41105 9.35501C0.309832 11.933 0.0217029 14.7698 0.583099 17.5066C1.1445 20.2434 2.5302 22.7573 4.56499 24.7305C6.59978 26.7036 9.19225 28.0473 12.0146 28.5917C14.8369 29.136 17.7623 28.8567 20.4209 27.7888C23.0795 26.721 25.3518 24.9126 26.9505 22.5925C28.5492 20.2723 29.4026 17.5446 29.4026 14.7541C29.4026 11.0123 27.8697 7.42372 25.1411 4.77784C22.4125 2.13196 18.7118 0.645508 14.853 0.645508ZM14.853 26.5113C12.455 26.5113 10.1109 25.8218 8.11698 24.5299C6.1231 23.238 4.56907 21.4018 3.65138 19.2534C2.7337 17.1051 2.49359 14.7411 2.96142 12.4604C3.42926 10.1798 4.58401 8.08481 6.27966 6.44054C7.97532 4.79627 10.1357 3.67652 12.4877 3.22287C14.8396 2.76921 17.2775 3.00203 19.4929 3.8919C21.7084 4.78178 23.602 6.28872 24.9343 8.22218C26.2666 10.1556 26.9776 12.4288 26.9776 14.7541C26.9777 17.8683 25.7036 20.8552 23.435 23.0594C21.1665 25.2636 18.0887 26.5051 14.8773 26.5113H14.853ZM15.7503 8.02902C15.6376 7.91883 15.5035 7.83136 15.3557 7.77167C15.208 7.71198 15.0495 7.68126 14.8894 7.68126C14.7294 7.68126 14.5709 7.71198 14.4231 7.77167C14.2754 7.83136 14.1413 7.91883 14.0286 8.02902L7.96628 13.9076C7.73797 14.129 7.6097 14.4293 7.6097 14.7424C7.6097 15.0555 7.73797 15.3557 7.96628 15.5771C8.19459 15.7985 8.50425 15.9229 8.82713 15.9229C9.15001 15.9229 9.45966 15.7985 9.68797 15.5771L13.6891 11.6973V20.6327C13.6891 20.9446 13.8168 21.2436 14.0442 21.4641C14.2716 21.6846 14.58 21.8085 14.9015 21.8085C15.2231 21.8085 15.5315 21.6846 15.7589 21.4641C15.9863 21.2436 16.114 20.9446 16.114 20.6327V11.709L20.1151 15.5889C20.3485 15.78 20.6476 15.8787 20.9527 15.8652C21.2578 15.8518 21.5465 15.7271 21.7609 15.5162C21.9754 15.3053 22.0998 15.0236 22.1094 14.7276C22.119 14.4315 22.013 14.1429 21.8126 13.9194L15.7503 8.02902Z" fill="white"/>
</svg>
