<svg width="25" height="25" viewBox="0 0 25 25" fill="none" xmlns="http://www.w3.org/2000/svg">
<path d="M12.5 0.916992C10.0277 0.916992 7.61099 1.62078 5.55538 2.93936C3.49976 4.25794 1.89761 6.13209 0.951511 8.3248C0.00541607 10.5175 -0.242126 12.9303 0.24019 15.2581C0.722505 17.5858 1.91301 19.7241 3.66117 21.4023C5.40933 23.0805 7.63661 24.2234 10.0614 24.6864C12.4861 25.1494 14.9995 24.9118 17.2835 24.0035C19.5676 23.0953 21.5198 21.5572 22.8934 19.5838C24.2669 17.6104 25 15.2904 25 12.917C25 9.7344 23.683 6.68216 21.3388 4.43172C18.9946 2.18128 15.8152 0.916992 12.5 0.916992ZM12.5 22.917C10.4398 22.917 8.42582 22.3305 6.71281 21.2317C4.9998 20.1329 3.66467 18.5711 2.87626 16.7438C2.08785 14.9166 1.88156 12.9059 2.28349 10.9661C2.68542 9.02629 3.67751 7.24444 5.13431 5.84592C6.5911 4.44739 8.44718 3.495 10.4678 3.10915C12.4884 2.72329 14.5829 2.92132 16.4863 3.67819C18.3897 4.43507 20.0165 5.71679 21.1611 7.36128C22.3057 9.00578 22.9167 10.9392 22.9167 12.917C22.9167 15.5657 21.8221 18.1062 19.8731 19.981C17.9241 21.8558 15.2799 22.9117 12.5208 22.917H12.5ZM13.2708 7.19699C13.174 7.10326 13.0588 7.02887 12.9319 6.97811C12.8049 6.92734 12.6688 6.9012 12.5313 6.9012C12.3937 6.9012 12.2576 6.92734 12.1306 6.97811C12.0037 7.02887 11.8885 7.10326 11.7917 7.19699L6.58334 12.197C6.38719 12.3853 6.27699 12.6407 6.27699 12.907C6.27699 13.1733 6.38719 13.4287 6.58334 13.617C6.77949 13.8053 7.04552 13.9111 7.32292 13.9111C7.60032 13.9111 7.86635 13.8053 8.0625 13.617L11.5 10.317V17.917C11.5 18.1822 11.6097 18.4366 11.8051 18.6241C12.0004 18.8116 12.2654 18.917 12.5417 18.917C12.8179 18.917 13.0829 18.8116 13.2782 18.6241C13.4736 18.4366 13.5833 18.1822 13.5833 17.917V10.327L17.0208 13.627C17.2213 13.7896 17.4783 13.8735 17.7404 13.862C18.0026 13.8506 18.2506 13.7445 18.4348 13.5651C18.619 13.3858 18.726 13.1462 18.7342 12.8944C18.7424 12.6426 18.6513 12.3971 18.4792 12.207L13.2708 7.19699Z" fill="#BF71FF"/>
</svg>
