<svg width="18" height="16" viewBox="0 0 18 16" fill="none" xmlns="http://www.w3.org/2000/svg">
<path d="M8.96098 11.5949C8.248 11.5949 7.56422 11.313 7.06007 10.8112C6.55592 10.3094 6.27269 9.62878 6.27269 8.91913C6.27269 7.92019 6.81931 7.04611 7.61683 6.59124L16.3179 1.57869L11.3625 10.1232C10.9145 10.9973 10.0094 11.5949 8.96098 11.5949ZM8.96098 0C10.5829 0 12.0973 0.445957 13.4146 1.17733L11.5328 2.25654C10.7532 1.95329 9.85708 1.78383 8.96098 1.78383C7.0597 1.78383 5.23629 2.53558 3.89189 3.87371C2.54748 5.21184 1.7922 7.02673 1.7922 8.91913C1.7922 10.8903 2.58973 12.6741 3.88907 13.9584H3.89803C4.24751 14.3063 4.24751 14.8682 3.89803 15.216C3.54855 15.5639 2.97505 15.5639 2.62557 15.225C1.79218 14.3978 1.1312 13.415 0.680622 12.3328C0.230043 11.2507 -0.00125968 10.0905 5.15946e-06 8.91913C5.15946e-06 6.55363 0.944105 4.28502 2.62461 2.61235C4.30512 0.939691 6.58438 0 8.96098 0ZM17.922 8.91913C17.922 11.3808 16.9183 13.6106 15.2964 15.225C14.9469 15.5639 14.3824 15.5639 14.0329 15.216C13.9498 15.1335 13.8839 15.0355 13.8389 14.9276C13.794 14.8197 13.7708 14.7041 13.7708 14.5872C13.7708 14.4704 13.794 14.3548 13.8389 14.2469C13.8839 14.139 13.9498 14.041 14.0329 13.9584C14.6993 13.2978 15.2277 12.5124 15.5876 11.6475C15.9475 10.7826 16.1318 9.85529 16.1298 8.91913C16.1298 8.02722 15.9595 7.13531 15.6459 6.33258L16.7301 4.45957C17.4739 5.79744 17.922 7.29585 17.922 8.91913Z" fill="#C7C6C3"/>
</svg>
