<svg width="20" height="15" viewBox="0 0 20 15" fill="none" xmlns="http://www.w3.org/2000/svg">
<path d="M5.29167 10.0147L3.54167 8.11765C4.40278 7.20588 5.38889 6.50735 6.5 6.02206C7.61111 5.53677 8.77778 5.29412 10 5.29412C11.2222 5.29412 12.3925 5.54059 13.5108 6.03353C14.6292 6.52647 15.6117 7.23588 16.4583 8.16177L14.7083 10.0147C14.0833 9.35294 13.3644 8.84177 12.5517 8.48118C11.7389 8.12059 10.8883 7.94059 10 7.94118C9.11111 7.94118 8.26028 8.12147 7.4475 8.48206C6.63472 8.84265 5.91611 9.35353 5.29167 10.0147ZM1.75 6.26471L0 4.41177C1.31944 2.9853 2.84389 1.89324 4.57333 1.13559C6.30278 0.377942 8.11167 -0.000587551 10 6.84525e-07C11.8889 6.84525e-07 13.6981 0.378824 15.4275 1.13647C17.1569 1.89412 18.6811 2.98588 20 4.41177L18.25 6.26471C17.1528 5.10294 15.8922 4.20941 14.4683 3.58412C13.0444 2.95882 11.555 2.64647 10 2.64706C8.44444 2.64706 6.95472 2.95971 5.53083 3.585C4.10694 4.21029 2.84667 5.10353 1.75 6.26471ZM10 15L7.0625 11.8676C7.45139 11.4559 7.89944 11.1397 8.40667 10.9191C8.91389 10.6985 9.445 10.5882 10 10.5882C10.5556 10.5882 11.0869 10.6985 11.5942 10.9191C12.1014 11.1397 12.5492 11.4559 12.9375 11.8676L10 15Z" fill="#C7C6C3"/>
</svg>
