<svg width="256" height="256" viewBox="0 0 256 256" fill="none" xmlns="http://www.w3.org/2000/svg">
<path d="M111.296 13.0383L88.775 7.07083C68.5823 1.70858 47.8686 13.7277 42.5064 33.9204L36.8913 55.1242C55.4217 32.1202 82.0339 17.0677 111.296 13.0383Z" fill="white"/>
<path d="M12.6461 146.405L7.14603 167.142C1.78378 187.335 13.8029 208.048 33.9956 213.411L55.4445 219.133C32.5477 201.131 17.2653 175.162 12.6461 146.405Z" fill="white"/>
<path d="M222.034 42.4243L197.789 36.0278C222.348 54.9183 238.32 82.8633 242.127 113.62L248.738 88.5932C254.047 68.4771 242.12 47.8555 222.034 42.4243Z" fill="white"/>
<path d="M144.151 242.697L167.217 248.825C187.409 254.179 208.123 242.153 213.477 221.96L219.989 197.5C201.658 221.983 174.402 238.223 144.151 242.697Z" fill="white"/>
<path d="M127.942 22.5754C69.4247 22.5601 21.9843 69.993 21.9689 128.511C21.9689 128.526 21.9689 128.534 21.9689 128.541C21.9766 187.059 69.4096 234.499 127.927 234.492C127.935 234.492 127.935 234.492 127.942 234.492C186.452 234.484 233.878 187.051 233.885 128.541C233.885 70.0237 186.46 22.5831 127.942 22.5754ZM67.9388 75.4396C71.1102 59.0388 86.9672 48.299 103.376 51.455C119.792 54.6188 130.532 70.491 127.376 86.9071C124.212 103.323 108.339 114.063 91.9233 110.907C75.5071 107.743 64.7673 91.8711 67.9234 75.4549M111.955 167.012C108.799 183.428 92.9268 194.175 76.5107 191.012H76.503C60.0868 187.848 49.347 171.975 52.5031 155.559C55.6668 139.143 71.5392 128.403 87.9554 131.559C104.364 134.731 115.111 150.603 111.955 167.012ZM124.809 142.514C117.509 141.104 112.737 134.057 114.138 126.756C115.548 119.456 122.595 114.684 129.896 116.085C137.196 117.495 141.968 124.542 140.567 131.843C139.157 139.143 132.11 143.916 124.809 142.514ZM187.923 181.643C184.744 198.051 168.879 208.784 152.471 205.62C136.055 202.456 125.315 186.584 128.471 170.168C131.635 153.751 147.507 143.012 163.923 146.168C180.339 149.331 191.079 165.204 187.923 181.62M167.891 125.523C151.467 122.359 140.727 106.487 143.891 90.0632C147.055 73.6471 162.927 62.9073 179.343 66.0633C195.767 69.2271 206.507 85.0993 203.343 101.523C200.187 117.939 184.315 128.687 167.891 125.523Z" fill="white"/>
</svg>
