<svg width="256" height="256" viewBox="0 0 256 256" fill="none" xmlns="http://www.w3.org/2000/svg">
<path fill-rule="evenodd" clip-rule="evenodd" d="M86.276 161.455H85.0522C82.9123 161.122 80.9904 159.958 79.7041 158.217C78.4178 156.476 77.8712 154.298 78.1829 152.156C83.6437 116.194 85.4563 58.7968 85.4563 58.393C85.8604 53.9397 89.3008 50.317 93.9535 50.5131C96.0841 50.6085 98.0951 51.5242 99.5651 53.0684C101.035 54.6127 101.85 56.6655 101.839 58.7968C101.839 61.2196 99.8184 117.602 94.3576 154.59C94.0653 156.516 93.0865 158.271 91.6014 159.533C90.1163 160.794 88.225 161.477 86.276 161.455ZM202.154 176.407C200.435 176.416 198.758 175.87 197.374 174.852C195.989 173.834 194.969 172.397 194.465 170.754C194.13 169.746 194 168.682 194.084 167.623C194.168 166.564 194.464 165.533 194.954 164.591C195.443 163.649 196.117 162.814 196.936 162.137C197.754 161.459 198.7 160.953 199.718 160.647C237.932 148.533 238.544 139.223 238.752 134.169C239.156 126.29 233.095 116.194 230.671 112.756C229.409 111.015 228.891 108.845 229.231 106.722C229.571 104.6 230.741 102.699 232.483 101.438C234.225 100.178 236.397 99.6603 238.521 100C240.645 100.34 242.547 101.509 243.809 103.25C245.021 104.865 255.931 120.025 254.927 135.185C253.922 153.575 239.757 164.893 204.579 176.211C204.173 176.22 203.768 176.255 203.366 176.315C202.962 176.361 202.558 176.407 202.154 176.407ZM92.3372 204.904C91.1265 204.938 89.9254 204.681 88.8346 204.155C87.7438 203.629 86.7951 202.849 86.0682 201.881C85.3934 201.055 84.8935 200.101 84.5986 199.076C84.3038 198.051 84.2202 196.977 84.353 195.919C84.4858 194.86 84.8321 193.84 85.371 192.92C85.9099 191.999 86.6302 191.198 87.4882 190.563C104.067 177.422 115.196 165.701 122.47 155.398C118.429 153.379 114.18 150.345 111.964 145.291C109.932 140.642 108.72 132.958 115.797 122.655C125.91 107.703 136.024 104.265 139.857 103.457C142.344 102.937 144.937 103.377 147.113 104.689C149.289 106.001 150.888 108.088 151.587 110.53C152.603 114.164 155.027 125.69 147.754 143.272C157.452 143.065 165.141 140.446 171.005 135.589C182.32 126.497 182.932 111.13 182.932 110.934C183.027 108.802 183.945 106.791 185.493 105.322C187.041 103.852 189.098 103.04 191.232 103.054C193.363 103.149 195.374 104.065 196.844 105.609C198.314 107.153 199.129 109.206 199.118 111.337C199.118 112.145 198.31 133.766 181.523 147.91C171.005 156.805 156.643 160.647 139.256 159.24C130.967 171.965 117.817 186.929 97.3939 203.081C95.9622 204.241 94.1802 204.884 92.3372 204.904ZM136.22 123.267C133.371 125.7 130.917 128.561 128.947 131.747C126.314 135.785 126.107 138.011 126.314 138.623C126.718 139.638 128.739 140.642 130.759 141.449C134.604 133.777 135.816 127.709 136.22 123.267ZM138.24 180.053C138.32 182.151 139.203 184.139 140.707 185.605C142.211 187.072 144.221 187.905 146.322 187.933H146.738C147.35 187.933 160.892 187.529 180.311 183.087C181.364 182.87 182.364 182.445 183.251 181.837C184.139 181.23 184.897 180.452 185.48 179.549C186.064 178.646 186.461 177.635 186.65 176.577C186.839 175.519 186.815 174.433 186.58 173.384C186.362 172.332 185.937 171.333 185.329 170.446C184.721 169.559 183.943 168.802 183.039 168.219C182.135 167.636 181.124 167.238 180.065 167.049C179.006 166.861 177.92 166.885 176.87 167.12C158.86 170.95 146.126 171.562 145.93 171.562C143.785 171.675 141.773 172.632 140.333 174.223C138.892 175.814 138.14 177.91 138.24 180.053ZM2.55095 201.674C3.95946 203.693 6.59174 204.904 9.01621 204.904C10.6325 204.904 12.2488 204.5 13.8652 203.497C65.2408 166.116 67.2612 117.198 67.2612 115.179C67.2612 110.737 63.8208 107.103 59.3759 106.895C54.9195 106.688 51.2944 110.334 51.0865 114.775C51.0865 116.391 49.0546 157.821 4.36354 190.356C3.499 190.978 2.76606 191.766 2.20679 192.672C1.64751 193.579 1.27292 194.587 1.1045 195.638C0.936088 196.69 0.977171 197.765 1.22539 198.8C1.47362 199.836 1.92409 200.812 2.55095 201.674Z" fill="white"/>
</svg>
