<svg width="256" height="256" viewBox="0 0 256 256" fill="none" xmlns="http://www.w3.org/2000/svg">
<path d="M20.8165 6.62775L11.734 13.01V134.273V255.291L60.3375 254.8L108.696 254.064L109.432 126.909L109.923 -6.67572e-06H69.911C30.6354 -6.67572e-06 29.899 -6.67572e-06 20.8165 6.62775Z" fill="white"/>
<path d="M121.706 2.70017C117.778 4.90942 117.287 9.81887 117.287 46.6397V87.8791L144.535 105.553C159.508 115.127 172.518 122.736 173.5 122.245C178.41 120.281 242.478 79.533 242.478 78.5511C242.233 76.8328 132.015 1.4728 128.579 0.736388C127.106 0.245443 123.915 1.22733 121.706 2.70017Z" fill="white"/>
<path d="M179.882 125.927L120.969 163.239L120.233 209.388C119.742 249.891 119.987 255.291 123.424 255.291C125.633 255.291 153.862 236.39 186.265 213.561L244.933 171.585V130.1C244.933 98.189 244.196 88.3701 241.987 88.6155C240.269 88.6155 212.285 105.553 179.882 125.927Z" fill="white"/>
</svg>
