<svg width="256" height="256" viewBox="0 0 256 256" fill="none" xmlns="http://www.w3.org/2000/svg">
<path d="M111.097 12.237C91.6213 13.246 75.5588 14.7596 63.091 16.7778C47.893 19.2087 26.8707 23.4284 23.6399 24.7127C22.9574 24.9879 22.2749 25.6758 22.1384 26.2262C22.0018 26.8225 21.9563 50.2144 22.0473 78.1929C22.2294 133.37 22.1839 132.132 24.823 143.828C30.1924 167.587 42.9787 189.74 60.2698 205.38C77.0149 220.516 97.7642 233.451 118.878 241.89C123.701 243.817 124.52 244 127.978 244C132.255 244 132.847 243.817 142.494 239.643C154.324 234.552 162.879 229.873 174.346 222.168C207.79 199.785 225.673 174.1 232.453 138.874L233.681 132.315L233.863 79.0185L234 25.7217L232.953 25.0337C231.861 24.3457 228.813 23.6119 215.753 20.8599C187.451 14.9431 156.144 11.8242 126.795 12.0077C119.56 12.0535 112.462 12.1453 111.097 12.237ZM154.051 16.0439C171.752 17.0988 188.679 19.1628 206.653 22.5111C213.706 23.7953 228.221 26.8225 229.996 27.327C230.769 27.5564 230.815 29.9414 230.633 79.2478C230.496 125.711 230.405 131.398 229.723 135.526C225.218 161.624 214.07 183.227 195.914 200.886C183.628 212.857 166.246 224.736 148.637 233.267C141.675 236.661 129.389 241.707 128.16 241.707C127.068 241.707 118.241 238.221 111.597 235.194C89.8012 225.241 67.8688 209.875 55.037 195.565C41.3861 180.337 32.3765 162.954 28.0992 143.553C25.5511 131.857 25.5511 132.132 25.5056 78.3305C25.5056 50.9941 25.5056 28.4278 25.5056 28.1526C25.5966 26.6849 62.0444 19.8049 78.3345 18.1079C79.6996 17.9703 83.6128 17.5575 86.98 17.2364C92.3949 16.6402 104.954 15.8604 115.874 15.4018C121.835 15.1266 145.633 15.5394 154.051 16.0439Z" fill="white"/>
<path d="M105.921 22.4767C91.5075 23.2128 71.5361 25.4212 56.6705 27.9977C50.2544 29.1019 36.1569 31.9084 33.717 32.5985L32 33.0586L32.1807 81.9191L32.3615 130.78L33.5363 137.221C36.9251 155.67 44.3353 172.417 55.4506 186.909C63.3578 197.169 79.2626 210.65 94.6252 220.035C105.966 227.028 124.808 236 128.061 236C130.276 236 144.915 229.467 154.042 224.406C171.935 214.468 188.563 201.448 198.549 189.44C209.348 176.466 216.577 162.203 220.689 145.686C223.852 133.172 223.762 134.552 223.942 81.505C224.078 42.8123 223.987 33.5186 223.536 33.1506C221.954 31.9544 198.865 27.6756 180.475 25.2372C159.103 22.3847 129.598 21.2805 105.921 22.4767ZM155.172 24.271C169.902 25.3752 181.65 26.7094 194.256 28.6878C202.751 30.022 219.469 33.2886 221.141 33.9327L222.27 34.3928V81.183C222.27 118.864 222.135 128.985 221.638 132.85C218.656 155.348 209.031 176.052 193.895 192.43C180.701 206.739 158.47 221.922 137.776 230.847C127.7 235.218 128.423 235.126 121.871 232.457C106.418 226.108 91.0105 217.091 77.4552 206.417C52.0166 186.449 38.0999 162.387 34.2592 131.7C33.6266 126.685 33.5363 34.9909 34.1688 34.3468C34.937 33.5646 53.3269 29.976 66.5659 27.9977C78.5849 26.2034 97.2911 24.317 108.677 23.8109C118.437 23.3509 147.084 23.6269 155.172 24.271Z" fill="white"/>
<path d="M172.421 39.7418C168.078 41.2559 164.649 44.5595 163.003 48.8267L162.271 50.8456L159.437 51.075C157.928 51.2126 154.91 51.4421 152.807 51.5797C141.879 52.4056 129.397 56.1222 118.15 61.8576C108.137 66.9966 100.73 72.4108 92.683 80.4864C79.1494 94.022 70.2337 110.77 66.1645 130.178C64.3356 138.85 64.1984 138.391 69.1821 141.557C89.6654 154.588 106.399 172.483 118.013 193.911C121.076 199.462 124.551 207.217 125.877 211.254C126.197 212.264 126.7 213.044 126.928 212.998C127.614 212.906 135.433 198.958 140.233 189.23C145.263 178.998 146.726 174.364 147.137 167.436C147.64 157.938 145.72 149.908 140.691 141.053C136.896 134.354 136.301 132.702 136.301 128.985C136.301 122.699 138.816 116.413 143.251 111.641C144.76 110.035 146.223 108.705 146.452 108.705C146.726 108.705 147.96 109.622 149.241 110.815C153.035 114.211 160.671 117.423 165.06 117.423C166.02 117.423 167.986 118.753 172.696 122.516C176.216 125.315 179.188 127.838 179.371 128.113C179.554 128.435 179.737 129.628 179.737 130.821C179.737 133.482 180.788 134.4 183.989 134.4C185.178 134.4 187.738 134.721 189.658 135.134C193.545 135.914 194.368 135.776 194.368 134.308C194.368 133.574 193.362 132.289 191.122 130.27C187.784 127.196 187.372 126.095 189.338 125.452C192.082 124.58 196.105 127.563 197.157 131.279C198.3 135.225 199.534 135.409 202.826 131.968C205.798 128.894 207.947 127.196 212.245 124.58C216.177 122.195 216.954 121.002 217 117.239C217 114.991 216.634 114.303 207.444 99.2986C202.186 90.7184 197.157 82.5511 196.288 81.1746C194.185 77.871 193.819 76.4486 194.414 74.0168C195.374 70.3002 194.962 69.612 186.458 60.0682C182.16 55.2045 178.091 50.6162 177.497 49.882L176.445 48.5514L178.045 44.3301C179.143 41.3936 179.508 39.9253 179.188 39.5123C178.548 38.7323 174.936 38.87 172.421 39.7418Z" fill="white"/>
<path d="M135.347 43.6357C102.136 48.2087 73.0363 66.41 55.2333 93.8929C51.1215 100.232 50.1274 102.043 46.8741 109.287C44.0274 115.49 41 124.228 41 126.085C41 127.036 41.4519 127.398 43.8467 128.394C45.383 129.073 50.0822 131.337 54.2844 133.42C58.4867 135.457 62.1467 137.087 62.4178 136.996C62.6889 136.861 63.2763 134.597 63.7281 131.925C68.8793 101.454 89.5741 74.1976 118.086 60.2976C129.201 54.9097 140.453 51.7403 152.833 50.5631L158.572 50.0198L160.786 47.1673C162.006 45.6279 163 44.1338 163 43.9527C163 42.866 142.757 42.6397 135.347 43.6357Z" fill="white"/>
<path d="M143.65 113.393C138.032 120.019 136.377 129.545 139.774 135.758C144.608 144.593 146.262 148.596 147.656 154.487C148.701 159.042 148.701 169.35 147.656 174.182C146.219 180.671 138.467 197.927 131.63 209.8C130.019 212.653 128.843 215 129.017 215C129.191 215 131.848 212.561 134.94 209.57C147.525 197.467 159.109 179.981 161.766 169.212C162.332 166.958 162.767 163.322 162.898 159.779C163.116 154.809 163.029 153.474 162.201 150.207C160.024 141.372 156.453 132.858 151.88 125.68C148.483 120.296 148.048 118.915 148.701 115.924C149.18 113.761 149.137 113.623 147.961 112.335C147.308 111.598 146.524 111 146.219 111C145.914 111 144.782 112.058 143.65 113.393Z" fill="white"/>
</svg>
