<svg width="256" height="256" viewBox="0 0 256 256" fill="none" xmlns="http://www.w3.org/2000/svg">
<g clip-path="url(#clip0_256_14)">
<path d="M91.7493 84.959C92.7449 84.959 93.5502 84.3595 93.5502 83.6183C93.5502 82.8771 92.7427 82.2775 91.7493 82.2775C90.7559 82.2775 89.9483 82.8771 89.9483 83.6183C89.9483 84.3595 90.7536 84.959 91.7493 84.959Z" fill="white"/>
<path d="M91.7492 84.9613V85.3087C92.28 85.3167 92.7994 85.1547 93.2316 84.8462C93.4366 84.7136 93.6052 84.5318 93.7219 84.3173C93.8386 84.1028 93.8997 83.8625 93.8997 83.6183C93.8997 83.3741 93.8386 83.1338 93.7219 82.9194C93.6052 82.7049 93.4366 82.523 93.2316 82.3904C92.7958 82.0894 92.2788 81.9282 91.7492 81.9282C91.2196 81.9282 90.7026 82.0894 90.2668 82.3904C90.0618 82.523 89.8932 82.7049 89.7765 82.9194C89.6598 83.1338 89.5987 83.3741 89.5987 83.6183C89.5987 83.8625 89.6598 84.1028 89.7765 84.3173C89.8932 84.5318 90.0618 84.7136 90.2668 84.8462C90.699 85.1545 91.2184 85.3166 91.7492 85.3087V84.6117C91.3685 84.62 90.995 84.5068 90.6828 84.2887C90.5672 84.2208 90.4713 84.1237 90.4047 84.0073C90.3381 83.8909 90.303 83.7591 90.303 83.6249C90.303 83.4908 90.3381 83.3591 90.4047 83.2426C90.4713 83.1262 90.5672 83.0292 90.6828 82.9612C90.9983 82.7499 91.3695 82.637 91.7492 82.637C92.129 82.637 92.5001 82.7499 92.8156 82.9612C92.9313 83.0292 93.0271 83.1262 93.0937 83.2426C93.1604 83.3591 93.1954 83.4908 93.1954 83.6249C93.1954 83.7591 93.1604 83.8909 93.0937 84.0073C93.0271 84.1237 92.9313 84.2208 92.8156 84.2887C92.5034 84.5067 92.1299 84.6198 91.7492 84.6117V84.9613Z" fill="white"/>
<path d="M98.7297 93.4949C99.7253 93.4949 100.533 92.8953 100.533 92.1541C100.533 91.4129 99.7253 90.8134 98.7297 90.8134C97.7341 90.8134 96.9287 91.4129 96.9287 92.1541C96.9287 92.8953 97.7363 93.4949 98.7297 93.4949Z" fill="white"/>
<path d="M98.7297 93.4947V93.8421C99.2606 93.8502 99.78 93.6881 100.212 93.3797C100.417 93.2471 100.586 93.0652 100.702 92.8507C100.819 92.6362 100.88 92.396 100.88 92.1518C100.88 91.9076 100.819 91.6673 100.702 91.4528C100.586 91.2383 100.417 91.0565 100.212 90.9238C99.7763 90.6229 99.2593 90.4617 98.7297 90.4617C98.2002 90.4617 97.6831 90.6229 97.2473 90.9238C97.0423 91.0565 96.8738 91.2383 96.7571 91.4528C96.6404 91.6673 96.5792 91.9076 96.5792 92.1518C96.5792 92.396 96.6404 92.6362 96.7571 92.8507C96.8738 93.0652 97.0423 93.2471 97.2473 93.3797C97.6795 93.688 98.1989 93.85 98.7297 93.8421V93.1452C98.349 93.1533 97.9755 93.0402 97.6633 92.8222C97.5476 92.7542 97.4518 92.6572 97.3852 92.5408C97.3186 92.4243 97.2835 92.2925 97.2835 92.1584C97.2835 92.0243 97.3186 91.8924 97.3852 91.776C97.4518 91.6596 97.5476 91.5626 97.6633 91.4947C97.9788 91.2833 98.35 91.1704 98.7297 91.1704C99.1095 91.1704 99.4807 91.2833 99.7962 91.4947C99.9118 91.5626 100.008 91.6596 100.074 91.776C100.141 91.8924 100.176 92.0243 100.176 92.1584C100.176 92.2925 100.141 92.4243 100.074 92.5408C100.008 92.6572 99.9118 92.7542 99.7962 92.8222C99.4839 93.0402 99.1105 93.1533 98.7297 93.1452V93.4947Z" fill="white"/>
<path d="M83.9899 93.4949C84.9855 93.4949 85.7931 92.8953 85.7931 92.1541C85.7931 91.4129 84.9855 90.8134 83.9899 90.8134C82.9943 90.8134 82.1867 91.4129 82.1867 92.1541C82.1867 92.8953 82.9943 93.4949 83.9899 93.4949Z" fill="white"/>
<path d="M83.99 93.4947V93.8421C84.5208 93.85 85.0402 93.688 85.4724 93.3797C85.6774 93.2471 85.846 93.0652 85.9627 92.8507C86.0794 92.6362 86.1405 92.396 86.1405 92.1518C86.1405 91.9076 86.0794 91.6673 85.9627 91.4528C85.846 91.2383 85.6774 91.0565 85.4724 90.9238C85.0366 90.6229 84.5196 90.4617 83.99 90.4617C83.4604 90.4617 82.9434 90.6229 82.5077 90.9238C82.3026 91.0565 82.1341 91.2383 82.0174 91.4528C81.9007 91.6673 81.8395 91.9076 81.8395 92.1518C81.8395 92.396 81.9007 92.6362 82.0174 92.8507C82.1341 93.0652 82.3026 93.2471 82.5077 93.3797C82.9398 93.688 83.4592 93.85 83.99 93.8421V93.1452C83.6093 93.1533 83.2358 93.0402 82.9236 92.8222C82.8085 92.7538 82.7132 92.6566 82.647 92.5402C82.5808 92.4238 82.546 92.2923 82.546 92.1584C82.546 92.0245 82.5808 91.8929 82.647 91.7766C82.7132 91.6602 82.8085 91.5631 82.9236 91.4947C83.2392 91.2836 83.6103 91.1709 83.99 91.1709C84.3697 91.1709 84.7409 91.2836 85.0565 91.4947C85.1716 91.5631 85.2668 91.6602 85.333 91.7766C85.3992 91.8929 85.434 92.0245 85.434 92.1584C85.434 92.2923 85.3992 92.4238 85.333 92.5402C85.2668 92.6566 85.1716 92.7538 85.0565 92.8222C84.7442 93.0402 84.3707 93.1533 83.99 93.1452V93.4947Z" fill="white"/>
<path d="M223.986 135.479C224.721 131.23 226.951 127.383 230.273 124.635C233.596 121.886 237.793 120.417 242.104 120.492C242.104 120.492 256.968 120.197 255.95 134.53C255.95 134.53 252.328 153.474 227.827 154.285C227.827 154.285 215.831 154.184 210.749 149.405C210.749 149.405 195.675 158.985 182.559 149.462L161.357 175.676H149.958L183.338 134.523H194.611L188.588 142.212C188.588 142.212 193.091 148.949 204.855 142.995L211.948 134.523H222.886L216.402 142.995C216.402 142.995 233.69 152.509 245.976 137.021C246.538 136.362 246.943 135.585 247.162 134.747C247.381 133.909 247.409 133.032 247.242 132.183C246.636 130.242 245.509 128.466 240.872 128.351C240.872 128.351 235.498 128.16 232.686 135.462L223.986 135.479Z" fill="white"/>
<path d="M239.803 111.507C240.092 110.125 239.945 108.688 239.384 107.392C238.822 106.097 237.873 105.008 236.668 104.273C235.462 103.539 234.059 103.196 232.65 103.292C231.242 103.387 229.898 103.917 228.802 104.807C227.707 105.698 226.914 106.905 226.533 108.264C226.151 109.624 226.2 111.068 226.673 112.398C227.145 113.728 228.018 114.879 229.171 115.694C230.324 116.508 231.701 116.945 233.113 116.945C234.718 117.094 236.317 116.608 237.568 115.591C238.818 114.574 239.621 113.108 239.803 111.507ZM199.303 165.6C199.592 164.218 199.445 162.781 198.884 161.486C198.322 160.191 197.374 159.101 196.168 158.367C194.962 157.633 193.559 157.29 192.15 157.385C190.742 157.481 189.398 158.01 188.302 158.901C187.207 159.791 186.414 160.999 186.033 162.358C185.651 163.717 185.7 165.161 186.173 166.491C186.645 167.822 187.518 168.973 188.671 169.787C189.824 170.601 191.201 171.038 192.613 171.039C194.218 171.187 195.817 170.701 197.068 169.684C198.318 168.668 199.121 167.202 199.303 165.6Z" fill="white"/>
<path d="M176.623 123.693C176.645 121.98 176.327 120.28 175.687 118.691C175.047 117.102 174.098 115.656 172.895 114.437C171.691 113.217 170.258 112.249 168.677 111.589C167.097 110.928 165.401 110.588 163.688 110.588C161.975 110.588 160.279 110.928 158.698 111.589C157.117 112.249 155.684 113.217 154.481 114.437C153.277 115.656 152.328 117.102 151.688 118.691C151.048 120.28 150.73 121.98 150.752 123.693C150.752 128.707 154.626 133.045 158.799 135.198L125.981 175.687H137.774L173.083 132.572C175.356 130.178 176.624 127.002 176.623 123.7V123.693ZM168.64 123.089C168.641 124.102 168.341 125.092 167.779 125.934C167.216 126.776 166.417 127.433 165.481 127.821C164.546 128.209 163.516 128.31 162.523 128.113C161.53 127.916 160.617 127.428 159.901 126.712C159.185 125.997 158.697 125.084 158.499 124.091C158.302 123.098 158.403 122.068 158.79 121.133C159.178 120.197 159.834 119.397 160.676 118.835C161.518 118.272 162.508 117.972 163.521 117.972C164.878 117.972 166.18 118.511 167.14 119.47C168.1 120.43 168.64 121.732 168.64 123.089ZM113.77 175.658L147.009 134.844H135.659L102.471 175.658H113.77ZM90.3885 175.658L123.631 134.844H112.281L79.1048 175.658H90.3885ZM106.296 132.492L122.525 112.763H111.259L98.9974 127.713L91.8244 121.614L85.9281 128.12L90.3 132.492H106.296ZM79.2707 132.492L95.4994 112.763H84.2333L71.9717 127.713L64.7987 121.614L58.9024 128.12L63.2743 132.492H79.2707ZM50.382 134.287L67.7237 113.476H55.973L38.9899 134.342L55.4243 154.255L38.1535 175.68H49.4949L66.5311 154.558L50.3798 134.284L50.382 134.287ZM15.9157 175.561H27.2149L11.1632 154.578H-0.202393L15.9157 175.561Z" fill="white"/>
<path d="M97.3601 88.322H97.2826C97.4775 87.7225 97.5775 87.0961 97.5791 86.4657C97.354 84.5995 96.4531 82.8805 95.0467 81.6335C93.6402 80.3865 91.8257 79.6979 89.946 79.6979C88.0663 79.6979 86.2517 80.3865 84.8453 81.6335C83.4388 82.8805 82.5379 84.5995 82.3128 86.4657C82.3147 87.1125 82.42 87.7549 82.6248 88.3685C80.8699 88.4609 79.211 89.1989 77.9674 90.4405C76.7237 91.6821 75.983 93.3397 75.8878 95.0945C76.008 97.0033 76.8783 98.7871 78.3087 100.057C79.7391 101.326 81.6135 101.979 83.5231 101.871C84.9212 101.904 86.3021 101.557 87.5191 100.868C88.736 100.179 89.7436 99.1732 90.4349 97.9574C91.1252 99.177 92.1335 100.186 93.3523 100.878C94.5711 101.57 95.9547 101.918 97.3557 101.885C98.3138 102 99.2855 101.91 100.207 101.622C101.128 101.334 101.977 100.854 102.699 100.214C103.421 99.5733 103.999 98.7871 104.395 97.907C104.79 97.0269 104.995 96.0728 104.995 95.1077C104.995 94.1427 104.79 93.1887 104.395 92.3086C103.999 91.4284 103.421 90.6422 102.699 90.0018C101.977 89.3614 101.128 88.8813 100.207 88.5933C99.2855 88.3052 98.3138 88.2158 97.3557 88.3309L97.3601 88.322Z" fill="white"/>
<path d="M129.377 124.191C130.405 123.976 131.351 123.475 132.106 122.745C132.861 122.014 133.393 121.085 133.641 120.064C133.889 119.044 133.842 117.974 133.507 116.979C133.172 115.984 132.561 115.104 131.746 114.442C130.931 113.779 129.945 113.361 128.903 113.237C127.86 113.112 126.803 113.285 125.855 113.736C124.907 114.187 124.106 114.898 123.545 115.786C122.984 116.674 122.687 117.703 122.687 118.753C122.869 120.354 123.672 121.82 124.922 122.837C126.173 123.854 127.772 124.34 129.377 124.191Z" fill="white"/>
</g>
<defs>
<clipPath id="clip0_256_14">
<rect width="256" height="256" fill="white"/>
</clipPath>
</defs>
</svg>
