<svg width="256" height="256" viewBox="0 0 256 256" fill="none" xmlns="http://www.w3.org/2000/svg">
<path d="M233.223 83.8711C232.598 84.2735 229.021 87.6263 225.311 91.3368C221.556 95.0026 218.247 98.1319 218.024 98.2213C217.756 98.3107 215.386 96.2096 212.704 93.572C208.278 89.2357 207.742 88.8333 206.356 88.9674C205.283 89.0569 204.747 89.4145 204.3 90.3086C203.54 91.8732 203.987 92.812 206.982 95.8966L209.262 98.1766L207.071 98.4895C196.923 99.8753 189.1 104.972 184.093 113.466C180.606 119.367 180.338 120.663 180.159 134.477C179.98 148.424 180.338 151.196 182.886 156.605C186.105 163.222 190.441 167.692 196.834 170.732C203.227 173.817 204.747 174.04 217.845 173.995C231.212 173.951 233.402 173.593 239.527 170.553C242.433 169.123 244.131 167.916 246.679 165.323C252.402 159.601 254.905 154.191 255.71 145.921C256.336 139.305 255.889 124.82 254.95 121.289C251.776 109.263 242.433 100.769 230.273 98.713C228.485 98.4448 227.009 98.0425 227.009 97.9083C227.009 97.7742 229.334 95.3155 232.15 92.4544C237.202 87.3134 237.962 86.1064 236.934 84.5864C236.666 84.1394 234.922 83.0665 234.52 83.0665C234.43 83.0665 233.894 83.4241 233.223 83.8711ZM232.374 113.51C235.95 115.209 238.409 117.578 239.974 120.752C241.941 124.731 242.343 128.352 242.075 138.5C241.896 145.921 241.717 147.575 240.913 149.721C239.169 154.281 236.129 157.365 231.569 159.109C229.379 159.958 227.814 160.092 220.751 160.316C215.833 160.45 210.916 160.316 208.77 160.003C202.243 159.154 197.907 156.114 195.359 150.66L194.152 148.111V136.265V124.418L195.538 121.512C197.683 117.042 200.813 114.36 205.775 112.75C207.071 112.303 210.514 112.169 218.739 112.258C229.781 112.348 229.96 112.348 232.374 113.51Z" fill="white"/>
<path d="M208.993 124.105C208.323 124.82 208.234 126.206 208.234 135.997C208.234 142.747 208.412 147.396 208.681 147.933C208.949 148.424 209.619 148.782 210.245 148.782C211.363 148.782 228.798 139.081 230.318 137.606C231.569 136.399 230.943 134.834 228.708 133.583C227.635 133.001 223.388 130.543 219.276 128.129C215.118 125.715 211.273 123.613 210.737 123.479C210.111 123.345 209.485 123.524 208.993 124.105Z" fill="white"/>
<path d="M0.178818 126.296C0.49175 150.391 0.536454 150.973 1.92229 154.102C3.9787 158.617 7.19742 160.942 13.6796 162.596C17.9712 163.713 19.0888 163.758 22.9781 162.819C26.5992 162.015 28.8791 160.852 31.159 158.841L32.8131 157.321L38.58 159.556C49.7114 163.892 52.7066 163.982 57.8476 160.182C59.1441 159.198 59.2782 159.153 61.6475 159.779C63.2569 160.226 65.8497 160.361 69.3814 160.316L74.7459 160.182L75.9529 155.041C76.6682 152.224 77.2047 149.631 77.2494 149.319C77.2494 148.916 75.9977 148.782 72.466 148.782C67.1462 148.782 65.0003 148.111 62.9886 145.921C61.1111 143.865 59.8593 144.312 56.3724 148.111C54.7183 149.989 52.9301 151.598 52.4384 151.733C51.2761 152.001 47.1632 150.347 39.5635 146.413C31.5167 142.3 31.159 142.3 27.4933 146.144C24.0957 149.721 21.7711 150.749 17.7924 150.481C12.2043 150.078 11.8467 148.559 12.0702 127.726C12.1596 115.88 12.0702 113.018 11.5785 112.437C11.0867 111.811 10.0585 111.677 5.49865 111.677H0L0.178818 126.296Z" fill="white"/>
<path d="M83.061 112.527C82.4798 113.644 82.4798 144.58 83.061 149.14C83.821 155.13 86.1903 158.617 90.8396 160.808C94.6395 162.596 99.6017 163.713 102.418 163.4C105.905 163.043 111.582 160.673 113.505 158.796L115.159 157.187L121.373 159.69C124.77 161.076 128.749 162.417 130.135 162.685C133.577 163.4 136.93 162.64 139.523 160.673L141.445 159.198L144.798 159.779C146.631 160.092 151.146 160.361 154.901 160.405C160.981 160.405 161.696 160.316 161.92 159.601C162.233 158.617 164.423 149.229 164.423 148.916C164.423 148.827 162.143 148.871 159.416 149.006C154.275 149.319 150.297 148.916 147.972 147.799C146.586 147.128 145.96 145.429 145.2 140.333C144.53 135.773 142.876 132.241 140.193 129.738C134.382 124.329 126.558 123.658 121.373 128.218C119.897 129.514 118.065 132.241 114.756 137.964C112.164 142.434 109.347 146.636 108.319 147.664C106.307 149.676 103.938 150.57 100.764 150.57C97.9923 150.57 96.3382 149.631 95.31 147.575C94.5053 145.966 94.4606 144.848 94.5948 129.872C94.7289 115.745 94.6842 113.778 94.0583 112.795C93.343 111.722 93.1195 111.677 88.4255 111.677C84.0445 111.677 83.508 111.767 83.061 112.527ZM132.057 138.589C135.008 140.601 136.706 143.865 136.706 147.486C136.706 150.704 135.678 152.09 133.666 151.643C130.135 150.794 122.401 146.949 122.401 146.055C122.401 145.787 123.519 143.686 124.86 141.361C127.095 137.606 127.497 137.159 128.615 137.159C129.33 137.159 130.85 137.829 132.057 138.589Z" fill="white"/>
<path d="M156.51 116.148C151.861 117.221 149 122.406 150.52 127.011C152.8 133.851 162.009 134.7 165.407 128.441C166.211 127.011 166.658 125.536 166.658 124.284C166.658 120.708 163.931 117.131 160.489 116.148C158.656 115.656 158.522 115.656 156.51 116.148Z" fill="white"/>
<path d="M34.7354 118.964C29.4156 122.496 31.7849 131.034 38.0435 131.034C43.0504 131.034 46.135 125.938 43.8998 121.244C42.3799 118.025 37.82 116.908 34.7354 118.964Z" fill="white"/>
<path d="M49.4432 119.054C47.1632 120.618 46.0456 123.524 46.8056 126.072C48.2809 130.945 53.8242 132.688 57.3559 129.38C60.5746 126.34 60.1723 121.021 56.5512 118.83C54.4948 117.578 51.4996 117.668 49.4432 119.054Z" fill="white"/>
<path d="M63.7487 119.635C62.184 121.11 61.9158 121.691 61.737 123.613C61.2899 127.86 64.0616 131.034 68.1744 131.034C72.9578 131.034 76.1765 125.267 73.6731 121.155C72.4213 119.098 70.2755 117.936 67.7274 117.936C65.8498 117.936 65.358 118.159 63.7487 119.635Z" fill="white"/>
</svg>
