<svg width="256" height="256" viewBox="0 0 256 256" fill="none" xmlns="http://www.w3.org/2000/svg">
<g clip-path="url(#clip0_256_14)">
<path d="M47.5447 96.9685C46.6064 98.2196 45.9809 100.878 46.2936 102.911C46.6064 105.726 47.7011 106.508 51.4542 106.508C55.2073 106.508 56.302 105.726 56.6148 102.911C57.2403 99.0015 54.5818 94.7792 51.4542 94.7792C50.3595 94.7792 48.6393 95.8739 47.5447 96.9685Z" fill="white"/>
<path d="M112.599 97.2813C109.628 100.253 109.471 101.191 112.13 104.788C115.101 108.853 121.669 107.602 122.295 102.755C122.764 100.409 121.825 98.0632 120.105 96.8121C116.508 94.1537 115.57 94.31 112.599 97.2813Z" fill="white"/>
<path d="M170.46 96.8121C164.83 100.878 171.085 109.948 177.028 106.351C180.625 104.006 181.094 100.409 178.122 97.2813C174.995 94.31 174.057 94.1537 170.46 96.8121Z" fill="white"/>
<path d="M191.415 111.199C191.415 115.578 190.789 116.672 188.287 116.672C185.942 116.672 185.16 117.767 185.16 120.582C185.16 123.397 185.942 124.491 188.287 124.491C191.258 124.491 191.415 125.586 191.415 138.409C191.415 146.072 191.884 153.578 192.353 154.986C194.699 160.928 208.617 161.554 208.617 155.768C208.617 153.891 207.209 152.64 205.176 152.327C201.736 151.858 201.58 151.076 201.11 138.097L200.641 124.491H204.707C207.835 124.491 208.617 123.71 208.617 120.582C208.617 117.454 207.835 116.672 204.707 116.672C201.267 116.672 200.798 116.047 200.798 111.199C200.798 106.195 200.485 105.726 196.106 105.726C191.728 105.726 191.415 106.195 191.415 111.199Z" fill="white"/>
<path d="M-0.93335 137.784V158.895H3.75807H8.44949V145.603C8.44949 131.059 10.3261 125.273 15.3302 123.866C20.6472 122.459 22.3674 122.771 25.6514 126.055C28.3098 128.714 28.779 131.216 28.779 144.039V158.895H33.4704H38.1618V144.195C38.1618 128.557 36.598 122.146 32.2193 118.862C28.6226 116.047 17.5196 116.203 13.7664 119.018C9.85691 121.989 8.44949 121.989 8.44949 119.018C8.44949 117.454 6.88568 116.672 3.75807 116.672H-0.93335V137.784Z" fill="white"/>
<path d="M47.5446 137.784V158.895H52.236H56.9275V137.784V116.672H52.236H47.5446V137.784Z" fill="white"/>
<path d="M64.7465 137.784V158.895H69.4379H74.1294V144.352C74.1294 127.15 75.6932 123.866 84.1377 123.866C87.2653 123.866 90.7057 124.804 91.8004 125.743C92.895 126.994 93.8333 133.562 94.1461 143.257L94.7716 158.895H99.463H104.154L103.529 141.537C103.06 124.804 102.903 124.022 98.6811 120.426C93.5206 116.047 84.2941 115.421 79.4463 119.018C75.5368 121.989 74.1294 121.989 74.1294 119.018C74.1294 117.454 72.5656 116.672 69.4379 116.672H64.7465V137.784Z" fill="white"/>
<path d="M111.661 137.784V158.895H116.352H121.044V137.784V116.672H116.352H111.661V137.784Z" fill="white"/>
<path d="M136.369 119.175C131.365 121.833 129.488 127.463 131.99 132.154C132.928 134.031 137.933 137.627 143.093 140.286C150.756 144.039 152.476 145.603 152.007 148.418C151.381 152.953 144.188 153.891 138.715 150.294C134.961 147.792 134.649 147.792 131.677 150.763L128.393 153.891L133.085 156.237C149.192 164.681 166.238 157.019 160.451 144.039C159.357 141.85 154.665 138.253 149.192 135.438C143.875 132.78 139.809 129.652 139.809 128.401C139.809 124.648 146.221 122.928 151.851 125.273C156.229 127.15 157.011 126.994 159.357 124.491C161.859 121.677 161.703 121.52 157.167 119.175C151.381 116.047 141.999 116.047 136.369 119.175Z" fill="white"/>
<path d="M169.522 137.784V158.895H174.213H178.904V137.784V116.672H174.213H169.522V137.784Z" fill="white"/>
<path d="M223.316 119.644C220.189 121.52 217.374 125.273 215.654 129.808C207.678 150.763 228.164 167.496 248.025 156.08C251.934 153.735 252.09 153.422 249.901 150.763C247.555 148.261 246.93 148.261 242.864 150.294C240.518 151.545 236.609 152.64 234.419 152.64C230.354 152.64 222.691 146.541 222.691 143.257C222.691 142.319 228.79 141.693 239.267 141.693H256L254.905 135.282C254.28 131.841 252.716 127.15 251.309 125.117C245.835 116.672 232.387 114.17 223.316 119.644ZM244.115 129.183C245.053 131.216 245.679 133.562 245.21 134.187C244.115 135.907 224.724 135.751 223.629 134.031C221.909 131.372 224.724 127.306 229.415 125.273C235.358 122.771 241.769 124.491 244.115 129.183Z" fill="white"/>
</g>
<defs>
<clipPath id="clip0_256_14">
<rect width="256" height="256" fill="white"/>
</clipPath>
</defs>
</svg>
