<svg width="256" height="256" viewBox="0 0 256 256" fill="none" xmlns="http://www.w3.org/2000/svg">
<g clip-path="url(#clip0_256_14)">
<path d="M123.609 5.53883C122.177 6.14797 78.4833 31.2868 78.4598 31.4977C78.4598 31.6383 124.807 58.4171 125.065 58.4171C125.136 58.4171 125.183 46.3983 125.183 31.7085C125.183 17.0188 125.112 4.99997 125.018 4.99997C124.901 4.99997 124.29 5.25769 123.609 5.53883Z" fill="white"/>
<path d="M131.052 31.7319C131.052 54.3171 131.099 58.4405 131.381 58.3702C131.851 58.2531 178.01 31.6382 178.01 31.4976C177.986 31.2868 133.752 5.89022 132.602 5.42165C132.085 5.21079 131.498 5.02336 131.357 5.02336C131.123 4.99993 131.052 10.5056 131.052 31.7319Z" fill="white"/>
<path d="M46.8575 49.608C34.5546 56.7069 24.1535 62.7983 23.7309 63.1731C22.9561 63.7823 22.9561 63.8291 23.3787 64.1571C24.2005 64.7897 69.0214 90.5143 69.2797 90.5143C69.5849 90.5143 69.6553 36.9566 69.3736 36.7926C69.2562 36.7457 59.1369 42.5091 46.8575 49.608Z" fill="white"/>
<path d="M75.4076 63.6651V90.7251L79.2346 88.5228C81.3242 87.3045 91.7957 81.2834 102.479 75.1217C113.185 68.96 121.942 63.8057 121.942 63.6885C121.966 63.5245 84.893 41.9468 75.8302 36.8394C75.4311 36.6285 75.4076 37.964 75.4076 63.6651Z" fill="white"/>
<path d="M157.513 50.1703C142.627 58.7452 134.198 63.7355 134.386 63.8292C134.551 63.9463 145.092 70.0143 157.818 77.3475L180.945 90.6783L181.015 77.2538C181.038 69.8738 181.038 57.7378 181.015 50.2641L180.945 36.6755L157.513 50.1703Z" fill="white"/>
<path d="M186.932 63.6886C186.932 78.5892 187.002 90.7252 187.119 90.6783C188.693 89.7646 230.719 65.5863 231.87 64.9069L233.513 63.9698L232.551 63.1263C231.893 62.5406 190.993 38.7606 187.119 36.6989C187.002 36.652 186.932 48.788 186.932 63.6886Z" fill="white"/>
<path d="M103.347 81.3537C89.7297 89.2023 78.5538 95.7154 78.5303 95.8326C78.4834 96.02 126.732 123.9 127.836 124.345C128.282 124.509 132.25 122.307 152.887 110.429C166.388 102.65 177.564 96.184 177.728 96.02C177.963 95.8092 172.797 92.74 153.146 81.424C139.481 73.5286 128.235 67.0857 128.188 67.0857C128.164 67.0857 116.965 73.5052 103.347 81.3537Z" fill="white"/>
<path d="M20.1387 69.3583C20.0448 69.7097 19.9274 71.6543 19.857 73.6457C19.6456 80.2526 19.0587 122.213 19.1761 122.33C19.223 122.401 28.0745 117.551 38.8278 111.577C49.581 105.626 60.1934 99.7217 62.4239 98.48C64.6309 97.2617 66.3918 96.184 66.2979 96.0903C66.0866 95.9029 20.9135 68.9366 20.5613 68.796C20.4204 68.7492 20.2326 68.9834 20.1387 69.3583Z" fill="white"/>
<path d="M213.063 82.4783C200.361 89.788 190.078 95.856 190.172 95.9263C190.359 96.1371 236.707 122.846 236.847 122.846C237.012 122.846 236.894 70.764 236.73 70.0377C236.66 69.6628 236.495 69.3114 236.354 69.2646C236.237 69.2411 225.742 75.1686 213.063 82.4783Z" fill="white"/>
<path d="M45.8949 114.482C33.0755 121.838 22.5805 127.93 22.5805 128C22.5805 128.117 68.5049 154.591 69.1388 154.849C69.5145 154.99 69.538 153.115 69.538 128.023C69.538 113.193 69.4675 101.057 69.3736 101.057C69.2562 101.057 58.6908 107.102 45.8949 114.482Z" fill="white"/>
<path d="M75.4076 129.804L75.4311 158.574L100.06 172.749C113.607 180.527 124.783 186.946 124.924 186.993C125.112 187.063 125.159 178.793 125.136 158.317L125.065 129.57L100.319 115.302C86.7243 107.477 75.5485 101.057 75.5015 101.057C75.4546 101.057 75.4076 113.99 75.4076 129.804Z" fill="white"/>
<path d="M155.893 115.419L131.052 129.734V158.387C131.052 181.159 131.123 187.04 131.357 187.017C131.498 187.017 142.745 180.621 156.292 172.795L180.945 158.574L181.015 129.804C181.038 113.99 180.992 101.057 180.898 101.081C180.78 101.081 169.534 107.523 155.893 115.419Z" fill="white"/>
<path d="M186.932 128C186.932 142.807 187.002 154.943 187.073 154.943C187.307 154.943 233.866 128.141 233.866 128C233.866 127.859 187.307 101.057 187.073 101.057C187.002 101.057 186.932 113.17 186.932 128Z" fill="white"/>
<path d="M19.5283 159.09C19.5283 173.358 19.5987 185.447 19.6691 185.915C19.763 186.407 19.9274 186.806 20.0448 186.806C20.4674 186.806 66.4622 160.214 66.2979 160.074C66.1335 159.91 21.1483 133.998 20.0683 133.412L19.5283 133.131V159.09Z" fill="white"/>
<path d="M213.791 146.345C201.254 153.584 190.782 159.675 190.477 159.863C189.984 160.191 190.946 160.777 213.11 173.545C230.978 183.83 236.331 186.806 236.542 186.595C236.753 186.384 236.847 179.847 236.894 159.746C236.918 145.126 236.871 133.154 236.777 133.178C236.66 133.178 226.329 139.129 213.791 146.345Z" fill="white"/>
<path d="M75.4076 192.311V219.348L80.8781 216.209C112.551 197.981 121.966 192.499 121.966 192.311C121.966 192.124 114.711 187.907 80.0564 167.946L75.4076 165.275V192.311Z" fill="white"/>
<path d="M157.818 178.653C145.092 185.986 134.551 192.054 134.386 192.147C134.198 192.265 142.862 197.372 157.513 205.83L180.944 219.325L181.015 205.9C181.038 198.497 181.038 186.361 181.015 178.887L180.944 165.322L157.818 178.653Z" fill="white"/>
<path d="M186.932 192.311V219.418L188.528 218.505C197.967 213.233 231.823 193.53 232.551 192.874L233.49 192.054L232.692 191.562C232.246 191.304 222.22 185.517 210.41 178.723C198.601 171.929 188.481 166.095 187.941 165.79L186.932 165.205V192.311Z" fill="white"/>
<path d="M46.1766 178.606C33.6624 185.822 23.3083 191.843 23.1674 191.983C23.0266 192.124 23.1909 192.405 23.7309 192.85C24.8109 193.717 69.1388 219.325 69.3736 219.207C69.4675 219.161 69.5379 207.048 69.5379 192.288C69.5379 170.991 69.4675 165.486 69.2562 165.486C69.0918 165.486 58.7142 171.39 46.1766 178.606Z" fill="white"/>
<path d="M101.704 210.937C88.9783 218.294 78.5538 224.362 78.5303 224.455C78.4599 224.69 121.919 249.735 123.609 250.461C124.29 250.742 124.901 251 125.018 251C125.112 251 125.183 238.981 125.183 224.291C125.183 209.602 125.112 197.583 125.018 197.583C124.901 197.606 114.429 203.604 101.704 210.937Z" fill="white"/>
<path d="M131.052 224.268C131.052 245.494 131.123 251 131.357 250.977C131.498 250.977 132.062 250.789 132.602 250.578C133.729 250.11 177.986 224.713 178.01 224.502C178.01 224.362 131.851 197.723 131.381 197.63C131.099 197.559 131.052 201.261 131.052 224.268Z" fill="white"/>
</g>
<defs>
<clipPath id="clip0_256_14">
<rect width="218" height="246" fill="white" transform="translate(19 5)"/>
</clipPath>
</defs>
</svg>
