<svg width="256" height="256" viewBox="0 0 256 256" fill="none" xmlns="http://www.w3.org/2000/svg">
<path d="M0 56.8005V58.0114H128H256V56.8005V55.5897H128H0V56.8005Z" fill="white"/>
<path d="M98.406 63.339C97.3474 63.5812 74.7789 63.7749 48.2647 63.7749L0 63.8234V65.0342V66.245H47.3504C88.3489 66.245 95.0857 66.3419 97.588 66.9715C99.9459 67.6011 102.641 67.698 112.698 67.4558C119.386 67.3105 154.37 67.0684 190.46 66.9715L256 66.7294V65.2764V63.8234L190.46 63.5812C154.37 63.4843 119.338 63.2422 112.602 63.1453C105.865 63.0484 99.4647 63.1453 98.406 63.339Z" fill="white"/>
<path d="M80.3609 71.3305C78.2436 71.8632 70.1113 72.0085 38.8812 72.057C0.336842 72.057 0 72.057 0 73.0256C0 73.9943 0.336842 73.9943 37.8226 73.9943C74.1534 73.9943 75.8376 74.0427 80.5053 75.0114C85.0767 75.9316 86.6647 75.9801 104.18 75.7863C119.868 75.641 123.38 75.4957 125.594 74.8177C128 74.0912 134.063 73.9943 192.144 73.9943C255.663 73.9943 256 73.9943 256 73.0256C256 72.057 255.663 72.057 191.423 72.057C135.988 72.057 126.412 71.9601 124.15 71.3305C120.445 70.3134 84.3549 70.3618 80.3609 71.3305Z" fill="white"/>
<path d="M3.07973 78.9829C2.26168 79.4673 2.16544 82.2764 2.98349 83.0998C3.89777 84.02 23.8677 83.8747 28.7278 82.9545C34.2617 81.8889 66.6948 81.8889 71.8436 83.0029C74.9233 83.6325 79.0136 83.7294 98.5023 83.5841C114.623 83.4388 121.985 83.1966 123.188 82.8092C124.439 82.3733 140.896 82.228 190.412 82.228H256V81.0171V79.8063L189.257 79.5641C152.493 79.4188 111.35 79.2251 97.7805 79.0798C76.7038 78.8376 72.7098 78.9345 70.3038 79.5641C66.1654 80.6297 33.9248 80.6297 29.7865 79.5641C26.6587 78.7408 4.37897 78.2564 3.07973 78.9829Z" fill="white"/>
<path d="M5.19699 87.7977C4.81202 88.7179 4.81202 89.2991 5.19699 90.2193L5.77443 91.4302H21.1248C32.7699 91.4302 37.3895 91.2364 40.2767 90.7037C45.4737 89.6866 60.9684 89.6866 64.818 90.7037C68.9083 91.7692 115.633 91.7692 119.146 90.7037C121.167 90.074 130.598 89.9772 188.776 89.9772C255.663 89.9772 256 89.9772 256 89.0085C256 88.0398 255.663 88.0398 188.872 88.0398C130.791 88.0398 121.408 87.943 119.001 87.3133C114.911 86.2478 69.3895 86.2478 65.2992 87.3133C61.5459 88.282 45.8105 88.282 41.3834 87.3133C39.0256 86.7806 34.2616 86.6353 21.991 86.5869H5.77443L5.19699 87.7977Z" fill="white"/>
<path d="M7.26615 95.0142C6.9293 95.4017 6.73682 96.4672 6.83306 97.339L6.97742 98.9373L27.6691 98.8405C39.0737 98.792 51.2 98.6952 54.6165 98.6467C58.3699 98.5499 62.1714 98.7436 64.0962 99.0826C68.3789 99.9544 111.976 99.6638 114.526 98.792C115.777 98.3561 133.534 98.2108 186.081 98.2108H256V97V95.7892H186.226C125.786 95.7892 116.114 95.6923 113.708 95.0627C109.714 93.9972 66.1654 93.9972 61.8346 95.0627C58.0812 95.9829 52.7398 95.9829 49.227 95.0627C45.2331 93.9972 8.13231 93.9972 7.26615 95.0142Z" fill="white"/>
<path d="M11.8857 102.715C10.5865 103.635 10.9714 106.009 12.5113 106.783C13.4737 107.316 17.8045 107.365 33.203 107.171C56.6857 106.832 56.0601 106.832 82.4782 107.171C100.379 107.413 104.132 107.365 107.164 106.687C110.34 106.057 119.675 105.96 183.386 105.96H256V104.749V103.538H183.001C127.326 103.538 109.474 103.393 108.03 102.957C106.635 102.521 100.235 102.376 84.4511 102.473C54.3278 102.57 55.9158 102.618 33.203 102.328C16.5534 102.085 12.6075 102.182 11.8857 102.715Z" fill="white"/>
<path d="M68.6676 110.077C67.5609 110.707 66.1173 110.803 59.5248 110.561C55.2421 110.416 44.1744 110.174 34.8872 110.028C18.0932 109.786 18.0451 109.786 17.2271 110.852C16.1203 112.208 16.1203 112.983 17.3233 114.194C18.2376 115.114 18.9113 115.162 37.0045 115.162C48.9864 115.162 55.8677 114.969 56.0601 114.678C56.4451 114.048 61.2571 114.048 61.8827 114.678C62.2195 115.017 67.7534 115.114 78.4842 114.92C87.3383 114.775 130.887 114.581 175.302 114.436L256 114.145V112.983V111.772L177.708 111.627C104.036 111.481 99.1759 111.433 96.2406 110.61C91.7173 109.35 70.6887 108.963 68.6676 110.077Z" fill="white"/>
<path d="M25.5037 118.553C24.3489 119.715 24.2526 120.926 25.215 122.234C25.8887 123.105 26.7068 123.154 51.1037 123.154C69.0526 123.154 77.2812 122.96 79.7353 122.524C82.4301 122.088 102.641 121.943 169.576 121.943H256V120.732V119.521H169.768C89.6 119.521 83.2962 119.473 81.0827 118.698C78.9654 117.971 75.6932 117.826 52.5955 117.681C26.8511 117.536 26.5143 117.536 25.5037 118.553Z" fill="white"/>
<path d="M40.0361 126.399C39.2661 127.174 39.3143 129.45 40.0842 130.08C40.5173 130.467 71.2661 130.516 148.355 130.322L256 130.031V128.627V127.271H182.28C120.06 127.271 107.886 127.125 104.662 126.544C99.5128 125.624 40.9503 125.479 40.0361 126.399Z" fill="white"/>
<path d="M40.6135 137.393C38.2075 139.718 32.9624 144.319 28.9203 147.564C22.7128 152.65 20.2105 155.217 20.2105 156.573C20.2105 156.718 23.6271 154.151 27.7654 150.906C36.5233 144.029 42.7308 138.071 44.2225 135.117C44.8 134.003 45.1849 133.083 45.1368 133.083C45.0406 133.131 43.0195 135.02 40.6135 137.393Z" fill="white"/>
<path d="M50.8151 134.342C49.8045 135.359 49.8527 136.764 50.9113 137.829C51.7775 138.701 53.173 138.749 82.8151 138.604C99.8496 138.507 145.805 138.313 184.926 138.168L256 137.878V136.715V135.504H187.621C123.958 135.504 119.05 135.456 116.259 134.632C113.708 133.906 111.206 133.809 96 133.906C86.4722 133.906 76.7519 134.1 74.394 134.293C71.603 134.487 69.9669 134.439 69.6301 134.1C69.2933 133.761 65.973 133.567 60.3429 133.567C52.9805 133.567 51.4406 133.712 50.8151 134.342Z" fill="white"/>
<path d="M49.9008 141.655C48.6978 141.994 47.976 144.028 48.6497 145.239C49.5158 146.886 51.2 147.128 61.1128 147.128C68.1865 147.128 71.5068 146.934 73.9609 146.353C76.4632 145.772 78.1955 145.675 81.3233 145.966C83.585 146.16 92.8722 146.305 102.015 146.256C111.158 146.208 149.51 146.063 187.332 145.917L256 145.675V144.464V143.254H190.268C129.107 143.254 124.343 143.205 121.552 142.382C118.953 141.655 116.596 141.558 101.919 141.655C76.9925 141.849 74.8752 141.849 62.3158 141.607C55.9639 141.51 50.382 141.51 49.9008 141.655Z" fill="white"/>
<path d="M51.0075 150.519C49.8527 151.681 49.8045 152.407 50.7188 153.715C51.3444 154.587 52.1624 154.635 61.9309 154.781C69.9188 154.877 73.6722 154.732 77.4737 154.151C86.0391 152.795 86.9053 152.746 90.8512 153.715C94.0271 154.49 96.1925 154.635 106.346 154.538C112.842 154.49 149.173 154.296 187.092 154.151L256 153.86V152.456V151.003H191.663C136.421 151.003 126.749 150.906 123.525 150.276C118.665 149.356 96.2406 149.259 92.3429 150.131C88.9745 150.906 82.5263 150.906 77.8106 150.131C75.597 149.792 69.4857 149.55 62.9895 149.55C52.5955 149.55 51.9218 149.598 51.0075 150.519Z" fill="white"/>
<path d="M40.9022 152.989L39.8917 154.926L40.9985 155.846C42.4421 157.057 42.5865 157.057 43.212 155.604C43.9338 154.006 43.9338 152.311 43.212 151.584C42.2977 150.664 41.9609 150.858 40.9022 152.989Z" fill="white"/>
<path d="M43.2602 157.396C42.4421 158.994 42.4421 158.994 41.191 157.832L39.988 156.718L38.9775 158.752C38.0151 160.689 37.9669 160.835 38.785 161.707C39.603 162.627 40.9023 162.966 40.9023 162.239C40.9023 161.997 41.191 161.416 41.576 160.932C42.2497 160.011 42.2497 160.011 43.3083 160.932C44.3669 161.9 44.3669 161.9 45.2812 160.738C46.3399 159.479 46.4361 158.607 45.7143 157.251C45.0406 155.991 43.9339 156.088 43.2602 157.396Z" fill="white"/>
<path d="M56.5895 158.365C55.5789 159.818 55.627 160.496 56.7819 161.658C57.6481 162.53 58.3699 162.627 64.3849 162.627C68.5714 162.627 73.191 162.288 76.9925 161.658C85.0767 160.399 104.758 160.254 108.511 161.464C111.398 162.433 121.359 162.578 124.632 161.755C126.171 161.368 144.794 161.174 191.423 161.174H256V159.963V158.752H191.182C143.254 158.752 125.835 158.607 124.391 158.171C121.552 157.348 112.938 157.493 109.089 158.413C104.036 159.672 85.4135 159.575 77.9549 158.268C74.0571 157.59 70.2075 157.299 64.8661 157.299C57.6 157.299 57.3113 157.348 56.5895 158.365Z" fill="white"/>
<path d="M18.2857 160.108C17.3233 162.046 17.1308 163.402 16.8902 169.746C16.6015 176.091 16.409 177.35 15.591 178.464C12.6075 182.484 3.32032 183.259 1.82859 179.675C1.29926 178.416 1.25114 178.513 0.81806 181.177C0.048135 186.068 1.44362 187.231 7.50678 186.746C12.5594 186.311 16.5534 181.855 17.997 175.026C18.5744 172.362 19.7775 158.413 19.4887 157.929C19.4406 157.832 18.9113 158.849 18.2857 160.108Z" fill="white"/>
<path d="M33.5398 167.083C31.7594 172.943 31.1819 183.356 32.5293 185.293C33.7323 187.037 35.8977 186.698 37.9669 184.422C38.9293 183.356 40.1804 182.484 40.7098 182.484C42.1534 182.484 45.618 179.142 45.9549 177.399C46.1955 176.091 46.1955 176.043 45.7143 177.108C45.4256 177.786 44.9443 178.125 44.5594 177.98C44.1744 177.835 43.5489 178.222 43.1158 178.9C42.6827 179.53 41.9128 180.063 41.4316 180.063C40.9504 180.063 39.988 180.499 39.3143 181.031C37.1007 182.823 34.4541 182.048 33.4917 179.433C33.3474 178.9 33.5398 175.462 33.9729 171.732C34.406 168.003 34.6466 164.903 34.5022 164.758C34.406 164.661 33.9729 165.678 33.5398 167.083Z" fill="white"/>
<path d="M66.9834 165.823C65.7323 166.695 65.6361 168.051 66.7428 169.165C67.3684 169.795 67.994 169.892 69.7263 169.65C70.9293 169.456 113.371 169.214 163.994 169.117L256 168.923V167.712V166.501H164.62C84.4992 166.501 73.0466 166.405 71.5549 165.775C69.3413 164.855 68.3308 164.855 66.9834 165.823Z" fill="white"/>
<path d="M10.2977 171.538C9.81653 171.926 9.47969 172.362 9.62405 172.459C9.76841 172.604 10.2977 172.41 10.7789 172.023C11.3083 171.684 11.597 171.248 11.5007 171.103C11.3564 170.957 10.8271 171.199 10.2977 171.538Z" fill="white"/>
<path d="M29.9789 171.781C29.6421 172.313 28.4872 173.185 27.3323 173.815C25.6481 174.735 24.9263 175.607 23.5789 178.319C22.1353 181.225 21.4135 182 18.6707 183.889C15.591 186.02 15.4947 186.117 16.794 186.262C17.5639 186.359 18.9594 186.068 19.9218 185.681C21.3654 185.1 21.9428 184.373 23.3383 181.37C24.6376 178.658 25.4075 177.593 26.418 177.157C28.1504 176.479 29.4977 174.977 30.3158 172.895C30.9895 171.103 30.797 170.425 29.9789 171.781Z" fill="white"/>
<path d="M9.86466 173.766C9.7203 174.009 9.09474 174.251 8.5173 174.251C7.84361 174.251 7.65113 174.396 7.98797 174.735C8.61354 175.365 9.91278 174.929 10.2977 173.96C10.5865 173.185 10.2977 173.04 9.86466 173.766Z" fill="white"/>
<path d="M27.2361 188.345L26.37 189.846L25.2151 188.732C23.9158 187.473 24.0121 187.424 22.7128 190.04C21.7504 191.977 21.7504 192.074 22.5685 192.849C23.7233 193.915 24.397 193.818 25.3113 192.413L26.1294 191.154L27.188 192.171C28.006 192.946 28.3429 193.043 28.7278 192.558C30.5083 190.33 30.5564 188.248 28.9203 187.376C28.2466 186.989 27.9098 187.182 27.2361 188.345Z" fill="white"/>
<path d="M25.0707 195.028L24.1083 196.869L25.215 197.934L26.3699 199L27.1399 197.934C28.0541 196.627 28.1023 195.416 27.4286 194.06C26.6587 192.704 26.1293 192.897 25.0707 195.028Z" fill="white"/>
</svg>
