<svg width="256" height="256" viewBox="0 0 256 256" fill="none" xmlns="http://www.w3.org/2000/svg">
<mask id="mask0_256_14" style="mask-type:luminance" maskUnits="userSpaceOnUse" x="64" y="105" width="121" height="121">
<path d="M103.722 222.286C92.5714 218.226 82.8753 210.951 75.8594 201.38C68.8436 191.81 64.8231 180.374 64.3064 168.519C63.7897 156.664 66.8 144.922 72.9566 134.777C79.1133 124.633 88.1397 116.542 98.8946 111.527C109.65 106.512 121.65 104.8 133.378 106.605C145.106 108.41 156.036 113.653 164.785 121.67C173.534 129.687 179.709 140.118 182.53 151.644C185.351 163.171 184.69 175.275 180.632 186.426C175.169 201.366 164.006 213.53 149.589 220.252C135.172 226.974 118.677 227.706 103.722 222.286ZM134.512 137.716C128.936 135.686 122.884 135.356 117.12 136.766C111.357 138.176 106.141 141.264 102.132 145.638C98.1238 150.013 95.5024 155.478 94.5998 161.343C93.6972 167.207 94.5538 173.208 97.0615 178.585C99.5692 183.963 103.615 188.476 108.688 191.554C113.761 194.632 119.632 196.137 125.56 195.878C131.488 195.619 137.206 193.608 141.991 190.099C146.776 186.59 150.413 181.741 152.442 176.166C155.163 168.689 154.802 160.438 151.44 153.227C148.077 146.017 141.988 140.437 134.512 137.716Z" fill="white"/>
</mask>
<g mask="url(#mask0_256_14)">
<rect x="63.9619" y="105.906" width="121" height="120" fill="white"/>
</g>
<path d="M134.512 137.716L144.772 109.516L105.962 95.4157L52.962 32.7657C52.396 32.0984 51.6648 31.5913 50.8414 31.2951C50.018 30.9989 49.1312 30.924 48.2698 31.0779C47.4084 31.2318 46.6024 31.609 45.9325 32.1719C45.2625 32.7348 44.752 33.4637 44.452 34.2857L9.30202 130.906C9.00233 131.728 8.92392 132.615 9.07463 133.478C9.22534 134.34 9.5999 135.148 10.1608 135.82C10.7217 136.493 11.4493 137.006 12.2708 137.309C13.0923 137.611 13.979 137.693 14.842 137.546L95.7421 123.656L134.512 137.716Z" fill="white"/>
<path d="M132.962 136.906C133.803 137.601 134.872 137.958 135.962 137.906C136.282 137.906 136.182 137.386 136.422 136.716L145.962 110.906C146.293 110.852 146.631 110.852 146.962 110.906C148.962 110.906 142.962 108.906 142.962 108.906C142.292 108.656 143.742 109.426 143.502 110.096L134.022 135.836C133.962 136.906 132.292 136.656 132.962 136.906Z" fill="white"/>
<path d="M229.752 183.016L246.852 136.016C247.076 135.398 247.177 134.742 247.148 134.085C247.118 133.428 246.96 132.784 246.681 132.189C246.403 131.593 246.009 131.059 245.524 130.615C245.038 130.172 244.47 129.829 243.852 129.606L225.052 122.766C224.434 122.541 223.778 122.441 223.121 122.47C222.465 122.499 221.82 122.658 221.225 122.937C220.629 123.215 220.095 123.608 219.652 124.094C219.208 124.579 218.865 125.148 218.642 125.766L215.222 135.166L144.752 109.506L134.492 137.706L204.962 163.366L201.542 172.756C201.317 173.374 201.217 174.03 201.246 174.686C201.276 175.343 201.434 175.987 201.713 176.583C201.991 177.178 202.385 177.713 202.87 178.156C203.356 178.599 203.924 178.942 204.542 179.166L223.342 186.006C223.959 186.23 224.615 186.331 225.271 186.303C225.927 186.274 226.571 186.116 227.166 185.839C227.762 185.561 228.296 185.169 228.74 184.685C229.184 184.2 229.527 183.633 229.752 183.016Z" fill="white"/>
</svg>
