<svg width="256" height="256" viewBox="0 0 256 256" fill="none" xmlns="http://www.w3.org/2000/svg">
<g clip-path="url(#clip0_256_14)">
<path d="M16.9038 96.3883C12.1486 97.938 6.80713 101.877 4.13639 105.945C0.35827 111.627 0.0977103 113.629 0.29313 135.001L0.48855 154.243L2.31247 157.924C4.85293 163.025 9.08702 167.157 14.3634 169.611L18.7277 171.677L125.883 171.871C201.054 172 234.276 171.806 237.207 171.354C245.024 169.998 251.017 165.93 254.013 159.861C255.642 156.568 255.837 155.535 255.837 149.4C255.837 141.2 254.339 137.197 249.909 133.322L247.108 130.869L249.323 128.738C252.841 125.316 254.339 121.571 254.339 115.953C254.274 107.236 249.453 100.262 241.246 96.9694L237.598 95.4843L129.14 95.3552C25.1766 95.226 20.5517 95.2906 16.9038 96.3883ZM41.9176 100.262C49.0178 102.974 54.229 109.109 54.229 114.662C54.229 117.955 53.0565 119.892 50.3858 120.99C46.6076 122.475 45.0443 121.442 40.3542 114.21C37.4229 109.754 35.0127 108.527 29.2153 108.527C23.7435 108.527 19.6397 110.271 18.0763 113.241C16.8387 115.566 16.8387 116.728 18.0112 118.923C19.314 121.442 22.9618 123.249 30.7786 125.187C38.7257 127.188 46.0214 129.642 48.1059 130.998C49.5389 131.902 49.6692 131.837 50.7766 129.513C52.6005 125.639 58.0071 120.731 62.3715 118.988C66.0845 117.503 67.0616 117.438 84.2585 117.244L102.302 117.051L102.563 111.691C103.084 102.135 106.602 99.0357 117.284 98.5191C124.776 98.1962 128.554 99.2939 129.791 102.329C130.508 104.072 130.443 104.524 129.335 106.009C128.098 107.623 127.707 107.753 122.952 107.753C116.568 107.753 115.461 108.786 115.461 114.597V118.471L124.776 118.278L134.025 118.084L134.351 110.981C134.547 107.042 135.068 103.233 135.524 102.458C135.98 101.683 137.478 100.714 138.846 100.262C140.865 99.6814 141.647 99.7459 143.34 100.585C146.337 102.135 146.923 103.749 147.249 111.433L147.575 118.407H150.897C155.196 118.407 157.15 119.698 157.15 122.475C157.15 126.026 155.131 127.447 150.376 127.447H147.379V141.846C147.379 159.344 147.184 158.828 153.828 158.182C158.192 157.795 158.583 157.859 160.081 159.344C160.993 160.248 161.71 161.475 161.71 162.121C161.71 163.864 159.951 166.06 157.671 167.222C155.066 168.578 146.532 169.159 143.015 168.19C139.823 167.351 136.501 164.768 135.459 162.379C135.003 161.346 134.547 154.566 134.351 144.235L134.025 127.769L124.776 127.576L115.461 127.382V144.364C115.461 153.985 115.135 162.379 114.809 163.735C113.441 168.513 108.23 170.321 104.582 167.222L102.758 165.672L102.433 146.688L102.107 127.769L98.3939 127.576L94.6809 127.382L96.4397 131.127C98.0682 134.549 98.1985 135.518 98.1985 142.943C98.1985 150.821 98.1333 151.208 96.0489 155.341C93.4433 160.571 88.8835 164.897 83.6723 166.899C80.6758 168.126 78.5913 168.384 73.1196 168.384C66.801 168.449 65.9542 168.32 62.0458 166.447C59.7008 165.349 56.7043 163.477 55.4015 162.185L52.9913 159.925L51.2977 161.669C45.5654 167.545 32.0163 170.321 21.1379 167.803C13.1257 165.93 7.97964 162.121 4.72265 155.728C1.79135 149.788 2.37761 144.816 6.35115 143.073C10.3247 141.265 12.5394 142.621 15.7964 148.819C17.2295 151.531 19.314 154.566 20.4214 155.47C25.828 159.99 37.488 158.957 41.7873 153.533C42.7644 152.306 43.1552 150.886 43.1552 148.69C43.1552 146.107 42.8295 145.139 41.1359 143.266C39.0514 140.877 38.6606 140.748 24.3949 136.874C15.8616 134.485 11.7578 132.418 8.43562 128.738C4.98321 124.928 3.74555 121.183 4.26667 115.953C4.65751 111.304 6.41629 107.753 9.8687 104.653C15.3405 99.8105 20.4214 98.3254 30.7786 98.6482C36.5109 98.7774 39.1165 99.1648 41.9176 100.262ZM197.211 99.9396C201.315 100.973 203.009 101.877 206.396 104.589L209.067 106.72L210.63 105.105C211.477 104.201 214.082 102.587 216.362 101.425C220.336 99.4876 221.118 99.3585 227.176 99.3585C230.758 99.3585 234.927 99.7459 236.425 100.198C240.594 101.425 245.154 104.847 247.369 108.334C249.128 111.175 249.323 112.079 249.323 116.792C249.323 121.442 249.128 122.346 247.499 124.735C246.522 126.22 244.568 128.286 243.2 129.255L240.66 131.062L242.679 131.966C246.196 133.516 250.105 137.972 251.212 141.717C254.86 153.92 247.76 165.349 234.797 168.061C225.677 169.998 215.972 167.932 209.588 162.766L207.634 161.152L204.833 163.67C200.859 167.093 196.56 168.449 189.329 168.449C183.858 168.449 183.076 168.255 178.907 166.189C175.454 164.445 173.956 163.218 172.328 160.829C169.527 156.632 168.94 153.662 170.634 151.467C173.761 147.334 178.321 148.238 181.187 153.598C184.313 159.344 188.938 161.023 194.28 158.311C199.1 155.857 201.51 151.015 202.422 141.91L202.878 137.455L200.729 139.457C194.671 145.01 186.072 146.043 178.19 142.169C174.477 140.361 171.155 136.68 169.006 132.031C167.507 128.996 167.247 127.511 167.312 122.604C167.312 115.114 168.94 110.658 173.5 106.074C179.493 99.9396 188.548 97.6151 197.211 99.9396Z" fill="white"/>
<path d="M67.9736 127.899C60.2219 131.708 58.2677 147.399 64.5863 155.341C66.5405 157.795 71.1003 159.344 74.8784 158.828C81.197 157.988 84.8448 153.081 85.3659 144.751C86.0173 133.581 81.3924 126.801 72.9893 126.801C71.426 126.801 69.2112 127.317 67.9736 127.899Z" fill="white"/>
<path d="M224.57 108.528C220.727 109.561 218.317 112.983 218.251 117.374C218.121 122.604 221.248 125.961 226.72 126.543C236.36 127.576 241.116 115.501 233.299 109.819C231.54 108.592 226.915 107.882 224.57 108.528Z" fill="white"/>
<path d="M185.421 109.948C181.903 112.079 180.405 115.372 180.079 121.248C179.884 125.768 180.079 126.865 181.382 129.384C183.597 133.645 186.528 135.389 191.088 135.066C197.863 134.614 201.445 130.288 201.445 122.604C201.445 116.34 199.165 111.885 194.801 109.625C192.326 108.334 187.831 108.527 185.421 109.948Z" fill="white"/>
<path d="M222.29 137.261C218.707 139.134 217.079 141.846 216.623 146.688C215.711 157.665 228.022 163.864 235.709 156.245C240.92 151.079 239.878 141.006 233.885 137.455C230.693 135.582 225.677 135.518 222.29 137.261Z" fill="white"/>
</g>
<defs>
<clipPath id="clip0_256_14">
<rect width="256" height="77" fill="white" transform="translate(0 95)"/>
</clipPath>
</defs>
</svg>
