<svg width="256" height="256" viewBox="0 0 256 256" fill="none" xmlns="http://www.w3.org/2000/svg">
<path d="M225.725 62.3473L223.986 64.3603C217.127 71.7246 207.866 76.0057 197.751 76.3191C197.307 76.3828 196.802 76.3828 196.359 76.3828C195.094 76.3828 193.924 76.3191 192.727 76.1943C216.558 104.199 220.163 145.424 198.888 177.618C177.709 209.621 138.514 222.68 103.428 212.233H103.206C88.9822 208.517 72.8616 214.118 64.3271 227.244C73.1776 213.805 71.9133 196.592 62.1145 184.76V184.636C39.0093 156.689 35.8484 116.094 56.9295 84.3738C80.0096 49.4486 124.578 37.1099 161.813 53.2222C160.233 49.1297 159.221 44.7238 158.969 40.2237C158.653 32.0442 161.023 24.1752 165.543 17.5677C115.6 1.20311 58.704 19.1399 28.3593 65.084C-8.15199 120.156 7.17842 194.107 62.1782 230.294C117.306 266.517 191.365 251.095 227.716 196.339C255.532 154.266 253.161 101.149 225.755 62.2835L225.725 62.3473Z" fill="white"/>
<path d="M94.6413 34.3372C64.3909 37.3318 37.903 50.2 27.9461 65.3668C-8.40431 120.281 6.83183 194.138 61.9897 230.327L64.0138 227.244C72.8616 213.805 71.5972 196.592 61.7984 184.76V184.636C39.0066 156.689 35.8456 116.094 56.7104 84.3738C79.7823 49.4486 124.354 37.1099 161.589 53.2223C161.589 53.2223 129.98 30.8768 94.7051 34.34L94.6413 34.3372Z" fill="white"/>
<path d="M179.417 67.8872C179.417 67.8872 178.469 56.5579 183.527 48.3755C188.584 40.1932 199.331 32.1689 212.923 33.0174C226.579 33.8686 228.791 37.0157 228.791 37.0157C228.791 37.0157 229.108 48.0289 225.314 54.323C221.521 60.6171 213.619 69.867 202.24 72.196C190.861 74.4946 179.417 67.8872 179.417 67.8872Z" fill="white"/>
<path d="M175.308 64.7069C175.308 64.7069 174.044 53.6936 181.63 42.6804C189.216 31.6643 197.435 30.0284 197.435 30.0284C197.435 30.0284 196.486 14.9226 189.216 7.68577C189.848 7.52773 180.554 7.90759 172.463 16.8108C165.318 24.616 161.084 36.9519 164.245 48.9107C167.406 60.8667 175.308 64.7069 175.308 64.7069Z" fill="white"/>
</svg>
