<svg width="256" height="256" viewBox="0 0 256 256" fill="none" xmlns="http://www.w3.org/2000/svg">
<path fill-rule="evenodd" clip-rule="evenodd" d="M183.29 209.727L209.494 223.015C248.03 139.342 190.631 74.1774 157.674 60.207C157.674 60.207 181.194 126.647 188.869 145.364C196.738 164.578 193.614 189.472 183.29 209.727Z" fill="white"/>
<path fill-rule="evenodd" clip-rule="evenodd" d="M227.042 121.332L252 105.722C202.77 28.077 118.133 43.1965 89.0521 64.2658C89.0521 64.2658 156.781 79.116 176.437 82.408C196.598 85.7839 215.66 101.67 227.042 121.332Z" fill="white"/>
<path fill-rule="evenodd" clip-rule="evenodd" d="M170.118 38.2882L169.078 8.47998C78.5454 13.867 49.7108 96.3482 53.3812 132.531C53.3812 132.531 99.4462 79.7921 111.943 63.9783C124.763 47.7693 147.719 38.6952 170.118 38.2882Z" fill="white"/>
<path fill-rule="evenodd" clip-rule="evenodd" d="M68.5974 43.4955L42.4994 29.9921C3.2995 113.347 60.1819 178.985 93.0276 193.219C93.0276 193.219 70.0362 126.611 62.4899 107.811C54.7908 88.537 58.1089 63.6669 68.5974 43.4955Z" fill="white"/>
<path fill-rule="evenodd" clip-rule="evenodd" d="M27.624 136.027L3 152.134C53.722 228.749 138.071 211.936 166.712 190.256C166.712 190.256 98.7006 176.789 78.9861 173.898C58.7901 170.947 39.4104 155.456 27.624 136.027Z" fill="white"/>
<path d="M126.572 202.347C167.007 202.347 199.786 168.937 199.786 127.725C199.786 86.5119 167.007 53.1024 126.572 53.1024C86.1372 53.1024 53.358 86.5119 53.358 127.725C53.358 168.937 86.1372 202.347 126.572 202.347Z" fill="white"/>
<path fill-rule="evenodd" clip-rule="evenodd" d="M79.8495 217.694V247.52C170.517 245.425 202.2 164.021 199.792 127.725C199.792 127.725 151.919 178.77 138.881 194.117C125.509 209.859 102.248 218.095 79.8495 217.694Z" fill="white"/>
<path d="M126.572 172.269C150.709 172.269 170.276 152.326 170.276 127.725C170.276 103.123 150.709 83.1799 126.572 83.1799C102.435 83.1799 82.8679 103.123 82.8679 127.725C82.8679 152.326 102.435 172.269 126.572 172.269Z" fill="#A9A9A9"/>
<path d="M147.937 126.629C148.023 129.653 146.994 132.6 145.053 134.889C143.119 137.184 140.269 138.463 137.301 138.367C135.311 138.319 133.374 137.696 131.717 136.571C130.416 135.853 129.305 134.826 128.475 133.578C127.879 134.735 127.056 135.754 126.055 136.571C124.985 137.611 123.586 138.227 122.109 138.307C119.368 138.307 117.483 137.728 116.454 136.571C116.618 138.259 116.759 141.114 116.882 145.119C117 149.273 116.974 151.954 116.806 153.163H110.581C110.675 151.966 110.728 150.589 110.728 148.973C110.65 142.075 110.138 135.19 109.195 128.359C108.087 119.867 106.76 113.168 105.213 108.259L110.833 105.692C112.993 111.912 114.495 118.348 115.314 124.893C115.905 129.263 117.755 131.447 120.864 131.447C122.048 131.432 123.123 130.737 123.642 129.652C124.238 128.634 124.545 127.467 124.528 126.282C124.524 125.831 124.477 125.382 124.388 124.941L121.152 108.092L127.412 106.045L130.753 122.709C131.873 128.295 133.86 131.088 136.714 131.088C139.455 131.088 140.825 129.231 140.825 125.516C140.825 123.588 140.167 120.767 138.852 117.052C137.953 114.258 136.727 111.585 135.199 109.091L141.001 106.23C143.011 109.264 144.592 112.57 145.699 116.053C147.195 120.278 147.941 123.804 147.937 126.629Z" fill="white"/>
</svg>
