<svg width="512" height="512" viewBox="0 0 512 512" fill="none" xmlns="http://www.w3.org/2000/svg">
<g clip-path="url(#clip0_243_2)">
<path d="M353.173 383.298C358.194 385.954 364.686 385.666 369.164 381.698L369.324 381.858C386.445 366.665 403.749 351.677 421.23 336.899C426.763 332.323 425.804 324.995 421.422 318.883L417.424 313.443C406.391 298.563 395.901 284.451 395.901 256.131V150.533L395.933 139.813C396.189 99.3328 396.38 62.3411 366.093 34.0536C340.092 9.09383 297.109 0.325928 264.168 0.325928C199.788 0.325928 127.925 24.3257 112.766 104.005C111.263 112.453 117.339 116.933 122.872 118.181L188.563 125.221C194.639 124.933 199.116 118.949 200.268 112.837C205.897 85.413 228.924 72.1652 254.733 72.1652C268.645 72.1652 284.444 77.2853 292.727 89.7653C301.171 102.245 301.043 118.885 300.947 133.797V147.621C294.582 148.325 287.93 149.029 281.086 149.701C245.49 153.349 204.426 157.572 173.627 171.14C131.219 189.444 101.38 226.884 101.38 281.859C101.38 352.258 145.739 387.394 202.699 387.394C250.863 387.394 277.152 376.066 314.283 338.115L319.624 345.986C328.387 358.947 334.208 367.587 353.109 383.298H353.173ZM200.204 270.115C200.204 212.388 251.918 201.924 300.851 201.924V220.164C300.883 244.996 300.915 266.051 288.186 288.419C277.44 307.459 260.362 319.171 241.332 319.171C215.363 319.171 200.204 299.363 200.204 270.115ZM21.266 389.89C105.346 441.186 235.48 520.577 442.882 421.794C451.837 418.082 458.073 424.29 449.246 435.586C440.323 447.042 369.132 512.321 249.456 512.321C129.908 512.321 38.3123 430.594 10.3603 396.674C2.68464 387.874 11.5116 383.874 16.7246 387.106L21.266 389.89Z" fill="#F8F8F8"/>
<path d="M449.597 373.903C467.73 371.697 496.547 373.052 502.205 380.331C506.524 385.876 502.077 410.769 494.757 428.635C487.399 446.375 476.462 458.916 470.385 463.768C464.276 468.621 459.735 466.73 463.029 459.451C466.388 452.204 484.905 407.051 477.581 397.598C470.769 388.838 439.938 392.021 425.61 393.502L422.732 393.785C419.694 394.037 417.231 394.321 415.281 394.542C409.108 395.203 407.445 395.392 406.518 393.533C404.151 386.948 431.431 376.014 449.597 373.903Z" fill="#F8F8F8"/>
</g>
<defs>
<clipPath id="clip0_243_2">
<rect width="512" height="512" fill="white"/>
</clipPath>
</defs>
</svg>
