<svg width="103" height="106" viewBox="0 0 103 106" fill="none" xmlns="http://www.w3.org/2000/svg">
<g id="Group">
<path id="Vector" d="M71.4214 78.9493C72.4455 79.4907 73.7697 79.432 74.6829 78.6231L74.7155 78.6557C78.2077 75.5586 81.7369 72.5034 85.3024 69.4909C86.4309 68.5581 86.2352 67.0643 85.3415 65.8184L84.5261 64.7095C82.2757 61.6763 80.1362 58.7997 80.1362 53.0268V31.5009L80.1427 29.3157C80.1949 21.064 80.234 13.5234 74.0567 7.75709C68.7535 2.66914 59.9866 0.881836 53.2679 0.881836C40.137 0.881836 25.4798 5.7741 22.3879 22.0164C22.0813 23.7385 23.3207 24.6517 24.4492 24.9061L37.8475 26.3412C39.0868 26.2825 40 25.0626 40.2349 23.8168C41.3829 18.2265 46.0795 15.526 51.3436 15.526C54.1811 15.526 57.4035 16.5697 59.0929 19.1137C60.815 21.6576 60.7889 25.0496 60.7693 28.0893V30.9073C59.4712 31.0508 58.1145 31.1943 56.7185 31.3313C49.4584 32.0749 41.0829 32.9359 34.8012 35.7017C26.1517 39.4328 20.0657 47.0648 20.0657 58.2713C20.0657 72.6219 29.1131 79.7842 40.7306 79.7842C50.5543 79.7842 55.9162 77.4751 63.4894 69.7388L64.5788 71.3434C66.3661 73.9853 67.5533 75.7465 71.4084 78.9493H71.4214ZM40.2218 55.8774C40.2218 44.1098 50.7695 41.9768 60.7498 41.9768V45.6949C60.7563 50.7568 60.7628 55.0489 58.1666 59.6085C55.9749 63.4897 52.4916 65.8771 48.6104 65.8771C43.3137 65.8771 40.2218 61.8394 40.2218 55.8774ZM3.72556 80.293C20.8746 90.7494 47.4167 106.933 89.7185 86.7964C91.5449 86.0398 92.8169 87.3053 91.0165 89.6079C89.1966 91.9431 74.6764 105.25 50.2673 105.25C25.8842 105.25 7.20233 88.5903 1.50121 81.6759C-0.0643111 79.8821 1.73604 79.0667 2.79929 79.7255L3.72556 80.293Z" fill="#F8F8F8"/>
<path id="Vector_2" d="M91.0881 77.0341C94.7866 76.5844 100.664 76.8606 101.818 78.3444C102.699 79.4748 101.792 84.5491 100.299 88.191C98.7983 91.8072 96.5674 94.3636 95.328 95.3527C94.0821 96.3419 93.1559 95.9565 93.8277 94.4728C94.5127 92.9955 98.2895 83.7912 96.7957 81.8642C95.4063 80.0786 89.1181 80.7273 86.1958 81.0292L85.6087 81.087C84.9891 81.1384 84.4868 81.1962 84.0889 81.2412C82.8299 81.3761 82.4907 81.4146 82.3016 81.0357C81.8189 79.6932 87.383 77.4644 91.0881 77.0341Z" fill="#F8F8F8"/>
</g>
</svg>
