<svg width="512" height="512" viewBox="0 0 512 512" fill="none" xmlns="http://www.w3.org/2000/svg">
<g clip-path="url(#clip0_243_2)">
<mask id="mask0_243_2" style="mask-type:luminance" maskUnits="userSpaceOnUse" x="-154" y="-104" width="817" height="720">
<path d="M-153.043 -103.586H662.82V615.362H-153.043V-103.586Z" fill="white"/>
</mask>
<g mask="url(#mask0_243_2)">
<path fill-rule="evenodd" clip-rule="evenodd" d="M436.043 -0.000288721H75.9576C46.7715 -0.000288721 36.0002 10.8009 36.0002 40.0819V393.403C36.0002 396.717 36.1335 399.795 36.4254 402.646C37.0899 409.038 37.215 415.231 43.1427 422.282C43.7219 422.973 49.7738 427.489 49.7738 427.489C53.0291 429.09 55.2519 430.269 58.9233 431.751L236.234 506.245C245.439 510.476 249.288 512.125 255.973 511.993V511.994C255.982 511.994 255.991 511.994 256 511.994C256.009 511.994 256.017 511.994 256.026 511.994V511.993C262.712 512.125 266.561 510.476 275.766 506.245L453.076 431.751C456.748 430.269 458.97 429.09 462.226 427.489C462.226 427.489 468.278 422.973 468.857 422.282C474.784 415.231 474.909 409.038 475.574 402.646C475.866 399.795 476 396.717 476 393.403V40.0819C476 10.8009 465.228 -0.000288721 436.043 -0.000288721Z" fill="#F8F8F8"/>
<path d="M411.924 355.218L411.843 356.033L411.762 356.929L411.599 357.744L411.356 358.559L411.198 359.292L410.953 360.108L410.629 360.841L410.303 361.494L409.983 362.227L409.577 362.878L409.171 363.531L408.688 364.183L408.281 364.835L407.799 365.405L407.229 365.976L406.746 366.465L406.097 367.035L405.532 367.525L404.882 368.014L404.237 368.415L403.592 368.904L402.86 369.312L402.133 369.638L401.407 370.045L400.594 370.372L399.786 370.698L398.978 370.942L398.171 371.187L397.439 371.431L396.631 371.594L395.904 371.757L395.178 371.92L394.365 372.083L393.556 372.164L392.83 372.246L392.017 372.328L391.129 372.41L390.32 372.491H389.512H388.623H387.729H386.922L386.113 372.41H385.225L384.416 372.328L383.604 372.246L382.715 372.164L381.907 372.002L381.099 371.92L380.286 371.757L379.477 371.594L378.67 371.431L377.862 371.268L377.05 371.024L376.323 370.861L375.515 370.616L374.706 370.372L373.976 370.045L373.168 369.801L372.441 369.557L371.632 369.231L370.902 368.904L370.175 368.578L369.448 368.176L368.717 367.85L367.99 367.442L367.345 367.035L366.613 366.627L365.968 366.22L365.318 365.813L364.672 365.324L364.027 364.835L363.377 364.346L362.73 363.857L362.162 363.367L361.517 362.798L362.004 362.146L362.568 361.575L363.056 360.922L363.621 360.27L364.108 359.7L364.591 359.049L365.16 358.396L365.642 357.826L366.211 357.174L366.695 356.603L367.263 355.952L367.746 355.299L368.234 354.729L368.798 354.077L369.285 353.424L369.849 352.854L370.337 352.203L370.982 352.692L371.709 353.181L372.359 353.67L373.086 354.159L373.736 354.566L374.463 355.054L375.108 355.462L375.84 355.788L376.485 356.196L377.212 356.522L377.944 356.848L378.67 357.174L379.398 357.419L380.128 357.744L380.936 357.989L381.745 358.233L382.471 358.478L383.284 358.641L384.092 358.804L384.899 358.967L385.789 359.049L386.601 359.211H387.409L388.298 359.292H389.106H390.076L390.966 359.211L391.779 359.049L392.505 358.885L393.232 358.722L393.882 358.478L394.447 358.152L395.097 357.663L395.579 357.092L395.904 356.44L396.149 355.707L396.229 354.892V354.729L396.149 353.751L395.824 352.935L395.417 352.365L394.853 351.876L394.202 351.387L393.556 351.062L392.83 350.736L392.017 350.409L391.047 350.003L390.482 349.839L389.838 349.676L389.106 349.431L388.379 349.268L387.572 349.024L386.758 348.861L385.87 348.617L385.061 348.454L384.172 348.209L383.364 348.047L382.551 347.802L381.745 347.638L380.936 347.394L380.204 347.15L379.398 346.987L378.67 346.742L377.944 346.498L377.212 346.253L376.323 345.927L375.515 345.6L374.706 345.275L373.894 344.949L373.168 344.541L372.359 344.134L371.709 343.727L370.982 343.32L370.337 342.831L369.687 342.423L369.123 341.933L368.555 341.363L367.99 340.792L367.502 340.222L367.02 339.652L366.613 339.082L366.211 338.429L365.805 337.696L365.48 337.131L365.236 336.478L364.998 335.745L364.754 335.093L364.591 334.277L364.428 333.544L364.347 332.729L364.266 331.914L364.184 331.018V330.121V329.959V329.143L364.266 328.329L364.347 327.595L364.428 326.78L364.591 326.047L364.754 325.313L364.998 324.579L365.16 323.846L365.48 323.113L365.805 322.379L366.13 321.646L366.532 320.912L366.938 320.179L367.421 319.526L367.909 318.875L368.473 318.223L369.042 317.653L369.606 317L370.256 316.429L370.82 316.022L371.47 315.533L372.116 315.044L372.761 314.637L373.493 314.229L374.22 313.903L374.946 313.496L375.677 313.17L376.485 312.925L377.293 312.6L378.024 312.355L378.67 312.191L379.398 312.029L380.128 311.866L380.936 311.703L381.663 311.54L382.471 311.459L383.284 311.377L384.092 311.295L384.899 311.214H385.707H386.601H387.491H388.379L389.269 311.295L390.158 311.377H390.966L391.859 311.459L392.667 311.621L393.556 311.703L394.365 311.866L395.097 312.029L395.904 312.191L396.712 312.355L397.439 312.518L398.251 312.762L398.978 313.007L399.705 313.17L400.518 313.496L401.245 313.74L401.971 314.066L402.698 314.392L403.51 314.719L404.237 315.126L404.882 315.452L405.614 315.859L406.341 316.267L406.986 316.675L407.717 317.164L408.363 317.57L409.013 318.06L409.659 318.549L410.303 319.037L409.821 319.69L409.415 320.342L408.932 320.994L408.444 321.646L407.962 322.379L407.555 323.031L407.067 323.683L406.584 324.335L406.179 324.987L405.695 325.64L405.208 326.291L404.801 326.943L404.319 327.677L403.83 328.329L403.348 328.98L402.942 329.632L402.458 330.284L401.808 329.796L401.082 329.388L400.436 328.98L399.786 328.491L399.06 328.166L398.409 327.758L397.683 327.431L397.037 327.106L396.306 326.78L395.66 326.454L394.934 326.21L394.284 325.883L393.394 325.64L392.586 325.394L391.779 325.151L390.966 324.987L390.158 324.824L389.35 324.661L388.542 324.579L387.729 324.498L387.003 324.416H386.195H385.225L384.335 324.579L383.522 324.742L382.796 324.905L382.151 325.232L381.581 325.557L380.854 326.21L380.367 326.943L380.048 327.677L379.965 328.491V328.655L380.048 329.714L380.448 330.61L380.774 331.099L381.338 331.67L382.069 332.077L382.715 332.485L383.522 332.811L384.416 333.137L385.387 333.463L386.032 333.626L386.678 333.87L387.409 334.033L388.135 334.277L388.943 334.441L389.838 334.686L390.727 334.929L391.616 335.175L392.505 335.337L393.313 335.582L394.202 335.826L395.015 335.989L395.824 336.234L396.631 336.478L397.357 336.723L398.171 336.967L398.898 337.212L399.624 337.456L400.518 337.777L401.325 338.185L402.133 338.511L402.942 338.918L403.673 339.326L404.4 339.733L405.045 340.141L405.695 340.63L406.341 341.037L406.986 341.608L407.636 342.178L408.2 342.831L408.769 343.4L409.252 344.053L409.74 344.786L410.141 345.438L410.548 346.172L410.873 346.824L411.117 347.557L411.356 348.29L411.518 349.024L411.68 349.839L411.843 350.655L411.924 351.469L412.006 352.365V353.262V353.424V354.322L411.924 355.218ZM355.182 371.513H354.37H353.562H352.754H351.946H351.133H350.325H349.518H348.709H347.815H347.008H346.2H345.392H344.578H343.772H342.963H342.155H341.342H340.534H339.727H338.919H338.11H337.298H336.49H335.683H334.874H334.061H333.253H332.446H331.556H330.744H329.935H329.128H328.32H327.508H326.699H325.891H325.083H324.271H323.463H322.655H321.847H321.033H320.227H319.418H318.61H317.798H316.989H316.1H315.292H314.485H313.672H312.864H312.055H311.248H310.436H309.628H308.82V370.698V369.883V369.068V368.257V367.442V366.627V365.813V364.998V364.183V363.367V362.553V361.738V360.922V360.108V359.292V358.478V357.663V356.848V356.114V355.299V354.484V353.67V352.854V352.039V351.225V350.409V349.594V348.779V347.965V347.15V346.335V345.519V344.705V343.89V343.074V342.26V341.444V340.63V339.815V339V338.185V337.374V336.56V335.745V334.929V334.115V333.3V332.485V331.67V330.855V330.039V329.225V328.41V327.595V326.861V326.047V325.232V324.416V323.602V322.786V321.972V321.156V320.342V319.526V318.712V317.896V317.081V316.267V315.452V314.637V313.822V313.007V312.191H309.628H310.436H311.248H312.055H312.864H313.672H314.485H315.292H316.1H316.909H317.721H318.53H319.336H320.145H320.876H321.684H322.492H323.301H324.113H324.921H325.728H326.537H327.349H328.157H328.965H329.773H330.586H331.394H332.202H333.009H333.823H334.631H335.438H336.246H337.054H337.867H338.675H339.483H340.291H341.104H341.911H342.719H343.527H344.259H345.067H345.875H346.683H347.495H348.303H349.111H349.919H350.732H351.539H352.347H353.156H353.968H354.777H355.584V313.007V313.74V314.555V315.37V316.185V316.918V317.734V318.549V319.282V320.097V320.912V321.646V322.461V323.275V324.091V324.824V325.64H354.777H353.968H353.156H352.347H351.539H350.732H350H349.192H348.385H347.576H346.764H345.956H345.148H344.34H343.527H342.719H341.911H341.104H340.291H339.564H338.756H337.948H337.135H336.328H335.52H334.712H333.899H333.091H332.283H331.476H330.662H329.854H329.128H328.32H327.508H326.699H325.891H325.083H324.271V326.454V327.269V328.083V328.899V329.714V330.448V331.262V332.077V332.892V333.707V334.522V335.337H325.083H325.891H326.699H327.508H328.32H329.128H329.935H330.744H331.476H332.283H333.091H333.899H334.712H335.52H336.328H337.135H337.948H338.756H339.564H340.372H341.184H341.992H342.801H343.609H344.422H345.229H345.956H346.764H347.576H348.385H349.192H350H350.812H351.621H352.429V336.152V336.885V337.696V338.511V339.244V340.059V340.874V341.608V342.423V343.238V344.053V344.786V345.6V346.416V347.15V347.965H351.621H350.812H350H349.192H348.385H347.576H346.764H345.956H345.229H344.422H343.609H342.801H341.992H341.184H340.372H339.564H338.756H337.948H337.135H336.328H335.52H334.712H333.899H333.091H332.283H331.476H330.744H329.935H329.128H328.32H327.508H326.699H325.891H325.083H324.271V348.779V349.676V350.491V351.306V352.203V353.018V353.833V354.729V355.543V356.359V357.255V358.07H325.083H325.891H326.699H327.508H328.32H329.128H329.935H330.744H331.556H332.446H333.253H334.061H334.874H335.683H336.49H337.298H338.11H338.919H339.727H340.534H341.342H342.155H342.963H343.772H344.578H345.392H346.2H347.008H347.815H348.709H349.518H350.325H351.133H351.946H352.754H353.562H354.37H355.182H355.99V358.885V359.619V360.434V361.249V362.064V362.798V363.612V364.427V365.161V365.976V366.79V367.525V368.334V369.149V369.963V370.698V371.513H355.182ZM296.064 371.513H295.257H294.448H293.555H292.747H291.939H291.131H290.318H289.51H288.621H287.813H287.005H286.192H285.385H284.577H283.688H282.875H282.067H281.258V370.698V369.883V369.068V368.253V367.433V366.618V365.803V364.987V364.173V363.358V362.543V361.724V360.909V360.093V359.279V358.463V357.643V356.828V356.013V355.199V354.383V353.569V352.749V351.935V351.119V350.304V349.489V348.674V347.854V347.038V346.224V345.409V344.595V343.78V342.96V342.145V341.33V340.515V339.7V338.88V338.065V337.25V336.435L280.853 337.086L280.37 337.825L279.963 338.477L279.481 339.13L279.074 339.862L278.586 340.515L278.185 341.167L277.778 341.905L277.296 342.557L276.889 343.209L276.402 343.861L276 344.599L275.513 345.251L275.111 345.903L274.704 346.637L274.216 347.293L273.815 347.946L273.327 348.678L272.926 349.331L272.439 349.983L272.037 350.721L271.63 351.374L271.143 352.025L270.742 352.759L270.254 353.415L269.852 354.067L269.365 354.72L268.958 355.453L268.556 356.109L268.069 356.762L267.668 357.495L267.18 358.147L266.774 358.799L266.291 359.538L265.885 360.189H265.564L265.077 359.456L264.67 358.799L264.187 358.065L263.781 357.413L263.297 356.681L262.891 356.023L262.409 355.29L262.002 354.637L261.514 353.904L261.113 353.253L260.625 352.514L260.224 351.862L259.737 351.128L259.33 350.476L258.847 349.738L258.44 349.087L257.958 348.353L257.47 347.701L257.064 346.963L256.581 346.311L256.175 345.578L255.692 344.926L255.286 344.187L254.803 343.535L254.396 342.801L253.909 342.15L253.507 341.416L253.019 340.759L252.618 340.026L252.13 339.373L251.724 338.64L251.242 337.989L250.834 337.25L250.352 336.598V337.413V338.228V339.043V339.862V340.678V341.492V342.308V343.123V343.942V344.758V345.491V346.306V347.121V347.936V348.756V349.571V350.386V351.2V352.015V352.831V353.65V354.465V355.281V356.095V356.911V357.725V358.545V359.36V360.175V360.989V361.805V362.624V363.358V364.173V364.987V365.803V366.618V367.433V368.253V369.068V369.883V370.698V371.513H249.544H248.732H247.923H247.115H246.308H245.495H244.687H243.879H243.07H242.258H241.45H240.642H239.834H239.022H238.214H237.406H236.597H235.785H234.977V370.698V369.883V369.068V368.257V367.442V366.627V365.813V364.998V364.183V363.367V362.553V361.738V360.922V360.108V359.292V358.478V357.663V356.848V356.114V355.299V354.484V353.67V352.854V352.039V351.225V350.409V349.594V348.779V347.965V347.15V346.335V345.519V344.705V343.89V343.074V342.26V341.444V340.63V339.815V339V338.185V337.374V336.56V335.745V334.929V334.115V333.3V332.485V331.67V330.855V330.039V329.225V328.41V327.595V326.861V326.047V325.232V324.416V323.602V322.786V321.972V321.156V320.342V319.526V318.712V317.896V317.081V316.267V315.452V314.637V313.822V313.007V312.191H235.785H236.597H237.325H238.132H238.94H239.753H240.48H241.287H242.1H242.908H243.635H244.443H245.256H246.064H246.79H247.598H248.411H249.219H249.945H250.753H251.566L251.968 312.844L252.374 313.577L252.856 314.224L253.263 314.958L253.669 315.609L254.071 316.344L254.477 316.99L254.961 317.725L255.366 318.376L255.773 319.028L256.175 319.756L256.581 320.409L257.064 321.142L257.47 321.794L257.876 322.523L258.278 323.174L258.766 323.826L259.173 324.556L259.573 325.207L259.98 325.941L260.382 326.593L260.87 327.321L261.276 327.974L261.677 328.707L262.084 329.354L262.485 330.006L262.973 330.739L263.379 331.392L263.781 332.126L264.187 332.773L264.588 333.506L265.077 334.158L265.483 334.886L265.885 335.539L266.291 334.886L266.697 334.158L267.18 333.506L267.585 332.773L267.988 332.126L268.394 331.392L268.877 330.739L269.283 330.006L269.69 329.354L270.091 328.707L270.579 327.974L270.98 327.321L271.387 326.593L271.792 325.941L272.276 325.207L272.682 324.556L273.089 323.826L273.489 323.174L273.897 322.523L274.38 321.794L274.786 321.142L275.192 320.409L275.594 319.756L276.081 319.028L276.484 318.376L276.889 317.725L277.296 316.99L277.778 316.344L278.185 315.609L278.586 314.958L278.993 314.224L279.481 313.577L279.882 312.844L280.288 312.191H281.096H281.905H282.635H283.444H284.252H285.059H285.791H286.599H287.406H288.215H288.946H289.754H290.562H291.37H292.101H292.91H293.717H294.525H295.257H296.064H296.872V313.007V313.822V314.637V315.452V316.267V317.081V317.896V318.712V319.526V320.342V321.156V321.972V322.786V323.602V324.416V325.232V326.047V326.861V327.595V328.41V329.225V330.039V330.855V331.67V332.485V333.3V334.115V334.929V335.745V336.56V337.374V338.185V339V339.815V340.63V341.444V342.26V343.074V343.89V344.705V345.519V346.335V347.15V347.965V348.779V349.594V350.409V351.225V352.039V352.854V353.67V354.484V355.299V356.114V356.848V357.663V358.478V359.292V360.108V360.922V361.738V362.553V363.367V364.183V364.998V365.813V366.627V367.442V368.257V369.068V369.883V370.698V371.513H296.064ZM202.187 347.068L201.943 346.33L201.623 345.515L201.297 344.781L201.053 344.043L200.733 343.31L200.409 342.494L200.164 341.756L199.839 341.022L199.52 340.29L199.275 339.552L198.949 338.736L198.711 338.003L198.386 337.264L198.06 336.531L197.817 335.797L197.496 334.978L197.172 334.244L196.928 333.511L196.602 332.773L196.282 331.958L196.039 331.219L195.713 330.486L195.393 331.219L195.15 331.958L194.825 332.773L194.499 333.511L194.26 334.244L193.935 334.978L193.61 335.797L193.29 336.531L193.045 337.264L192.721 338.003L192.395 338.736L192.156 339.552L191.831 340.29L191.506 341.022L191.263 341.756L190.942 342.494L190.617 343.31L190.292 344.043L190.054 344.781L189.728 345.515L189.403 346.33L189.159 347.068L188.839 347.802H189.647H190.454H191.263H192.075H192.883H193.691H194.499H195.312H196.039H196.846H197.659H198.467H199.275H200.083H200.891H201.703H202.511L202.187 347.068ZM227.596 371.513H226.784H226.056H225.249H224.436H223.628H222.82H222.094H221.28H220.473H219.665H218.856H218.044H217.317H216.509H215.701H214.889H214.081H213.354H212.546H211.734L211.413 370.779L211.169 370.045L210.845 369.312L210.519 368.497L210.28 367.768L209.955 367.035L209.63 366.302L209.391 365.568L209.066 364.835L208.741 364.101L208.498 363.367L208.177 362.553L207.851 361.819L207.608 361.086L207.282 360.352H206.474H205.667H204.859H204.051H203.32H202.511H201.703H200.891H200.083H199.275H198.467H197.659H196.846H196.039H195.312H194.499H193.691H192.883H192.075H191.263H190.454H189.647H188.839H188.031H187.299H186.492H185.683H184.87H184.063L183.743 361.086L183.499 361.819L183.173 362.553L182.849 363.367L182.609 364.101L182.285 364.835L181.959 365.568L181.716 366.302L181.396 367.035L181.07 367.768L180.826 368.497L180.505 369.312L180.181 370.045L179.937 370.779L179.612 371.513H178.804H177.996H177.188H176.375H175.568H174.678H173.871H173.062H172.25H171.442H170.634H169.826H169.013H168.206H167.398H166.509H165.696H164.888H164.079H163.272L163.592 370.779L163.917 370.045L164.242 369.312L164.563 368.497L164.806 367.768L165.132 367.035L165.456 366.302L165.776 365.568L166.102 364.835L166.427 364.019L166.747 363.286L167.073 362.553L167.316 361.819L167.641 361.086L167.961 360.352L168.287 359.538L168.611 358.804L168.932 358.07L169.257 357.337L169.582 356.603L169.826 355.87L170.146 355.054L170.471 354.322L170.797 353.588L171.117 352.854L171.442 352.121L171.768 351.387L172.088 350.572L172.331 349.839L172.657 349.106L172.981 348.372L173.302 347.638L173.627 346.905L173.951 346.09L174.272 345.357L174.597 344.623L174.841 343.89L175.166 343.157L175.486 342.423L175.811 341.608L176.137 340.874L176.457 340.141L176.781 339.407L177.107 338.674L177.351 337.94L177.672 337.212L177.996 336.396L178.321 335.664L178.642 334.929L178.966 334.196L179.292 333.463L179.612 332.729L179.855 331.914L180.181 331.181L180.505 330.448L180.826 329.714L181.152 328.98L181.476 328.247L181.797 327.431L182.122 326.699L182.366 325.965L182.69 325.232L183.011 324.498L183.336 323.764L183.661 322.95L183.981 322.216L184.306 321.483L184.632 320.749L184.87 320.016L185.196 319.282L185.521 318.467L185.847 317.734L186.167 317L186.492 316.267L186.817 315.533L187.137 314.8L187.381 313.985L187.706 313.251L188.031 312.518L188.351 311.784H189.159H189.891H190.698H191.506H192.319H193.045H193.853H194.662H195.475H196.202H197.009H197.817H198.629H199.356H200.164H200.972H201.785H202.511H203.32L203.644 312.518L203.97 313.251L204.291 313.985L204.615 314.8L204.859 315.533L205.179 316.267L205.504 317L205.829 317.734L206.154 318.467L206.474 319.282L206.8 320.016L207.125 320.749L207.364 321.483L207.689 322.216L208.015 322.95L208.34 323.764L208.66 324.498L208.985 325.232L209.31 325.965L209.63 326.699L209.874 327.431L210.198 328.247L210.519 328.98L210.845 329.714L211.169 330.448L211.495 331.181L211.815 331.914L212.139 332.729L212.384 333.463L212.704 334.196L213.028 334.929L213.354 335.664L213.679 336.396L213.999 337.212L214.325 337.94L214.649 338.674L214.889 339.407L215.213 340.141L215.539 340.874L215.86 341.608L216.184 342.423L216.509 343.157L216.835 343.89L217.155 344.623L217.399 345.357L217.723 346.09L218.044 346.905L218.369 347.638L218.694 348.372L219.019 349.106L219.34 349.839L219.665 350.572L219.908 351.387L220.229 352.121L220.553 352.854L220.879 353.588L221.199 354.322L221.524 355.054L221.85 355.87L222.175 356.603L222.414 357.337L222.739 358.07L223.065 358.804L223.385 359.538L223.709 360.352L224.034 361.086L224.359 361.819L224.679 362.553L224.924 363.286L225.249 364.019L225.569 364.835L225.894 365.568L226.218 366.302L226.539 367.035L226.864 367.768L227.189 368.497L227.434 369.312L227.753 370.045L228.078 370.779L228.403 371.513H227.596ZM156.713 363.937L156.063 364.427L155.498 364.835L154.848 365.324L154.203 365.731L153.557 366.22L152.907 366.627L152.262 367.035L151.53 367.442L150.803 367.85L150.076 368.257L149.346 368.578L148.619 368.986L147.811 369.312L147.085 369.638L146.272 369.963L145.546 370.29L144.818 370.534L144.087 370.779L143.36 371.024L142.552 371.268L141.826 371.513L141.013 371.676L140.286 371.839L139.478 372.002L138.666 372.164L137.858 372.246L136.968 372.328L136.161 372.41L135.271 372.491L134.458 372.572L133.57 372.653H132.68H131.79H130.902H130.089L129.281 372.572L128.392 372.491L127.584 372.41L126.776 372.328L125.963 372.246L125.155 372.083L124.347 371.92L123.621 371.757L122.808 371.594L122.081 371.35L121.274 371.187L120.542 370.942L119.815 370.616L119.088 370.372L118.281 370.045L117.55 369.72L116.823 369.394L116.097 369.068L115.364 368.661L114.72 368.257L113.993 367.85L113.343 367.442L112.697 367.035L112.047 366.545L111.402 366.057L110.755 365.568L110.187 365.079L109.623 364.59L109.054 364.019L108.49 363.531L107.921 362.96L107.357 362.389L106.869 361.819L106.386 361.168L105.898 360.597L105.492 359.945L105.009 359.292L104.604 358.641L104.201 357.989L103.795 357.255L103.389 356.603L103.069 355.87L102.744 355.136L102.419 354.403L102.098 353.67L101.854 353.018L101.529 352.284L101.367 351.55L101.127 350.817L100.965 350.003L100.721 349.268L100.559 348.454L100.477 347.72L100.314 346.905L100.234 346.172L100.152 345.357L100.076 344.541L99.9951 343.727V342.831V342.015V341.852V341.037L100.076 340.141V339.326L100.152 338.511L100.234 337.614L100.397 336.804L100.477 335.989L100.64 335.255L100.883 334.441L101.047 333.626L101.285 332.892L101.529 332.077L101.773 331.344L102.098 330.528L102.419 329.796L102.744 329.062L103.069 328.329L103.389 327.595L103.795 326.861L104.201 326.21L104.604 325.557L105.009 324.905L105.416 324.253L105.898 323.602L106.386 322.95L106.869 322.298L107.357 321.726L107.921 321.156L108.408 320.585L108.973 320.016L109.542 319.445L110.105 318.956L110.755 318.386L111.32 317.896L111.966 317.407L112.616 317L113.261 316.511L113.912 316.104L114.556 315.697L115.283 315.288L116.015 314.881L116.741 314.474L117.468 314.148L118.199 313.822L119.007 313.414L119.653 313.17L120.461 312.925L121.193 312.6L121.919 312.436L122.645 312.191L123.458 312.029L124.185 311.784L124.992 311.621L125.801 311.54L126.613 311.377L127.422 311.295L128.229 311.214L129.037 311.132L129.85 311.051H130.74H131.547H132.436H133.325L134.22 311.132L135.109 311.214H135.917L136.724 311.295L137.614 311.459L138.345 311.54L139.153 311.703L139.962 311.866L140.692 312.029L141.418 312.191L142.146 312.355L142.878 312.6L143.604 312.762L144.249 313.007L144.981 313.251L145.708 313.577L146.434 313.903L147.166 314.229L147.893 314.637L148.619 314.963L149.27 315.37L149.996 315.778L150.641 316.185L151.373 316.593L152.018 317.081L152.664 317.489L153.314 317.978L153.959 318.467L154.609 319.037L155.254 319.526L154.767 320.179L154.203 320.749L153.715 321.401L153.151 322.053L152.664 322.705L152.18 323.275L151.611 323.927L151.129 324.579L150.641 325.151L150.076 325.802L149.59 326.454L149.025 327.106L148.537 327.677L148.055 328.329L147.487 328.98L147.002 329.632L146.434 330.203L145.951 330.855L145.301 330.366L144.655 329.796L144.006 329.388L143.36 328.899L142.715 328.491L142.065 328.083L141.418 327.677L140.692 327.269L140.042 326.943L139.397 326.617L138.747 326.372L138.02 326.128L137.294 325.883L136.562 325.721L135.754 325.557L134.947 325.394L134.138 325.313L133.249 325.232L132.355 325.151H131.466H130.658L129.85 325.232L129.119 325.313L128.311 325.476L127.584 325.64L126.852 325.883L126.126 326.128L125.399 326.454L124.672 326.78L124.022 327.187L123.378 327.595L122.727 328.003L122.163 328.491L121.594 328.98L121.03 329.469L120.542 330.039L119.978 330.61L119.491 331.262L119.088 331.833L118.682 332.485L118.281 333.218L117.874 333.87L117.55 334.604L117.306 335.337L116.985 336.071L116.741 336.885L116.579 337.696L116.417 338.429L116.253 339.326L116.173 340.141L116.097 340.955V341.852V342.015V342.831L116.173 343.645L116.253 344.379L116.335 345.194L116.497 345.927L116.66 346.661L116.823 347.394L117.067 348.127L117.306 348.779L117.631 349.594L117.956 350.328L118.357 351.062L118.764 351.714L119.17 352.365L119.653 353.018L120.141 353.588L120.704 354.159L121.193 354.729L121.756 355.218L122.407 355.707L123.052 356.196L123.697 356.603L124.347 357.011L125.075 357.337L125.801 357.663L126.532 357.989L127.34 358.233L128.148 358.478L128.961 358.641L129.769 358.804L130.576 358.885L131.466 358.967H132.355H133.325L134.22 358.885L135.109 358.804L135.917 358.722L136.724 358.559L137.538 358.396L138.345 358.152L139.071 357.989L139.799 357.663L140.449 357.337L141.175 357.011L141.744 356.685L142.39 356.277V355.462V354.648V353.833V353.018V352.121V351.306V350.491V349.676V348.861H141.581H140.851H140.042H139.235H138.427H137.695H136.887H136.079H135.271H134.541H133.732H132.924H132.116H131.385H130.576V348.047V347.313V346.498V345.683V344.868V344.134V343.32V342.504V341.69V340.955V340.141V339.326V338.511V337.777V336.967H131.385H132.197H133.006H133.813H134.621H135.429H136.242H137.05H137.858H138.666H139.478H140.286H141.094H141.901H142.715H143.523H144.331H145.139H145.951H146.759H147.567H148.375H149.187H149.996H150.803H151.611H152.424H153.232H154.041H154.848H155.661H156.468H157.277V337.777V338.592V339.407V340.141V340.955V341.771V342.585V343.4V344.216V344.949V345.764V346.579V347.394V348.209V349.024V349.839V350.572V351.387V352.203V353.018V353.833V354.648V355.462V356.196V357.011V357.826V358.641V359.456V360.27V361.005V361.819V362.634V363.449L156.713 363.937Z" fill="#2B2E31"/>
<path d="M130.691 177.97H165.758V150.769H130.691V95.2399H167.154V68.0396H100.913V264.347H167.709V237.146H130.691V177.97Z" fill="#2B2E31"/>
<path d="M381.864 183.862V228.172C381.864 236.025 378.244 239.669 370.734 239.669H365.164C357.373 239.669 353.753 236.025 353.753 228.172V104.214C353.753 96.3617 357.373 92.7183 365.164 92.7183H370.174C377.689 92.7183 381.309 96.3617 381.309 104.214V142.638H410.529V102.531C410.529 78.1355 398.839 66.3562 374.631 66.3562H360.155C335.945 66.3562 323.974 78.4137 323.974 102.814V229.572C323.974 253.973 335.945 266.03 360.155 266.03H374.907C399.122 266.03 411.087 253.973 411.087 229.572V183.862H381.864Z" fill="#2B2E31"/>
<path d="M278.453 264.348H308.236V68.039H278.453V264.348Z" fill="#2B2E31"/>
<path d="M235.24 155.256C235.24 163.109 231.626 166.757 224.111 166.757H211.863V94.4012H224.111C231.626 94.4012 235.24 98.0455 235.24 105.897V155.256ZM228.84 68.0391H182.084V264.348H211.863V193.114H228.84C253.053 193.114 265.019 181.057 265.019 156.661V104.497C265.019 80.0965 253.053 68.0391 228.84 68.0391Z" fill="#2B2E31"/>
<path fill-rule="evenodd" clip-rule="evenodd" d="M171.165 441.849H341.639L254.626 470.624L171.165 441.849Z" fill="#2B2E31"/>
</g>
</g>
<defs>
<clipPath id="clip0_243_2">
<rect width="440" height="512" fill="white" transform="translate(36)"/>
</clipPath>
</defs>
</svg>
