<svg width="512" height="512" viewBox="0 0 512 512" fill="none" xmlns="http://www.w3.org/2000/svg">
<path d="M256 6C115 6 0.796875 120.077 0.796875 260.92C0.796875 373.723 73.8487 468.999 175.292 502.777C188.052 505.007 192.837 497.359 192.837 490.668C192.837 484.614 192.518 464.539 192.518 443.189C128.399 454.979 111.81 427.575 106.706 413.235C103.835 405.907 91.3941 383.282 80.548 377.228C71.6157 372.448 58.8554 360.658 80.2288 360.34C100.326 360.021 114.681 378.821 119.466 386.469C142.435 425.026 179.12 414.192 193.794 407.5C196.027 390.93 202.726 379.777 210.063 373.404C153.281 367.031 93.9457 345.044 93.9457 247.537C93.9457 219.815 103.835 196.872 120.104 179.027C117.552 172.654 108.62 146.525 122.656 111.473C122.656 111.473 144.03 104.782 192.837 137.603C213.253 131.867 234.946 128.999 256.638 128.999C278.33 128.999 300.023 131.867 320.439 137.603C369.246 104.463 390.619 111.473 390.619 111.473C404.656 146.525 395.724 172.654 393.172 179.027C409.441 196.872 419.33 219.496 419.33 247.537C419.33 345.363 359.676 367.031 302.893 373.404C312.144 381.37 320.12 396.666 320.12 420.565C320.12 454.66 319.8 482.064 319.8 490.668C319.8 497.359 324.586 505.326 337.346 502.777C388.011 485.696 432.037 453.173 463.226 409.786C494.414 366.399 511.194 314.334 511.203 260.92C511.203 120.077 397 6 256 6Z" fill="#F8F8F8"/>
</svg>
