<svg width="95" height="97" viewBox="0 0 95 97" fill="none" xmlns="http://www.w3.org/2000/svg">
<path id="Vector" d="M93.9507 39.6413C94.5132 42.8869 94.7937 46.1752 94.7889 49.4693C94.7889 64.181 89.5426 76.62 80.4129 85.0397H80.4249C72.441 92.4318 61.466 96.7111 48.4528 96.7111C35.6583 96.7111 23.3879 91.6167 14.3408 82.5486C5.29377 73.4804 0.211182 61.1814 0.211182 48.3572C0.211182 35.5329 5.29377 23.2339 14.3408 14.1657C23.3879 5.09761 35.6583 0.00319068 48.4528 0.00319068C60.4284 -0.137388 71.9938 4.37217 80.7265 12.5873L66.9535 26.3924C61.9748 21.6354 55.3302 19.0304 48.4528 19.1393C35.8678 19.1393 25.1762 27.6496 21.3651 39.1095C19.3445 45.1144 19.3445 51.618 21.3651 57.623H21.3832C25.2124 69.0647 35.8859 77.575 48.4709 77.575C54.9715 77.575 60.5554 75.9068 64.8851 72.9572H64.867C67.3811 71.2878 69.5316 69.1252 71.1888 66.5998C72.846 64.0744 73.9756 61.2387 74.5093 58.2637H48.4528V39.6474L93.9507 39.6413Z" fill="#F8F8F8"/>
</svg>
