<svg width="512" height="512" viewBox="0 0 512 512" fill="none" xmlns="http://www.w3.org/2000/svg">
<g clip-path="url(#clip0_243_2)">
<path d="M310.191 8.51398C293.22 3.09599 274.706 0 255.807 0C201.424 0 152.44 24.768 119.656 63.8549L203.738 134.676L310.191 8.51398Z" fill="#F8F8F8"/>
<path opacity="0.7" d="M119.655 63.8549C93.8137 94.8148 78 135.063 78 178.407C78 212.076 84.5569 239.166 95.7421 263.546L203.738 134.676L119.655 63.8549Z" fill="#F8F8F8"/>
<path opacity="0.6" d="M256.193 110.295C293.991 110.295 324.462 140.868 324.462 178.794C324.462 195.435 318.29 210.915 308.262 222.912C308.262 222.912 361.874 158.67 414.329 96.3629C392.73 54.5669 355.317 22.833 310.191 8.51404L203.738 134.676C216.466 119.97 234.979 110.295 256.193 110.295Z" fill="#F8F8F8"/>
<path opacity="0.8" d="M256.193 246.906C218.394 246.906 187.924 216.333 187.924 178.407C187.924 161.766 193.71 146.286 203.738 134.676L95.7422 263.547C114.256 304.568 145.112 337.85 176.739 379.259L308.262 222.525C295.534 237.618 277.021 246.906 256.193 246.906Z" fill="#F8F8F8"/>
<path opacity="0.9" d="M305.948 422.603C365.345 329.336 434.386 287.153 434.386 178.794C434.386 148.995 427.057 121.131 414.329 96.3628L176.739 379.259C186.767 392.417 197.181 407.51 207.209 422.99C243.465 479.105 233.436 512.387 256.578 512.387C279.72 512.387 269.692 478.718 305.948 422.603Z" fill="#F8F8F8"/>
</g>
<defs>
<clipPath id="clip0_243_2">
<rect width="356" height="512" fill="white" transform="translate(78)"/>
</clipPath>
</defs>
</svg>
