<svg width="512" height="512" viewBox="0 0 512 512" fill="none" xmlns="http://www.w3.org/2000/svg">
<path d="M0 160V352H53.3333V160H0Z" fill="#F8F8F8"/>
<path d="M167.173 160L155.237 249.69L147.821 200.907C145.67 185.281 143.608 171.645 141.633 160H74.6665V352H119.911L120.086 225.214L139.132 352H171.342L189.422 222.419L189.554 352H234.667V160H167.173Z" fill="#F8F8F8"/>
<path d="M256 352V160H339.249C358.073 160 373.333 175.146 373.333 193.884V318.116C373.333 336.83 358.098 352 339.249 352H256ZM318.211 194.555C316.095 193.412 312.048 192.861 306.162 192.861V318.843C313.934 318.843 318.717 317.445 320.51 314.523C322.304 311.644 323.223 303.852 323.223 291.063V216.618C323.223 207.936 322.901 202.389 322.304 199.933C321.706 197.477 320.372 195.698 318.211 194.555Z" fill="#F8F8F8"/>
<path d="M473.919 208.073H477.328C496.477 208.073 512 223.069 512 241.545V318.528C512 337.014 496.482 352 477.328 352H473.919C462.202 352 451.843 346.386 445.566 337.795L442.495 349.534H394.667V160H445.699V221.659C452.293 213.442 462.455 208.073 473.919 208.073ZM462.993 301.698V256.204C462.993 248.686 462.51 243.753 461.505 241.482C460.499 239.211 456.486 237.754 453.671 237.754C450.856 237.754 446.515 238.938 445.67 240.935V317.946C446.636 320.139 450.776 321.359 453.671 321.359C456.567 321.359 460.781 320.178 461.665 317.946C462.55 315.715 462.993 310.273 462.993 301.698Z" fill="#F8F8F8"/>
</svg>
