<svg width="512" height="512" viewBox="0 0 512 512" fill="none" xmlns="http://www.w3.org/2000/svg">
<g clip-path="url(#clip0_243_2)">
<g clip-path="url(#clip1_243_2)">
<path fill-rule="evenodd" clip-rule="evenodd" d="M56.8889 512H455.111C486.53 512 512 486.53 512 455.111V56.8889C512 25.47 486.53 0 455.111 0H56.8889C25.47 0 0 25.47 0 56.8889V455.111C0 486.53 25.47 512 56.8889 512Z" fill="#F8F8F8"/>
<path fill-rule="evenodd" clip-rule="evenodd" d="M440.889 440.889H364.911V311.482C364.911 276.002 351.43 256.174 323.347 256.174C292.797 256.174 276.836 276.808 276.836 311.482V440.889H203.615V194.37H276.836V227.576C276.836 227.576 298.852 186.839 351.165 186.839C403.454 186.839 440.889 218.77 440.889 284.809V440.889ZM116.262 162.091C91.3213 162.091 71.1111 141.722 71.1111 116.601C71.1111 91.4798 91.3213 71.1111 116.262 71.1111C141.203 71.1111 161.401 91.4798 161.401 116.601C161.401 141.722 141.203 162.091 116.262 162.091ZM78.4537 440.889H154.805V194.37H78.4537V440.889Z" fill="#2B2E31"/>
</g>
</g>
<defs>
<clipPath id="clip0_243_2">
<rect width="512" height="512" fill="white"/>
</clipPath>
<clipPath id="clip1_243_2">
<rect width="512" height="512" fill="white"/>
</clipPath>
</defs>
</svg>
