<svg width="512" height="512" viewBox="0 0 512 512" fill="none" xmlns="http://www.w3.org/2000/svg">
<g clip-path="url(#clip0_243_2)">
<g clip-path="url(#clip1_243_2)">
<mask id="mask0_243_2" style="mask-type:luminance" maskUnits="userSpaceOnUse" x="-34" y="179" width="580" height="154">
<path d="M-34 179H546V333H-34V179Z" fill="white"/>
</mask>
<g mask="url(#mask0_243_2)">
<path d="M482.016 251.324V261.805H489.385V272.204C489.408 273.133 489.358 274.135 489.198 274.937C488.905 276.877 487.062 280.18 481.831 280.18C476.631 280.18 474.821 276.877 474.507 274.937C474.375 274.135 474.318 273.133 474.318 272.204V239.359C474.318 238.197 474.397 236.926 474.643 235.963C475.001 234.213 476.553 230.76 481.792 230.76C487.292 230.76 488.664 234.4 488.979 235.963C489.186 236.999 489.198 238.735 489.198 238.735V242.724H507.305V240.366C507.305 240.366 507.387 237.906 507.167 235.61C505.807 222.129 494.694 217.864 481.952 217.864C469.186 217.864 458.299 222.168 456.713 235.61C456.57 236.839 456.351 239.05 456.351 240.366V270.58C456.351 271.896 456.393 272.914 456.637 275.319C457.819 288.429 469.186 293.077 481.901 293.077C494.694 293.077 505.983 288.429 507.185 275.319C507.398 272.914 507.42 271.896 507.449 270.58V251.324H482.016ZM357.165 219.797H338.981V272.962C339.01 273.888 338.981 274.929 338.822 275.692C338.442 277.477 336.929 280.911 331.912 280.911C326.96 280.911 325.407 277.477 325.056 275.692C324.875 274.929 324.851 273.888 324.875 272.962V219.797H306.696V271.312C306.673 272.639 306.778 275.353 306.856 276.063C308.111 289.487 318.695 293.845 331.912 293.845C345.155 293.845 355.733 289.487 357.011 276.063C357.111 275.353 357.243 272.639 357.165 271.312V219.797ZM190.09 219.797L181.02 275.973L171.955 219.797H142.623L141.068 291.662H159.037L159.524 225.134L171.887 291.662H190.119L202.494 225.134L202.982 291.662H220.997L219.389 219.797H190.09ZM81.4915 219.797L68.1731 291.662H87.5948L97.6311 225.134L107.426 291.662H126.713L113.45 219.797H81.4915ZM420.714 277.657L403.782 219.797H377.101V290.913H394.751L393.726 231.202L411.91 290.913H437.499V219.797H419.733L420.714 277.657ZM257.454 238.5C257.134 237.081 257.227 235.573 257.392 234.785C257.906 232.484 259.453 229.975 263.908 229.975C268.061 229.975 270.495 232.563 270.495 236.446V240.84H288.221V235.831C288.221 220.347 274.332 217.914 264.276 217.914C251.612 217.914 241.269 222.087 239.38 233.738C238.881 236.909 238.757 239.724 239.552 243.315C242.632 257.843 267.934 262.057 271.607 271.244C272.255 272.985 272.069 275.204 271.739 276.512C271.189 278.902 269.579 281.307 264.809 281.307C260.335 281.307 257.642 278.736 257.642 274.862L257.637 267.965H238.557V273.447C238.557 289.333 251.006 294.126 264.414 294.126C277.255 294.126 287.861 289.74 289.562 277.85C290.374 271.707 289.762 267.706 289.436 266.199C286.463 251.299 259.495 246.817 257.454 238.5ZM23.6279 238.324C23.2799 236.875 23.3611 235.346 23.555 234.549C24.0461 232.259 25.6017 229.706 30.1356 229.706C34.3409 229.706 36.817 232.318 36.817 236.233V240.68H54.7505V235.632C54.7505 219.999 40.6493 217.507 30.4837 217.507C17.7129 217.507 7.27775 221.745 5.36854 233.48C4.846 236.701 4.75642 239.535 5.51161 243.166C8.62469 257.859 34.1775 262.108 37.8953 271.405C38.5914 273.133 38.3809 275.353 38.0356 276.711C37.4457 279.127 35.8236 281.566 31.0136 281.566C26.5222 281.566 23.8356 278.95 23.8356 275.022L23.8107 268.107H4.51733V273.602C4.51733 289.67 17.1423 294.501 30.6545 294.501C43.6451 294.501 54.3129 290.077 56.0531 278.05C56.9182 271.851 56.2692 267.816 55.9774 266.286C52.9428 251.203 25.6747 246.736 23.6279 238.324Z" fill="#F8F8F8"/>
</g>
</g>
</g>
<defs>
<clipPath id="clip0_243_2">
<rect width="512" height="512" fill="white"/>
</clipPath>
<clipPath id="clip1_243_2">
<rect width="580" height="154" fill="white" transform="translate(-34 179)"/>
</clipPath>
</defs>
</svg>
