<svg width="512" height="512" viewBox="0 0 512 512" fill="none" xmlns="http://www.w3.org/2000/svg">
<g clip-path="url(#clip0_243_2)">
<path fill-rule="evenodd" clip-rule="evenodd" d="M14.534 329.529C46.0107 432.841 142.073 508.062 255.677 508.062C394.886 508.062 507.739 395.209 507.739 256C507.739 116.791 394.886 3.93848 255.677 3.93848C122.1 3.93848 12.792 107.859 4.15894 239.254C4.19514 239.314 4.23129 239.375 4.26739 239.436C4.26865 239.414 4.2693 239.403 4.2693 239.403L139.713 295.227C143.416 292.721 147.37 290.609 151.513 288.926C161.028 285.011 171.047 283.254 181.035 283.711L242.712 194.111L242.688 192.866H242.609C242.609 139.981 285.562 96.9728 338.353 96.9728C391.247 97.0831 434.097 139.981 434.097 192.866C434.097 245.752 391.168 288.807 338.353 288.807L336.187 288.768L248.021 351.823C248.275 361.695 246.439 371.509 242.633 380.621C235.498 397.727 221.865 411.303 204.729 418.365C187.592 425.428 168.353 425.4 151.237 418.288C129.481 409.23 114.672 390.388 109.946 368.9L14.534 329.529ZM157.357 403.527C184.824 414.972 216.426 401.999 227.879 374.43H227.816C233.346 361.149 233.377 346.443 227.895 333.107C222.413 319.772 212.173 309.342 198.782 303.805C185.565 298.315 171.433 298.472 159.004 303.198L191.299 316.55C201.026 320.614 208.742 328.373 212.751 338.122C216.761 347.872 216.737 358.814 212.685 368.545C210.683 373.362 207.753 377.736 204.06 381.419C200.368 385.103 195.985 388.022 191.164 390.011C186.343 392 181.177 393.02 175.961 393.011C170.746 393.003 165.583 391.967 160.768 389.963L129.599 377.045C135.289 388.979 145.169 398.404 157.357 403.527ZM293.344 238.012C305.3 249.99 321.516 256.742 338.44 256.788C355.366 256.746 371.586 249.996 383.546 238.018C395.505 226.039 402.228 209.809 402.243 192.882C402.224 175.958 395.499 159.732 383.54 147.757C371.581 135.781 355.364 129.034 338.44 128.992C321.519 129.038 305.305 135.787 293.35 147.762C281.394 159.737 274.671 175.961 274.653 192.882C274.667 209.806 281.388 226.034 293.344 238.012ZM304.651 158.862C295.671 167.864 290.632 180.064 290.643 192.78C290.636 205.494 295.67 217.691 304.652 226.69C313.633 235.69 325.82 240.755 338.534 240.774C351.253 240.761 363.446 235.699 372.432 226.699C381.419 217.699 386.464 205.498 386.458 192.78C386.458 166.274 364.961 144.77 338.534 144.77C325.819 144.791 313.631 149.859 304.651 158.862Z" fill="url(#paint0_linear_243_2)"/>
</g>
<defs>
<linearGradient id="paint0_linear_243_2" x1="25183.1" y1="3.93848" x2="25183.1" y2="50416.3" gradientUnits="userSpaceOnUse">
<stop stop-color="#F8F8F8"/>
<stop offset="0.212" stop-color="#F8F8F8"/>
<stop offset="0.407" stop-color="#F8F8F8"/>
<stop offset="0.581" stop-color="#F8F8F8"/>
<stop offset="0.738" stop-color="#F8F8F8"/>
<stop offset="0.873" stop-color="#F8F8F8"/>
<stop offset="1" stop-color="#F8F8F8"/>
</linearGradient>
<clipPath id="clip0_243_2">
<rect width="512" height="512" fill="white"/>
</clipPath>
</defs>
</svg>
