<svg width="512" height="512" viewBox="0 0 512 512" fill="none" xmlns="http://www.w3.org/2000/svg">
<path d="M393.941 86.8359V95.8613C382.1 97.9756 373.138 101.716 367.054 107.082C358.338 115.051 348.061 127.247 341.32 143.671L204.148 425.164H195.021L57.3143 140.012C50.9009 125.377 42.1819 116.433 39.5508 113.18C35.4397 108.139 30.383 104.196 24.3808 101.35C18.3785 98.5041 10.2796 96.6747 0.0839844 95.8613V86.8359H134.076V95.8613C118.618 97.3252 111.249 99.9271 106.644 103.667C102.04 107.408 99.7376 112.205 99.7378 118.059C99.7376 126.19 103.52 138.874 111.084 156.111L212.781 350.034L312.213 158.551C319.941 139.687 326.353 126.596 326.354 119.278C326.353 114.563 323.969 110.05 319.2 105.74C314.431 101.431 309.035 98.3822 297.689 96.5931C296.866 96.4308 295.468 96.1868 293.495 95.8613V86.8359H393.941Z" fill="#F8F8F8"/>
<path d="M511.916 86.8359V95.8613C500.075 97.9756 491.113 101.716 485.029 107.082C476.313 115.051 466.037 127.247 459.295 143.671L338.91 425.164H329.783L202.568 140.012C196.155 125.377 187.436 116.433 184.805 113.18C180.693 108.139 175.637 104.196 169.635 101.35C163.632 98.5041 158.195 96.6747 147.999 95.8613V86.8359H279.33V95.8613C263.872 97.3252 256.503 99.9271 251.898 103.667C247.294 107.408 244.991 112.205 244.992 118.059C244.991 126.19 248.774 138.874 256.338 156.111L347.543 350.034L430.188 158.551C437.916 139.687 444.329 126.596 444.329 119.278C444.329 114.563 441.944 110.05 437.176 105.74C432.406 101.431 424.349 98.3822 413.002 96.5931C412.18 96.4308 410.782 96.1868 408.809 95.8613V86.8359H511.916Z" fill="#F8F8F8"/>
</svg>
