<svg width="103" height="105" viewBox="0 0 103 105" fill="none" xmlns="http://www.w3.org/2000/svg">
<g id="Group">
<path id="Vector" d="M71.4214 78.5643C72.4455 79.1057 73.7697 79.047 74.6829 78.2381L74.7155 78.2707C78.2077 75.1736 81.7369 72.1184 85.3024 69.1059C86.4309 68.1731 86.2352 66.6793 85.3415 65.4334L84.5261 64.3245C82.2757 61.2913 80.1362 58.4147 80.1362 52.6418V31.1159L80.1427 28.9306C80.1949 20.679 80.234 13.1384 74.0567 7.37208C68.7535 2.28413 59.9866 0.496826 53.2679 0.496826C40.137 0.496826 25.4798 5.38909 22.3879 21.6314C22.0813 23.3535 23.3207 24.2667 24.4492 24.5211L37.8475 25.9562C39.0868 25.8974 40 24.6776 40.2349 23.4317C41.3829 17.8415 46.0795 15.141 51.3436 15.141C54.1811 15.141 57.4035 16.1847 59.0929 18.7287C60.815 21.2726 60.7889 24.6646 60.7693 27.7043V30.5223C59.4712 30.6658 58.1145 30.8093 56.7185 30.9463C49.4584 31.6899 41.0829 32.5509 34.8012 35.3167C26.1517 39.0478 20.0657 46.6798 20.0657 57.8863C20.0657 72.2369 29.1131 79.3992 40.7306 79.3992C50.5543 79.3992 55.9162 77.0901 63.4894 69.3538L64.5788 70.9584C66.3661 73.6002 67.5533 75.3615 71.4084 78.5643H71.4214ZM40.2218 55.4924C40.2218 43.7248 50.7695 41.5918 60.7498 41.5918V45.3099C60.7563 50.3718 60.7628 54.6639 58.1666 59.2235C55.9749 63.1047 52.4916 65.4921 48.6104 65.4921C43.3137 65.4921 40.2218 61.4544 40.2218 55.4924ZM3.72556 79.908C20.8746 90.3644 47.4167 106.548 89.7185 86.4114C91.5449 85.6548 92.8169 86.9202 91.0165 89.2229C89.1966 91.5581 74.6764 104.865 50.2673 104.865C25.8842 104.865 7.20233 88.2053 1.50121 81.2909C-0.0643111 79.497 1.73604 78.6817 2.79929 79.3405L3.72556 79.908Z" fill="#F8F8F8"/>
<path id="Vector_2" d="M91.0881 78.4013C94.7866 77.9446 100.664 78.2251 101.818 79.732C102.699 80.88 101.792 86.0332 100.299 89.7317C98.7983 93.4042 96.5674 96.0003 95.328 97.0049C94.0821 98.0094 93.1559 97.6181 93.8277 96.1112C94.5127 94.6109 98.2895 85.2635 96.7957 83.3066C95.4063 81.4932 89.1181 82.152 86.1958 82.4586L85.6087 82.5173C84.9891 82.5695 84.4868 82.6282 84.0889 82.6738C82.8299 82.8108 82.4907 82.85 82.3016 82.4651C81.8189 81.1018 87.383 78.8383 91.0881 78.4013Z" fill="#F8F8F8"/>
</g>
</svg>
