<svg width="98" height="96" viewBox="0 0 98 96" fill="none" xmlns="http://www.w3.org/2000/svg">
<path id="Vector" d="M49 0C22.0118 0 0.152527 21.9028 0.152527 48.9447C0.152527 70.6028 14.1351 88.8959 33.552 95.3811C35.9943 95.8093 36.9102 94.341 36.9102 93.0562C36.9102 91.8938 36.8492 88.0394 36.8492 83.9402C24.5763 86.2039 21.4012 80.9424 20.4242 78.1892C19.8747 76.7821 17.4934 72.4382 15.4174 71.2758C13.7077 70.3581 11.2653 68.0944 15.3563 68.0332C19.203 67.972 21.9507 71.5817 22.8666 73.05C27.2629 80.4529 34.2847 78.3728 37.0934 77.088C37.5208 73.9066 38.8031 71.7652 40.2074 70.5416C29.3389 69.318 17.9818 65.0965 17.9818 46.3751C17.9818 41.0524 19.8747 36.6474 22.9887 33.2212C22.5002 31.9976 20.7906 26.9808 23.4772 20.2509C23.4772 20.2509 27.5682 18.9661 36.9102 25.2677C40.818 24.1665 44.9701 23.6158 49.1221 23.6158C53.2741 23.6158 57.4262 24.1665 61.334 25.2677C70.676 18.9049 74.767 20.2509 74.767 20.2509C77.4536 26.9808 75.744 31.9976 75.2555 33.2212C78.3695 36.6474 80.2624 40.9912 80.2624 46.3751C80.2624 65.1577 68.8443 69.318 57.9757 70.5416C59.7464 72.0711 61.2729 75.0078 61.2729 79.5964C61.2729 86.1428 61.2118 91.4043 61.2118 93.0562C61.2118 94.341 62.1277 95.8705 64.5701 95.3811C74.2677 92.1017 82.6946 85.8573 88.6643 77.527C94.6339 69.1967 97.8457 59.2001 97.8474 48.9447C97.8474 21.9028 75.9882 0 49 0Z" fill="#F8F8F8"/>
</svg>
