<svg width="95" height="97" viewBox="0 0 95 97" fill="none" xmlns="http://www.w3.org/2000/svg">
<path id="Vector" d="M93.7395 39.6413C94.302 42.8869 94.5825 46.1752 94.5777 49.4693C94.5777 64.181 89.3314 76.62 80.2017 85.0397H80.2138C72.2298 92.4318 61.2548 96.7111 48.2416 96.7111C35.4472 96.7111 23.1767 91.6167 14.1296 82.5486C5.08259 73.4804 0 61.1814 0 48.3572C0 35.5329 5.08259 23.2339 14.1296 14.1657C23.1767 5.09761 35.4472 0.00319068 48.2416 0.00319068C60.2172 -0.137388 71.7826 4.37217 80.5153 12.5873L66.7423 26.3924C61.7636 21.6354 55.1191 19.0304 48.2416 19.1393C35.6566 19.1393 24.965 27.6496 21.154 39.1095C19.1333 45.1144 19.1333 51.618 21.154 57.623H21.172C25.0012 69.0647 35.6747 77.575 48.2597 77.575C54.7603 77.575 60.3443 75.9068 64.6739 72.9572H64.6558C67.1699 71.2878 69.3204 69.1252 70.9776 66.5998C72.6349 64.0744 73.7644 61.2387 74.2981 58.2637H48.2416V39.6474L93.7395 39.6413Z" fill="#F8F8F8"/>
</svg>
