<svg width="256" height="256" viewBox="0 0 256 256" fill="none" xmlns="http://www.w3.org/2000/svg">
<g clip-path="url(#clip0_256_14)">
<g clip-path="url(#clip1_256_14)">
<path fill-rule="evenodd" clip-rule="evenodd" d="M170.891 136.993H185.908V117.371H170.891C168.298 117.371 165.885 119.742 165.885 122.277V132.087C165.885 134.622 168.298 136.993 170.891 136.993ZM230.968 136.993H245.986V117.371H230.968C228.376 117.371 225.962 119.742 225.962 122.277V132.087C225.962 134.622 228.376 136.993 230.968 136.993ZM195.922 110.012V144.352C195.922 145.434 194.526 146.806 193.419 146.806L188.413 146.857C187.305 146.857 185.911 145.434 185.911 144.354V142.716L183.638 145.389C182.945 146.312 181.238 146.806 180.069 146.806H170.891C162.836 146.806 155.871 139.961 155.871 132.087V122.277C155.871 114.404 162.836 107.561 170.888 107.561H193.419C194.526 107.561 195.922 108.931 195.922 110.012ZM256 110.012V144.352C256 145.434 254.605 146.806 253.497 146.806L248.491 146.857C247.383 146.857 245.988 145.434 245.988 144.354V142.716L243.715 145.389C243.023 146.312 241.315 146.806 240.146 146.806H230.968C222.914 146.806 215.948 139.961 215.948 132.087V122.277C215.948 114.404 222.914 107.561 230.966 107.561H253.497C254.603 107.561 256 108.931 256 110.012ZM89.1176 117.371H74.0976C71.5053 117.371 69.0917 119.742 69.0917 122.277V132.087C69.0917 134.622 71.5053 136.993 74.0976 136.993H89.1154L89.1176 117.371ZM99.1294 110.012V147.621C99.1294 155.495 92.1636 161.522 84.1117 161.522H76.3682C75.2173 161.522 74.1334 160.994 73.4384 160.096L69.0314 154.397C68.3006 153.45 68.7096 151.711 69.9231 151.711H84.1072C86.6996 151.711 89.1131 150.156 89.1131 147.621V146.806H74.0954C66.0412 146.806 59.0777 139.961 59.0777 132.087V122.277C59.0777 114.404 66.0412 107.561 74.0954 107.561H83.2737C84.4223 107.561 85.6738 108.466 86.485 109.194L89.1154 111.648V110.01C89.1154 108.931 90.5121 107.558 91.6183 107.558H96.6242C97.7327 107.558 99.1272 108.928 99.1272 110.01L99.1294 110.012ZM9.01406 132.09C9.01406 134.624 11.4276 136.995 14.02 136.995H29.0377V117.374H14.02C11.4276 117.374 9.01406 119.745 9.01406 122.279V132.09ZM36.5443 94.4783C37.655 94.4783 39.0495 95.8482 39.0495 96.9321V144.354C39.0495 145.434 37.655 146.806 36.5466 146.806H31.5407C30.4322 146.806 29.0377 145.436 29.0377 144.352V142.716L26.4118 145.469C25.7012 146.243 24.329 146.806 23.1938 146.806H14.0222C5.96582 146.806 -1 139.961 -1 132.087V122.353C-1 114.48 5.96582 107.558 14.0177 107.558H29.0399V96.9343C29.0399 95.8504 30.4345 94.4805 31.5429 94.4805H36.5488L36.5443 94.4783ZM140.015 127.182L153.951 109.898C154.726 108.957 154.04 107.556 152.804 107.556H144.835C144.232 107.556 143.662 107.822 143.28 108.278L129.169 125.546V96.9321C129.169 95.8482 127.773 94.4783 126.666 94.4783H121.661C120.552 94.4783 119.158 95.8482 119.158 96.9321V144.354C119.158 145.434 120.552 146.806 121.661 146.806H126.666C127.773 146.806 129.169 145.434 129.169 144.352V128.818L143.287 146.124C143.666 146.587 144.243 146.857 144.851 146.857H152.811C154.049 146.857 154.733 145.456 153.96 144.515L140.015 127.182ZM106.641 94.4783C105.532 94.4783 104.138 95.8482 104.138 96.9321V101.837C104.138 102.919 105.532 104.289 106.641 104.289H111.646C112.753 104.289 114.149 102.919 114.149 101.837V96.9321C114.149 95.8482 112.753 94.4783 111.646 94.4783H106.641ZM106.641 107.561C105.532 107.561 104.138 108.931 104.138 110.012V144.352C104.138 145.434 105.925 146.855 107.032 146.855L111.646 146.806C112.753 146.806 114.149 145.434 114.149 144.352V110.012C114.149 108.931 112.753 107.561 111.646 107.561H106.641ZM46.5606 94.4783C45.4544 94.4783 44.0577 95.8482 44.0577 96.9321V101.837C44.0577 102.919 45.4544 104.289 46.5606 104.289H51.5666C52.675 104.289 54.0695 102.919 54.0695 101.837V96.9321C54.0695 95.8482 52.675 94.4783 51.5666 94.4783H46.5606ZM46.5606 107.561C45.4544 107.561 44.0577 108.931 44.0577 110.012V144.352C44.0577 145.434 45.4544 146.806 46.5606 146.806H51.5666C52.675 146.806 54.0695 145.434 54.0695 144.352V110.012C54.0695 108.931 52.675 107.561 51.5666 107.561H46.5606ZM210.942 96.9321V144.354C210.942 145.434 209.546 146.806 208.439 146.806H203.433C202.325 146.806 200.93 145.434 200.93 144.352V96.9298C200.93 95.8482 202.325 94.4783 203.433 94.4783H208.439C209.546 94.4783 210.942 95.8482 210.942 96.9321Z" fill="white"/>
</g>
</g>
<defs>
<clipPath id="clip0_256_14">
<rect width="256" height="256" fill="white"/>
</clipPath>
<clipPath id="clip1_256_14">
<rect width="257" height="67.0435" fill="white" transform="translate(-1 94.4783)"/>
</clipPath>
</defs>
</svg>
