<svg width="256" height="256" viewBox="0 0 256 256" fill="none" xmlns="http://www.w3.org/2000/svg">
<g clip-path="url(#clip0_256_14)">
<mask id="mask0_256_14" style="mask-type:luminance" maskUnits="userSpaceOnUse" x="0" y="92" width="256" height="72">
<path d="M256 92.5211H0.268188V163.666H256V92.5211Z" fill="white"/>
</mask>
<g mask="url(#mask0_256_14)">
<path d="M154.099 145.553H153.885C153.914 145.592 153.977 145.592 154.026 145.592C154.05 145.595 154.075 145.595 154.099 145.592" fill="white"/>
</g>
<path d="M256 111.17H0.268188V144.235H256V111.17Z" fill="white"/>
<mask id="mask1_256_14" style="mask-type:luminance" maskUnits="userSpaceOnUse" x="0" y="92" width="256" height="72">
<path d="M256 92.5211H0.268188V163.666H256V92.5211Z" fill="white"/>
</mask>
<g mask="url(#mask1_256_14)">
<path d="M32.5461 130.429C32.562 131.342 32.4403 132.252 32.1853 133.128C31.8781 134.343 31.5318 135.542 31.1173 136.722C30.7619 137.783 30.3468 138.822 29.8738 139.834C29.4314 140.722 28.8986 141.561 28.284 142.337C27.8646 142.865 27.3719 143.328 26.8211 143.714C25.5893 144.586 24.2541 145.3 22.8467 145.838C21.7494 146.266 20.6181 146.595 19.5013 146.954C19.2819 147.021 19.0517 147.044 18.8235 147.023C18.7992 147.021 18.7753 147.015 18.7533 147.005C18.7313 146.994 18.7115 146.979 18.6952 146.961C18.6789 146.943 18.6664 146.921 18.6582 146.898C18.6501 146.875 18.6466 146.851 18.6479 146.826C18.6447 146.71 18.6752 146.595 18.7357 146.497C18.8564 146.282 19.0039 146.084 19.1746 145.907C19.5367 145.526 19.9245 145.171 20.3352 144.845C21.5641 143.861 22.7735 142.907 23.9439 141.895C24.4944 141.431 25.0201 140.939 25.519 140.42C26.183 139.736 26.7913 138.999 27.338 138.217C27.6354 137.821 27.8254 137.353 27.889 136.86C27.9144 136.541 27.8831 136.219 27.7964 135.911C27.6347 135.288 27.3585 134.701 26.982 134.18C26.5333 133.571 26.114 132.941 25.6361 132.356C24.9886 131.55 24.2394 130.833 23.4075 130.222L23.2075 130.08C23.1616 130.044 23.1273 129.996 23.109 129.941C23.0907 129.886 23.0894 129.826 23.1051 129.77C23.1215 129.706 23.1444 129.643 23.1734 129.583L24.5096 126.633C24.9046 125.743 25.2849 124.853 25.6751 123.963L26.4846 122.164C26.5967 121.908 26.6991 121.672 26.8113 121.392C26.9235 121.112 27.0844 121.063 27.3477 121.244C27.6111 121.426 27.772 121.549 27.9768 121.736C28.9604 122.528 29.8432 123.44 30.6053 124.45C31.1673 125.203 31.6235 126.03 31.961 126.909C32.1923 127.506 32.3559 128.128 32.4486 128.762C32.5231 129.326 32.5573 129.894 32.551 130.463M33.4532 131.112C33.5527 129.689 33.372 128.261 32.9216 126.909C32.3907 125.4 31.5612 124.017 30.4834 122.842C29.7021 121.954 28.8199 121.162 27.8549 120.482C27.7349 120.396 27.6077 120.32 27.4745 120.256C27.2877 120.168 27.078 120.142 26.8756 120.182C26.6732 120.222 26.4885 120.325 26.348 120.477C26.2245 120.608 26.1268 120.762 26.0603 120.93C25.9043 121.274 25.7531 121.623 25.5727 121.967C24.9582 123.37 24.3405 124.77 23.7196 126.166C23.2319 127.233 22.7443 128.295 22.2956 129.362C22.1615 129.612 22.1271 129.903 22.1997 130.178C22.2722 130.452 22.4461 130.688 22.6857 130.837C22.7562 130.879 22.8231 130.926 22.8857 130.98C23.5713 131.485 24.1965 132.069 24.7485 132.72C25.3044 133.354 25.758 134.057 26.2603 134.731C26.5739 135.154 26.8025 135.635 26.9332 136.147C27.0254 136.47 27.0134 136.814 26.8991 137.13C26.8233 137.342 26.7183 137.543 26.587 137.725C26.1501 138.343 25.6728 138.931 25.1582 139.485C24.3135 140.38 23.411 141.218 22.4565 141.993C21.4373 142.844 20.3791 143.645 19.3794 144.52C19.3063 144.584 19.2331 144.658 19.1258 144.638C19.1263 144.679 19.1178 144.72 19.1009 144.757C19.0841 144.795 19.0593 144.828 19.0283 144.854L18.6772 145.199C18.4078 145.462 18.1734 145.759 17.9799 146.084C17.8072 146.335 17.7326 146.641 17.7704 146.944C17.8082 147.247 17.9557 147.526 18.1847 147.726C18.3236 147.838 18.4943 147.904 18.6723 147.913C19.0138 147.94 19.3574 147.905 19.6866 147.809C20.5254 147.539 21.3739 147.288 22.2078 147.003C23.7918 146.477 25.3078 145.763 26.7235 144.874C26.8747 144.781 27.0405 144.712 27.2112 144.633C27.3251 144.492 27.46 144.369 27.6111 144.269C28.0468 143.935 28.4457 143.554 28.8009 143.134C29.5741 142.191 30.2292 141.155 30.7516 140.051C31.2688 138.913 31.723 137.748 32.1121 136.56C32.4584 135.513 32.7461 134.451 33.0436 133.389C33.2634 132.629 33.404 131.848 33.4629 131.058M69.5154 128.6C69.2667 128.949 69.0277 129.303 68.7595 129.632C67.625 131.068 66.1534 132.195 64.4779 132.912C63.7643 133.198 63.0167 133.388 62.2542 133.477C62.2055 133.482 62.1565 133.482 62.1079 133.477C62.0298 133.477 61.9372 133.507 61.8933 133.408C61.8494 133.31 61.8933 133.285 61.9518 133.231C62.181 132.872 62.4053 132.509 62.6394 132.155C63.2977 131.171 63.9756 130.188 64.7071 129.205C65.0998 128.657 65.5812 128.18 66.131 127.794C66.4779 127.537 66.9005 127.405 67.3307 127.42C68.0677 127.436 68.7803 127.689 69.3642 128.143C69.4046 128.17 69.4408 128.203 69.4715 128.241C69.6031 128.374 69.6178 128.438 69.5154 128.585M70.003 129.45C70.1639 129.219 70.3151 128.983 70.4565 128.747C70.5174 128.648 70.5497 128.534 70.5497 128.418C70.5497 128.302 70.5174 128.187 70.4565 128.089C70.2889 127.746 70.0241 127.462 69.6958 127.272C69.1113 126.91 68.4671 126.657 67.7939 126.525C67.2775 126.439 66.7473 126.506 66.2676 126.717C65.4312 127.097 64.707 127.69 64.1658 128.438C63.0631 129.867 62.036 131.354 61.0887 132.892C60.9472 133.113 60.7863 133.325 60.6546 133.551C60.5996 133.623 60.5655 133.709 60.556 133.799C60.5465 133.89 60.5621 133.981 60.601 134.063C60.64 134.145 60.7007 134.215 60.7764 134.264C60.8522 134.313 60.94 134.341 61.0301 134.343C61.2837 134.382 61.5519 134.372 61.8104 134.387C62.399 134.388 62.9849 134.307 63.5513 134.146C64.5171 133.894 65.4406 133.5 66.292 132.976C66.8738 132.611 67.428 132.204 67.95 131.756C68.7268 131.077 69.4164 130.302 70.003 129.45ZM77.1862 128.821C77.8364 128.028 78.4866 127.241 79.1368 126.461C79.3632 126.2 79.6025 125.951 79.8537 125.714C80.1979 125.407 80.6382 125.233 81.0972 125.222C81.7174 125.177 82.3408 125.238 82.9405 125.404C83.3816 125.524 83.8294 125.618 84.2816 125.684C84.6389 125.735 85.003 125.674 85.3253 125.511C85.6477 125.348 85.913 125.089 86.0859 124.77C86.2897 124.411 86.4377 124.023 86.5248 123.619C86.608 123.079 86.5405 122.525 86.3297 122.021C86.0438 121.305 85.6435 120.641 85.1447 120.055C85.1047 120.002 85.0607 119.953 85.0131 119.907C84.9745 119.846 84.923 119.794 84.8623 119.756C84.8016 119.717 84.7331 119.692 84.6618 119.683C84.5906 119.674 84.5182 119.681 84.4499 119.704C84.3817 119.727 84.3192 119.764 84.267 119.814C83.9483 120.012 83.5988 120.155 83.2331 120.237C82.8677 120.325 82.492 120.363 82.1164 120.35C81.5286 120.373 80.9401 120.321 80.3657 120.192C79.8343 120.06 79.3744 119.725 79.0832 119.258C78.9137 118.937 78.8266 118.579 78.8296 118.216C78.7945 117.241 78.9865 116.271 79.3904 115.384C79.9171 114.125 80.4486 112.866 80.9948 111.618C81.2519 111.011 81.5569 110.425 81.9067 109.867C82.1774 109.455 82.5059 109.084 82.882 108.766C83.2177 108.488 83.6119 108.292 84.0345 108.191C84.4571 108.09 84.8969 108.089 85.3203 108.186C85.9339 108.309 86.4994 108.608 86.9491 109.046C88.4027 110.271 89.4282 111.934 89.875 113.791C90.183 114.887 90.3066 116.027 90.2408 117.164C90.2408 117.444 90.2408 117.724 90.2408 118.004C90.2484 118.482 90.1993 118.959 90.0945 119.425C89.9677 120.099 89.8311 120.777 89.6507 121.441C89.0458 123.635 88.1554 125.738 87.0027 127.695C86.4769 128.666 85.804 129.549 85.0082 130.311C84.6928 130.628 84.304 130.861 83.8768 130.989C83.7353 131.029 83.5896 131.052 83.4428 131.058H82.5602C82.2659 131.047 81.9757 130.986 81.7019 130.876L80.6339 130.512C80.3537 130.419 80.051 130.419 79.7708 130.512C78.9173 130.774 78.1614 131.288 77.6007 131.987C77.4008 132.223 77.1959 132.479 76.9765 132.681C76.3084 133.359 75.6403 134.038 74.9527 134.697C74.0883 135.498 73.1585 136.225 72.1731 136.87C70.9788 137.681 69.704 138.365 68.3694 138.91C67.1762 139.399 65.962 139.836 64.7266 140.223C64.1365 140.41 63.5513 140.621 62.9466 140.759C62.4691 140.911 61.9797 141.023 61.4837 141.093C61.3191 141.119 61.1563 141.156 60.996 141.201C60.2119 141.357 59.4153 141.439 58.6162 141.447C58.1578 141.447 57.6994 141.447 57.2411 141.447C55.6649 141.415 54.1261 140.958 52.7839 140.125C52.5888 140.002 52.384 139.903 52.1792 139.795C52.0857 139.742 51.9782 139.72 51.8716 139.732C51.765 139.743 51.6646 139.788 51.5842 139.859C51.4533 139.957 51.3395 140.077 51.2478 140.213L48.5364 144.146C48.3218 144.456 48.1365 144.791 47.9317 145.13C47.4408 145.871 46.861 146.548 46.2054 147.146C45.8786 147.444 45.5242 147.711 45.1472 147.942C44.6929 148.194 44.1973 148.36 43.6842 148.434C43.2038 148.539 42.7126 148.585 42.2212 148.571C42.1401 148.564 42.0585 148.564 41.9774 148.571C41.9139 148.591 41.8485 148.604 41.7824 148.611C40.7388 148.562 39.6854 148.532 38.754 147.957C38.4549 147.788 38.1794 147.58 37.9347 147.337C37.7055 147.096 37.4471 146.88 37.252 146.629C36.7569 146.013 36.3724 145.314 36.1158 144.564C35.879 143.88 35.6899 143.18 35.5501 142.47C35.4623 142.052 35.4233 141.624 35.3502 141.206C35.2577 140.603 35.2136 139.993 35.2185 139.382C35.1835 139.189 35.1607 138.993 35.1502 138.797C35.2575 138.03 35.1844 137.248 35.3258 136.486C35.3258 136.437 35.3258 136.388 35.3258 136.339C35.4233 135.277 35.4965 134.21 35.6281 133.148C35.6866 132.656 35.7208 132.199 35.7939 131.727C35.8671 131.255 35.8866 130.876 35.9402 130.453C36.0231 129.849 36.1012 129.249 36.1743 128.644C36.2279 128.202 36.267 127.759 36.3206 127.322C36.3791 126.795 36.4425 126.274 36.5059 125.753C36.5693 125.232 36.6327 124.706 36.701 124.185C36.7692 123.664 36.8424 123.246 36.8912 122.769C36.9399 122.292 36.9936 121.889 37.0423 121.446C37.1106 120.876 37.1984 120.305 37.2667 119.735C37.3203 119.297 37.3593 118.855 37.4178 118.412C37.4959 117.877 37.5739 117.341 37.6422 116.8C37.6958 116.377 37.7397 115.954 37.7933 115.526C37.847 115.099 37.8909 114.681 37.9543 114.258C37.9742 114.144 38.0087 114.033 38.0567 113.928C38.3054 113.284 38.5833 112.65 38.8125 112.001C39.1197 111.131 39.4757 110.28 39.7878 109.425C40.2462 108.281 40.7046 107.143 41.163 106.013C41.2446 105.778 41.3578 105.557 41.4995 105.354C41.5187 105.327 41.545 105.307 41.5754 105.296C41.6057 105.285 41.6387 105.283 41.6702 105.29C41.7025 105.296 41.7314 105.314 41.7512 105.34C41.7711 105.367 41.7805 105.399 41.7775 105.432C41.7945 105.63 41.7945 105.829 41.7775 106.027C41.6799 106.691 41.5629 107.355 41.4605 108.024C41.4166 108.333 41.3825 108.643 41.3337 108.953C41.2167 109.666 41.1386 110.384 41.0362 111.101C40.9972 111.411 40.9338 111.716 40.8753 112.026C40.7534 112.689 40.6998 113.358 40.573 114.022C40.5047 114.356 40.4949 114.705 40.4413 115.049C40.3243 115.826 40.2511 116.613 40.1487 117.395C40.1048 117.754 40.0365 118.113 39.978 118.467C39.9619 118.531 39.9505 118.597 39.9439 118.663C39.9098 119.322 39.7927 119.966 39.7001 120.63C39.6513 121.004 39.6123 121.382 39.5781 121.756C39.505 122.661 39.3392 123.55 39.2709 124.455C39.2487 124.898 39.19 125.339 39.0954 125.773C39.0716 125.985 39.0602 126.198 39.0612 126.412C38.993 126.987 38.9101 127.558 38.8467 128.128C38.8467 128.374 38.8467 128.62 38.8125 128.87C38.7352 129.623 38.6994 130.38 38.7052 131.137C38.7343 131.992 38.8273 132.843 38.9832 133.684C39.0764 134.202 39.2068 134.713 39.3733 135.213C39.6434 136.008 40.0261 136.76 40.5096 137.445C40.8842 137.967 41.3543 138.413 41.8945 138.758C42.6286 139.257 43.4599 139.592 44.3328 139.741C44.7639 139.835 45.2004 139.903 45.6397 139.943C46.5727 139.963 47.4976 139.764 48.3413 139.362C49.0113 139.09 49.5971 138.641 50.0384 138.064C50.3261 137.666 50.6041 137.258 50.8771 136.845C51.2087 136.353 51.5355 135.862 51.8525 135.37C52.1967 134.847 52.6046 134.37 53.0667 133.949C53.3523 133.675 53.7305 133.52 54.1249 133.517C54.6829 133.509 55.2341 133.641 55.7293 133.9C56.1021 134.106 56.5031 134.255 56.9192 134.343C57.2481 134.433 57.5879 134.476 57.9286 134.47C58.1759 134.452 58.415 134.373 58.625 134.241C58.835 134.108 59.0095 133.925 59.1332 133.708L59.6208 132.809C59.7086 132.651 59.811 132.504 59.9085 132.346C60.6108 131.181 61.2984 130.001 62.0152 128.841C62.9649 127.299 64.0946 125.878 65.38 124.608C65.7312 124.263 66.0725 123.909 66.4383 123.58C67.0584 123.013 67.7941 122.59 68.5937 122.341C68.911 122.244 69.2382 122.185 69.569 122.164C70.1055 122.108 70.6475 122.141 71.1734 122.262C71.3967 122.313 71.6106 122.4 71.8073 122.518C72.1417 122.727 72.4398 122.989 72.69 123.295C72.9592 123.61 73.1185 124.005 73.1435 124.421C73.2216 125.276 73.2216 126.137 73.1435 126.992C73.0301 127.924 72.8058 128.838 72.4754 129.716C72.0474 130.909 71.4758 132.045 70.7735 133.099C70.6166 133.369 70.4077 133.604 70.1591 133.792C70.0656 133.863 70.004 133.969 69.9875 134.086C69.9711 134.203 70.0012 134.322 70.0713 134.416C70.0958 134.459 70.1288 134.497 70.1683 134.527C70.2078 134.557 70.2529 134.578 70.3009 134.59C70.3489 134.601 70.3987 134.603 70.4473 134.594C70.4959 134.585 70.5422 134.567 70.5833 134.539C70.6223 134.539 70.676 134.49 70.6955 134.451C70.8593 134.243 71.0677 134.074 71.3051 133.959C72.5221 133.154 73.6912 132.277 74.8064 131.334C75.6754 130.585 76.4692 129.751 77.1764 128.846M76.9716 127.671C76.3621 128.403 75.7769 129.146 75.099 129.824C74.7657 130.173 74.4123 130.501 74.0408 130.807L72.8607 131.791C72.8022 131.84 72.729 131.899 72.6461 131.825C72.5632 131.751 72.6217 131.702 72.6461 131.643C72.6705 131.584 72.6998 131.52 72.7241 131.461C73.093 130.624 73.3979 129.759 73.6361 128.875C73.9399 127.831 74.0926 126.748 74.0896 125.66C74.0896 125.497 74.0896 125.33 74.0896 125.168C74.0945 124.708 74.0354 124.25 73.914 123.806C73.79 123.311 73.5434 122.856 73.1972 122.484C72.8397 122.085 72.4022 121.767 71.9138 121.552C71.4253 121.337 70.897 121.228 70.3639 121.235H69.7348C69.2368 121.232 68.7421 121.315 68.2718 121.48C67.2129 121.836 66.2487 122.432 65.4532 123.221C63.9518 124.622 62.6313 126.208 61.5227 127.941C60.7766 129.121 60.0597 130.331 59.3526 131.525C59.0405 132.046 58.6845 132.543 58.4212 133.094C58.3585 133.248 58.2442 133.375 58.0981 133.454C57.952 133.532 57.7833 133.556 57.6214 133.521C57.1002 133.471 56.5927 133.325 56.1243 133.089C55.5063 132.743 54.8069 132.573 54.1005 132.597C53.4622 132.604 52.8503 132.855 52.3889 133.3C51.8714 133.782 51.4159 134.327 51.0332 134.923C50.5455 135.68 50.0579 136.432 49.541 137.184C49.3208 137.534 49.038 137.839 48.7071 138.084C48.0006 138.6 47.1636 138.903 46.2932 138.959C45.2469 139.033 44.1977 138.865 43.2258 138.468C42.5834 138.212 42.0066 137.814 41.5385 137.302C40.9403 136.622 40.4901 135.823 40.217 134.957C39.907 134.019 39.7233 133.044 39.6708 132.056C39.5956 130.744 39.6315 129.429 39.7781 128.123C39.8902 127.076 40.0122 126.033 40.1292 124.986C40.2267 124.15 40.3243 123.319 40.4169 122.484L40.534 121.456C40.5778 121.063 40.6169 120.669 40.6656 120.276C40.7827 119.361 40.9046 118.452 41.0314 117.537C41.1143 116.903 41.2069 116.269 41.2947 115.63C41.3971 114.897 41.5093 114.155 41.597 113.432C41.6604 112.876 41.7336 112.321 41.836 111.77C41.8287 111.705 41.8287 111.639 41.836 111.573C42.0359 110.172 42.2408 108.776 42.4504 107.375C42.509 106.966 42.5724 106.563 42.6309 106.155C42.6651 105.843 42.6651 105.528 42.6309 105.216C42.62 105.034 42.551 104.859 42.4342 104.719C42.3173 104.579 42.1589 104.481 41.9823 104.439C41.7701 104.372 41.542 104.375 41.3315 104.447C41.1209 104.52 40.9389 104.658 40.8119 104.842C40.718 104.976 40.6348 105.118 40.5632 105.265C40.4559 105.487 40.3633 105.718 40.2706 105.944L38.1347 111.357C38.0982 111.503 38.028 111.637 37.9299 111.75C37.8042 112.207 37.6411 112.653 37.4422 113.083C37.1761 113.721 37.0116 114.398 36.9546 115.089C36.8814 115.757 36.7985 116.426 36.7107 117.095C36.6034 117.931 36.4767 118.757 36.3694 119.592C36.2279 120.669 36.106 121.746 35.9744 122.823C35.9402 123.083 35.9061 123.344 35.8768 123.609C35.7939 124.313 35.7208 125.016 35.6379 125.719C35.5257 126.614 35.3941 127.508 35.2868 128.408C35.1795 129.308 35.0673 130.306 34.96 131.255C34.8625 132.12 34.765 132.986 34.6723 133.851C34.6284 134.244 34.6089 134.642 34.5553 135.031C34.4334 135.881 34.3749 136.732 34.3115 137.588C34.2472 138.591 34.2685 139.597 34.3749 140.597C34.4575 141.449 34.5943 142.294 34.7845 143.129C34.9064 143.62 35.0673 144.142 35.2087 144.648L35.3843 145.056C35.7822 146.084 36.3885 147.017 37.1642 147.795C38.0206 148.644 39.1249 149.194 40.3145 149.363C41.6267 149.542 42.9602 149.479 44.2499 149.176C44.8575 149.046 45.435 148.801 45.9518 148.453C46.328 148.194 46.682 147.903 47.01 147.583C47.7376 146.873 48.3778 146.078 48.9168 145.213C49.0261 144.991 49.1768 144.793 49.3605 144.628C49.3995 144.537 49.4435 144.449 49.4922 144.363C50.2871 143.217 51.082 142.067 51.8817 140.921C52.0329 140.705 52.0621 140.705 52.2718 140.833L52.3547 140.887C53.8075 141.789 55.4674 142.298 57.1728 142.362C57.9564 142.404 58.7421 142.388 59.5233 142.313C60.4969 142.213 61.4629 142.049 62.4151 141.821C63.9843 141.431 65.531 140.953 67.0478 140.39C68.0815 140.025 69.0942 139.601 70.081 139.122C71.8039 138.281 73.4132 137.222 74.8698 135.97C75.8721 135.123 76.8155 134.208 77.6934 133.231C78.0152 132.863 78.3614 132.514 78.7028 132.16C78.9344 131.929 79.1991 131.735 79.4879 131.584C79.6743 131.48 79.8802 131.415 80.0925 131.395C80.3049 131.374 80.5192 131.399 80.7217 131.466C80.9104 131.522 81.096 131.587 81.2776 131.663C81.8728 131.896 82.5069 132.011 83.1454 132.002C84.0038 132.007 84.8326 131.686 85.4666 131.102C86.0814 130.559 86.624 129.938 87.0807 129.254C87.7824 128.181 88.4066 127.059 88.9485 125.896C89.7427 124.214 90.3573 122.452 90.7821 120.64C90.904 120.148 91.0064 119.607 91.0795 119.086C91.1919 118.257 91.2294 117.419 91.1917 116.583C91.1624 116.008 91.1137 115.433 91.0356 114.863C90.8778 113.786 90.5725 112.737 90.1286 111.745C90.0554 111.618 89.9774 111.495 89.9091 111.367C89.2962 110.205 88.4686 109.172 87.4709 108.323C86.6712 107.595 85.6219 107.209 84.5449 107.247C83.8434 107.266 83.1638 107.497 82.5943 107.91C81.9153 108.369 81.3524 108.982 80.9509 109.7C80.6681 110.236 80.4047 110.782 80.1316 111.323C80.0774 111.478 79.9965 111.623 79.8927 111.75C79.8823 111.815 79.8642 111.877 79.839 111.937C79.3172 113.127 78.7955 114.322 78.3371 115.536C77.9689 116.49 77.8221 117.516 77.9079 118.535C77.9677 119.12 78.2026 119.673 78.5816 120.12C78.9605 120.567 79.4654 120.887 80.0292 121.038C80.7285 121.205 81.4472 121.274 82.1652 121.244C82.8876 121.262 83.6045 121.114 84.2621 120.812C84.4523 120.718 84.4864 120.728 84.6327 120.91C84.9135 121.255 85.148 121.635 85.3301 122.041C85.5032 122.379 85.5936 122.754 85.5936 123.135C85.5936 123.516 85.5032 123.891 85.3301 124.229C85.2567 124.393 85.1334 124.529 84.9782 124.617C84.823 124.705 84.6439 124.742 84.4669 124.721C84.0757 124.692 83.6875 124.632 83.3063 124.539C82.6411 124.371 81.9585 124.283 81.2728 124.278C80.8553 124.275 80.4414 124.357 80.0554 124.517C79.6694 124.677 79.319 124.914 79.0247 125.212C78.2639 125.965 77.6397 126.835 76.9521 127.671M96.8095 114.922C96.7168 115.605 96.7266 116.397 96.6534 117.149C96.6047 117.611 96.6144 118.073 96.5608 118.526C96.4632 119.297 96.4828 120.074 96.3608 120.841C96.3218 121.097 96.3608 121.367 96.3267 121.628C96.2828 122.302 96.2633 122.98 96.1755 123.649C96.1024 124.204 96.1414 124.77 96.0536 125.32C95.9415 126.019 96.0097 126.732 95.8683 127.435C95.8372 127.729 95.8209 128.024 95.8195 128.32C95.7464 128.974 95.7415 129.637 95.6781 130.286C95.6294 130.744 95.6342 131.206 95.5708 131.663C95.5078 132.323 95.4101 132.98 95.2782 133.63C95.1173 134.298 95.0052 134.982 94.8491 135.65C94.6931 136.319 94.4736 137.047 94.2493 137.735C93.7869 139.143 93.2531 140.527 92.6498 141.88C92.3377 142.583 92.0109 143.281 91.6745 143.979C91.302 144.803 90.8684 145.597 90.3773 146.354C90.2651 146.521 90.1432 146.674 90.0262 146.846C89.9806 146.904 89.9206 146.95 89.8521 146.977C89.7836 147.005 89.7091 147.014 89.6361 147.003C89.4946 147.003 89.4069 146.929 89.402 146.797C89.3767 146.535 89.3932 146.271 89.4507 146.015C89.6556 145.371 89.8604 144.727 90.0359 144.078C90.2115 143.429 90.3773 142.706 90.5236 142.018C90.6699 141.329 90.8064 140.631 90.9576 139.943C91.0259 139.638 91.06 139.328 91.1185 139.018C91.2795 138.163 91.4014 137.302 91.5233 136.442C91.6598 135.483 91.7866 134.52 91.9037 133.561C92.0061 132.725 92.0841 131.889 92.1572 131.053C92.2596 129.839 92.3279 128.624 92.4108 127.41C92.4547 126.771 92.4693 126.127 92.484 125.488C92.4964 125.026 92.5939 124.571 92.7717 124.145C93.1374 123.26 93.4056 122.346 93.7177 121.446C94.2054 120.03 94.6931 118.614 95.21 117.208C95.4733 116.48 95.7805 115.772 96.078 115.059C96.1989 114.79 96.36 114.541 96.5559 114.322C96.5998 114.273 96.6486 114.223 96.7217 114.238C96.7948 114.253 96.8144 114.356 96.8192 114.435C96.8241 114.514 96.8192 114.7 96.8192 114.927M97.7116 115.212C97.7116 114.868 97.7458 114.518 97.7116 114.174C97.7041 113.992 97.6431 113.816 97.5363 113.669C97.4295 113.522 97.2818 113.411 97.1118 113.348C96.892 113.279 96.6568 113.276 96.4356 113.341C96.2144 113.406 96.0171 113.535 95.8683 113.712C95.8147 113.776 95.7708 113.845 95.722 113.914C95.4724 114.261 95.2645 114.638 95.1027 115.035C94.4444 116.598 93.8933 118.201 93.3374 119.799C93.0838 120.532 92.8497 121.274 92.5913 121.997C92.3328 122.72 92.0743 123.472 91.811 124.185C91.6611 124.586 91.5819 125.01 91.5769 125.438C91.5769 126.422 91.4843 127.346 91.4501 128.305C91.4501 128.452 91.4501 128.6 91.4501 128.747C91.3656 129.75 91.2811 130.75 91.1966 131.747C91.1234 132.518 91.06 133.29 90.9674 134.057C90.8601 134.908 90.7187 135.754 90.6065 136.599C90.4748 137.543 90.3041 138.482 90.1188 139.421C89.8799 140.754 89.5873 142.072 89.2752 143.384C89.195 143.82 89.0708 144.247 88.9046 144.658C88.9362 144.75 88.9362 144.851 88.9046 144.943C88.8119 145.208 88.729 145.474 88.6412 145.739C88.535 146.088 88.4937 146.453 88.5193 146.816C88.5265 147.064 88.6217 147.301 88.7875 147.485C89.0115 147.717 89.3152 147.854 89.6361 147.868C89.9571 147.881 90.2712 147.771 90.5138 147.559C90.7811 147.314 91.0082 147.029 91.1868 146.713L92.1621 145.002C92.2179 144.865 92.3009 144.741 92.4059 144.638C92.4275 144.558 92.4536 144.479 92.484 144.402C92.8448 143.611 93.2203 142.824 93.5714 142.022C94.0591 140.892 94.5468 139.751 94.9271 138.581C95.2197 137.706 95.4782 136.821 95.7123 135.931C96.0567 134.626 96.3077 133.299 96.4632 131.958C96.5461 131.235 96.6095 130.512 96.6486 129.79C96.712 128.541 96.8436 127.297 96.9314 126.048C97.0045 125.065 97.0826 124.081 97.146 123.098C97.1996 122.311 97.2581 121.525 97.3313 120.738C97.4142 119.799 97.4727 118.865 97.5361 117.931C97.5849 117.223 97.6141 116.515 97.658 115.807C97.658 115.61 97.7019 115.413 97.7116 115.217M196.852 134.126C196.872 134.356 196.833 134.587 196.739 134.797C196.645 135.007 196.499 135.189 196.316 135.326C195.964 135.596 195.583 135.823 195.179 136.004C194.665 136.276 194.138 136.522 193.599 136.742C192.79 137.096 191.961 137.403 191.117 137.661C190.791 137.75 190.469 137.883 190.142 137.986C189.24 138.281 188.323 138.527 187.416 138.787C185.953 139.195 184.49 139.549 183.027 139.894C182.091 140.115 181.159 140.385 180.204 140.498C179.784 140.562 179.375 140.685 178.96 140.769L177.185 141.113C177.073 141.113 176.966 141.177 176.853 141.201L175.312 141.472L174.639 141.6C174.079 141.708 173.523 141.821 172.962 141.924C172.401 142.027 171.801 142.116 171.221 142.214C170.641 142.313 170.07 142.435 169.49 142.509C168.792 142.598 168.115 142.785 167.412 142.839C167.134 142.839 166.866 142.922 166.593 142.966C165.706 143.114 164.828 143.301 163.935 143.399C163.209 143.483 162.472 143.63 161.756 143.709C161.039 143.788 160.405 143.91 159.727 144.014C159.308 144.078 158.883 144.112 158.464 144.186C157.679 144.319 156.889 144.412 156.094 144.52C155.06 144.663 154.031 144.815 152.992 144.933C152.358 145.002 151.729 145.095 151.1 145.169C150.471 145.243 149.93 145.282 149.345 145.341C148.857 145.39 148.369 145.454 147.882 145.503C147.57 145.538 147.262 145.558 146.95 145.587L145.487 145.739C145.375 145.739 145.263 145.774 145.146 145.784C144.137 145.867 143.127 145.966 142.118 146.025C140.928 146.089 139.738 146.231 138.543 146.207C137.621 146.359 136.685 146.305 135.759 146.369C134.832 146.433 133.808 146.418 132.833 146.457C131.37 146.516 129.907 146.551 128.468 146.521C127.493 146.521 126.517 146.521 125.571 146.521C124.416 146.521 123.255 146.457 122.094 146.388C121.509 146.354 120.914 146.388 120.334 146.285C119.456 146.172 118.574 146.226 117.696 146.098C117.247 146.034 116.784 146.059 116.325 146.034C115.735 146 115.15 145.961 114.565 145.912C113.59 145.838 112.614 145.779 111.639 145.671C110.664 145.562 109.567 145.435 108.538 145.238C107.738 145.09 106.933 144.943 106.153 144.717C104.998 144.414 103.867 144.027 102.769 143.556C102.515 143.438 102.257 143.345 101.998 143.242C101.272 142.939 100.586 142.548 99.9549 142.077C99.5149 141.758 99.1365 141.362 98.8381 140.906C98.5735 140.526 98.4214 140.077 98.3992 139.613C98.3632 139.336 98.342 139.057 98.3358 138.777C98.3676 137.989 98.4954 137.208 98.7162 136.452C99.1223 135.183 99.6111 133.943 100.179 132.74C100.637 131.826 101.202 130.971 101.862 130.193C102.871 128.964 103.885 127.735 104.929 126.535C105.417 125.95 105.958 125.384 106.494 124.834C107.424 123.904 108.458 123.087 109.576 122.4C109.858 122.233 110.148 122.08 110.444 121.943C111.39 121.49 112.307 120.959 113.204 120.443C114.102 119.927 115.033 119.347 115.911 118.747C116.902 118.103 117.808 117.334 118.608 116.461C119.255 115.725 119.852 114.944 120.393 114.125C120.88 113.427 121.304 112.719 121.748 112.006C121.895 111.77 121.992 111.514 122.124 111.259C122.195 111.129 122.276 111.006 122.368 110.89C122.42 110.827 122.483 110.774 122.553 110.733C122.582 110.717 122.615 110.708 122.648 110.708C122.681 110.708 122.714 110.717 122.743 110.733C122.771 110.749 122.794 110.773 122.808 110.801C122.823 110.83 122.829 110.863 122.826 110.895C122.818 111.126 122.79 111.357 122.743 111.583C122.582 112.202 122.376 112.808 122.129 113.397C121.787 114.169 121.426 114.927 121.026 115.664C120.436 116.76 119.841 117.862 119.217 118.943C118.537 120.131 117.689 121.212 116.701 122.154C116.131 122.703 115.471 123.147 114.75 123.467C114.389 123.624 114.048 123.821 113.692 123.988C112.361 124.617 111.03 125.252 109.659 125.792C108.737 126.133 107.862 126.591 107.055 127.154C106.606 127.479 106.168 127.823 105.734 128.172C105.451 128.393 105.183 128.634 104.909 128.87C104.501 129.227 104.136 129.631 103.822 130.075C103.568 130.439 103.375 130.843 103.251 131.27C103.188 131.493 103.188 131.73 103.251 131.953C103.336 132.267 103.483 132.559 103.685 132.813C103.886 133.067 104.137 133.276 104.422 133.428C104.841 133.679 105.275 133.92 105.709 134.141C106.571 134.578 107.466 134.943 108.386 135.232C109.225 135.508 110.074 135.747 110.932 135.95C111.659 136.122 112.395 136.24 113.141 136.378C113.682 136.476 114.233 136.565 114.78 136.653C115.326 136.742 115.755 136.801 116.282 136.875C116.808 136.948 117.218 137.012 117.686 137.071C118.154 137.13 118.622 137.175 119.095 137.219C119.729 137.273 120.363 137.342 120.992 137.44C121.089 137.453 121.187 137.462 121.285 137.465C121.693 137.465 122.101 137.499 122.504 137.568C122.758 137.617 123.026 137.568 123.284 137.612C123.982 137.676 124.679 137.76 125.381 137.824C125.674 137.853 125.966 137.824 126.264 137.853C126.995 137.883 127.727 137.942 128.463 138.01C129.2 138.079 129.863 138.05 130.565 138.128C131.472 138.227 132.394 138.197 133.306 138.261C134.769 138.369 136.28 138.325 137.763 138.394C138.563 138.433 139.362 138.463 140.162 138.448C140.962 138.433 141.859 138.384 142.703 138.35C143.98 138.3 145.253 138.276 146.526 138.197C147.409 138.143 148.291 138.138 149.169 138.064C150.144 137.976 151.159 137.937 152.149 137.868C153.139 137.799 154.07 137.725 155.031 137.647C155.894 137.573 156.762 137.558 157.62 137.45C158.205 137.381 158.791 137.396 159.371 137.297L159.615 137.268C160.297 137.209 160.985 137.179 161.663 137.086C162.57 136.963 163.482 136.929 164.389 136.781C164.984 136.688 165.589 136.658 166.188 136.594C166.481 136.565 166.769 136.506 167.061 136.471C167.744 136.403 168.417 136.294 169.1 136.206L170.748 135.98C171.006 135.945 171.236 135.881 171.518 135.852C172.182 135.768 172.84 135.636 173.498 135.542C174.244 135.434 174.986 135.346 175.732 135.237C176.151 135.178 176.566 135.105 176.985 135.041L178.053 134.888L179.457 134.682C179.945 134.618 180.433 134.564 180.92 134.495L182.081 134.318L183.242 134.146C184.032 134.038 184.827 133.949 185.612 133.812C186.099 133.728 186.587 133.694 187.075 133.625C187.479 133.571 187.879 133.502 188.279 133.438C188.679 133.374 189.094 133.354 189.493 133.29C190.332 133.153 191.171 133.04 192.015 132.941C193.004 132.808 194.002 132.765 194.999 132.813C195.358 132.829 195.713 132.897 196.052 133.015C196.204 133.075 196.345 133.162 196.467 133.271C196.592 133.375 196.693 133.507 196.761 133.656C196.829 133.805 196.864 133.967 196.862 134.131M197.159 135.759C197.435 135.485 197.632 135.141 197.729 134.764C197.826 134.386 197.82 133.989 197.71 133.615C197.627 133.262 197.45 132.938 197.198 132.678C196.947 132.418 196.63 132.232 196.282 132.14C195.418 131.876 194.511 131.789 193.614 131.884C193.487 131.884 193.356 131.919 193.224 131.919C192.405 131.919 191.6 132.096 190.786 132.174C190.166 132.238 189.557 132.346 188.942 132.43L186.372 132.789L184.041 133.118C183.217 133.231 182.393 133.335 181.569 133.453C180.745 133.571 180.018 133.694 179.243 133.802C178.194 133.954 177.141 134.097 176.093 134.244L172.318 134.775C171.104 134.952 169.88 135.129 168.68 135.267C167.646 135.409 166.608 135.532 165.569 135.665L164.594 135.778C163.828 135.862 163.067 135.955 162.307 136.034C161.819 136.088 161.331 136.108 160.844 136.167C159.82 136.299 158.791 136.344 157.767 136.447C157.215 136.506 156.66 136.53 156.104 136.57C155.211 136.639 154.319 136.742 153.421 136.811C152.524 136.88 151.661 136.904 150.778 136.948H150.632C149.974 137.081 149.296 137.027 148.633 137.101C147.969 137.175 147.228 137.15 146.526 137.204C145.907 137.253 145.287 137.248 144.663 137.293C143.59 137.366 142.508 137.396 141.43 137.415C138.992 137.455 136.524 137.415 134.076 137.317C132.867 137.263 131.638 137.194 130.453 137.135L128.151 137.017H128.054L125.859 136.845C125.22 136.801 124.586 136.766 123.952 136.712C123.431 136.668 122.914 136.604 122.392 136.555C121.514 136.471 120.631 136.408 119.754 136.314C119.09 136.25 118.427 136.137 117.764 136.078C116.525 135.96 115.301 135.763 114.077 135.586C112.639 135.355 111.22 135.055 109.81 134.682C108.062 134.24 106.389 133.538 104.846 132.597C104.619 132.467 104.425 132.285 104.28 132.066C104.191 131.937 104.139 131.786 104.129 131.629C104.12 131.472 104.154 131.315 104.227 131.176C104.419 130.774 104.673 130.404 104.978 130.08C105.544 129.503 106.152 128.969 106.797 128.482C107.643 127.804 108.574 127.242 109.567 126.81C110.196 126.535 110.83 126.274 111.464 126.004C112.829 125.414 114.17 124.765 115.511 124.106C116.142 123.792 116.722 123.384 117.233 122.897C118.234 121.97 119.096 120.902 119.793 119.725C120.28 118.875 120.768 117.999 121.256 117.144C121.894 116.029 122.474 114.88 122.992 113.702C123.183 113.266 123.346 112.818 123.479 112.36C123.543 112.154 123.596 111.947 123.655 111.745C123.619 111.635 123.619 111.516 123.655 111.406C123.701 111.148 123.716 110.886 123.699 110.624C123.69 110.425 123.609 110.236 123.47 110.093C123.274 109.907 123.019 109.798 122.751 109.785C122.482 109.772 122.218 109.857 122.007 110.025C121.754 110.257 121.543 110.531 121.382 110.836C121.246 111.171 121.055 111.48 120.817 111.75C120.754 111.938 120.664 112.116 120.549 112.276C119.873 113.367 119.127 114.412 118.315 115.403C117.785 116.052 117.185 116.64 116.525 117.154C115.917 117.626 115.287 118.068 114.633 118.481C113.658 119.106 112.639 119.735 111.605 120.31C111.02 120.64 110.415 120.92 109.815 121.225C108.678 121.811 107.623 122.545 106.675 123.408C105.441 124.564 104.287 125.804 103.222 127.12C102.481 128 101.759 128.895 101.033 129.785C100.464 130.463 99.973 131.203 99.5696 131.992C98.9508 133.228 98.4227 134.509 97.9896 135.822C97.5947 136.961 97.4289 138.168 97.502 139.372C97.537 140.016 97.7206 140.642 98.0384 141.201C98.5245 141.993 99.1939 142.655 99.989 143.129C100.782 143.621 101.62 144.038 102.491 144.373C102.622 144.427 102.783 144.441 102.852 144.599C103.124 144.65 103.393 144.719 103.656 144.805C105.556 145.476 107.516 145.96 109.508 146.251C111.064 146.487 112.629 146.615 114.194 146.742C115.657 146.851 117.12 146.929 118.583 147.023C119.642 147.092 120.705 147.175 121.763 147.224C123.431 147.308 125.098 147.377 126.766 147.382C128.956 147.382 131.155 147.382 133.34 147.323C135.724 147.249 138.109 147.155 140.489 146.988C142.122 146.875 143.751 146.757 145.365 146.615C146.77 146.497 148.165 146.334 149.564 146.187C151.286 146.015 153.007 145.798 154.728 145.582C156.806 145.322 158.873 145.027 160.946 144.727C161.443 144.65 161.946 144.621 162.448 144.638C162.443 144.622 162.443 144.605 162.448 144.589C162.448 144.515 162.521 144.5 162.585 144.491C163.023 144.432 163.462 144.382 163.896 144.314L166.559 143.891C167.656 143.719 168.753 143.552 169.846 143.37C170.938 143.188 172.006 142.996 173.079 142.804C174.318 142.583 175.556 142.367 176.79 142.126C177.897 141.914 178.999 141.664 180.106 141.452C181.725 141.137 183.334 140.759 184.934 140.37C186.304 140.041 187.66 139.677 189.011 139.279C190.361 138.881 191.756 138.423 193.097 137.907C194.073 137.533 195.032 137.112 195.974 136.644C196.412 136.412 196.812 136.113 197.159 135.759ZM219.182 132.405C219.396 132.42 219.604 132.482 219.791 132.587C220.232 132.762 220.717 132.785 221.171 132.652C221.625 132.52 222.023 132.239 222.303 131.855C222.791 131.107 223.317 130.38 223.815 129.603C223.91 129.445 223.995 129.281 224.068 129.111C224.123 128.973 224.216 128.853 224.336 128.767C224.35 128.759 224.365 128.754 224.381 128.752C224.396 128.75 224.412 128.752 224.427 128.757C224.442 128.762 224.456 128.771 224.467 128.782C224.478 128.793 224.487 128.806 224.493 128.821C224.514 129.001 224.514 129.182 224.493 129.362C224.437 129.935 224.319 130.501 224.141 131.048C223.732 132.475 223.102 133.827 222.274 135.055C221.869 135.677 221.376 136.235 220.811 136.712C220.446 137.024 219.986 137.197 219.509 137.204C219.067 137.217 218.627 137.162 218.202 137.042C217.92 136.956 217.62 136.956 217.339 137.042C216.473 137.301 215.678 137.755 215.012 138.369C214.496 138.848 214.034 139.384 213.637 139.967C213.047 140.818 212.477 141.683 211.94 142.573C211.521 143.297 211.03 143.977 210.477 144.604C209.89 145.256 209.161 145.761 208.346 146.079C207.964 146.227 207.561 146.315 207.151 146.339C206.385 146.4 205.614 146.323 204.874 146.113C203.959 145.843 203.144 145.304 202.533 144.564C202.314 144.299 202.114 144.014 201.914 143.733C201.462 143.046 201.114 142.296 200.88 141.506C200.633 140.789 200.469 140.044 200.393 139.289C200.258 138.275 200.235 137.249 200.324 136.231C200.329 136.165 200.329 136.099 200.324 136.034C200.3 135.193 200.451 134.362 200.5 133.521C200.539 132.853 200.622 132.179 200.719 131.515C200.817 130.852 200.875 130.04 200.973 129.308C201.1 128.364 201.222 127.42 201.348 126.476C201.421 125.906 201.495 125.335 201.578 124.765C201.714 123.841 201.842 122.913 201.963 121.982C202.075 121.117 202.192 120.256 202.329 119.396C202.392 119.007 202.431 118.614 202.509 118.226C202.587 117.837 202.602 117.508 202.646 117.149C202.719 116.544 202.841 115.944 202.88 115.34C202.941 114.83 203.079 114.333 203.289 113.865C203.577 113.093 203.845 112.316 204.128 111.544C204.411 110.772 204.669 110.098 204.942 109.376C205.215 108.653 205.43 108.053 205.698 107.409C205.76 107.203 205.88 107.02 206.044 106.883C206.064 106.868 206.086 106.858 206.11 106.855C206.135 106.852 206.159 106.855 206.181 106.865C206.204 106.874 206.223 106.89 206.238 106.909C206.252 106.929 206.261 106.952 206.264 106.976C206.281 107.173 206.281 107.37 206.264 107.566C206.166 108.25 206.049 108.933 205.952 109.617C205.893 110.005 205.849 110.398 205.796 110.787C205.752 111.082 205.703 111.372 205.659 111.667C205.567 112.267 205.489 112.866 205.386 113.466C205.23 114.391 205.142 115.325 205.006 116.249C204.869 117.173 204.752 118.108 204.625 119.032C204.572 119.455 204.528 119.883 204.45 120.3C204.372 120.718 204.357 121.082 204.313 121.476C204.245 122.13 204.138 122.779 204.074 123.442C204.026 123.934 203.967 124.46 203.923 124.966C203.86 125.62 203.782 126.274 203.713 126.933C203.713 126.982 203.713 127.031 203.713 127.081C203.606 128.195 203.562 129.314 203.582 130.434C203.626 131.024 203.679 131.614 203.772 132.199C203.842 132.62 203.936 133.037 204.055 133.448C204.32 134.507 204.82 135.492 205.518 136.329C205.81 136.659 206.147 136.947 206.517 137.184C207.2 137.61 207.959 137.896 208.751 138.025C209.074 138.068 209.4 138.086 209.726 138.079C210.217 138.068 210.706 138.017 211.189 137.927C211.929 137.768 212.62 137.43 213.203 136.943C213.782 136.484 214.301 135.954 214.749 135.365C215.175 134.781 215.644 134.23 216.154 133.718C216.475 133.413 216.819 133.132 217.183 132.877C217.774 132.493 218.476 132.32 219.177 132.386M217.3 131.825C216.656 132.153 216.064 132.575 215.544 133.079C215.008 133.609 214.518 134.184 214.081 134.8C213.684 135.347 213.213 135.835 212.681 136.25C212.326 136.569 211.907 136.807 211.453 136.948C210.518 137.195 209.542 137.238 208.59 137.076C207.876 136.945 207.206 136.638 206.639 136.181C206.063 135.688 205.61 135.065 205.318 134.362C204.831 133.172 204.562 131.903 204.523 130.616C204.494 129.378 204.543 128.14 204.669 126.909C204.694 126.584 204.733 126.255 204.767 125.925C204.816 125.497 204.874 125.075 204.918 124.652C204.962 124.229 205.006 123.668 205.064 123.177C205.181 122.193 205.303 121.21 205.43 120.227C205.508 119.607 205.596 118.988 205.679 118.368C205.762 117.749 205.835 117.228 205.908 116.652C206.02 115.807 206.132 114.956 206.249 114.11C206.332 113.476 206.425 112.837 206.513 112.203C206.521 112.034 206.556 111.869 206.615 111.711C206.588 111.547 206.597 111.38 206.639 111.219C206.8 110.128 206.956 109.041 207.127 107.95C207.179 107.575 207.197 107.197 207.181 106.819C207.176 106.687 207.143 106.557 207.084 106.439C207.025 106.322 206.942 106.218 206.839 106.136C206.648 106.011 206.424 105.946 206.197 105.951C205.969 105.955 205.748 106.028 205.562 106.16C205.298 106.404 205.091 106.705 204.957 107.04C204.499 108.274 204.04 109.499 203.572 110.728C203.467 111.069 203.326 111.399 203.153 111.711C203.094 111.898 203.041 112.09 202.972 112.276C202.724 112.935 202.485 113.599 202.216 114.243C202.114 114.504 202.045 114.776 202.012 115.054C201.909 115.954 201.802 116.849 201.685 117.749C201.578 118.565 201.451 119.376 201.334 120.207C201.241 120.861 201.153 121.51 201.061 122.174C200.953 122.97 200.841 123.772 200.734 124.568C200.641 125.237 200.553 125.906 200.461 126.574C200.397 127.066 200.319 127.558 200.261 128.049C200.173 128.752 200.095 129.455 200.012 130.158C199.929 130.862 199.837 131.594 199.759 132.312C199.705 132.754 199.681 133.197 199.632 133.639C199.549 134.357 199.476 135.08 199.446 135.803C199.446 135.916 199.446 136.034 199.417 136.147C199.361 136.87 199.361 137.597 199.417 138.32C199.46 138.96 199.54 139.597 199.656 140.228C199.822 141.151 200.094 142.052 200.466 142.912C200.732 143.498 201.037 144.064 201.378 144.609C201.523 144.715 201.648 144.847 201.748 144.997C202.465 145.883 203.415 146.548 204.489 146.915C205.253 147.158 206.053 147.271 206.854 147.249C207.891 147.226 208.902 146.92 209.78 146.364C210.382 145.968 210.93 145.494 211.409 144.953C211.509 144.821 211.629 144.707 211.765 144.614C211.806 144.524 211.853 144.436 211.906 144.353C212.085 144.12 212.248 143.875 212.394 143.62C213.139 142.346 213.953 141.113 214.832 139.928C215.356 139.234 216.021 138.66 216.783 138.246C217.012 138.1 217.268 138.004 217.536 137.963C217.804 137.923 218.077 137.939 218.338 138.01C218.765 138.128 219.21 138.164 219.65 138.119C220.295 138.096 220.911 137.85 221.396 137.42C222.232 136.677 222.94 135.798 223.488 134.819C224.389 133.246 225.025 131.533 225.37 129.75C225.43 129.376 225.443 128.997 225.409 128.62C225.385 128.455 225.316 128.3 225.21 128.171C225.104 128.043 224.966 127.946 224.809 127.892C224.555 127.818 224.283 127.832 224.037 127.931C223.792 128.031 223.586 128.211 223.454 128.443C223.41 128.512 223.371 128.584 223.337 128.659C223.179 128.986 222.993 129.299 222.781 129.593C222.493 130.011 222.205 130.434 221.923 130.857C221.82 131.004 221.723 131.157 221.625 131.309C221.419 131.592 221.123 131.795 220.786 131.884C220.543 131.923 220.294 131.878 220.079 131.756L219.806 131.643C219.717 131.606 219.623 131.578 219.528 131.56C218.78 131.452 218.016 131.55 217.319 131.845M237.62 127.597C237.63 128.703 237.465 129.803 237.133 130.857C236.806 132.032 236.469 133.202 236.065 134.352C235.717 135.358 235.313 136.343 234.855 137.302C234.398 138.216 233.843 139.076 233.202 139.869C232.854 140.284 232.454 140.653 232.012 140.965C231.114 141.624 230.147 142.182 229.13 142.632C227.998 143.144 226.835 143.585 225.648 143.95C225.351 144.043 225.048 144.112 224.756 144.22C224.538 144.288 224.311 144.318 224.083 144.309C223.8 144.309 223.751 144.26 223.8 143.945C223.858 143.736 223.977 143.549 224.141 143.409C224.443 143.083 224.76 142.773 225.092 142.48C225.838 141.845 226.609 141.231 227.37 140.606C228.789 139.493 230.111 138.257 231.32 136.914C231.676 136.506 232.002 136.073 232.329 135.641C232.658 135.188 232.879 134.665 232.973 134.111C232.995 133.998 232.995 133.881 232.973 133.767C232.832 132.868 232.463 132.021 231.9 131.309C231.632 130.955 231.383 130.586 231.12 130.232C230.356 129.18 229.431 128.257 228.379 127.499C228.318 127.459 228.269 127.402 228.238 127.335C228.208 127.267 228.198 127.193 228.208 127.12C228.222 126.989 228.26 126.862 228.321 126.746C228.906 125.438 229.491 124.136 230.071 122.813C230.505 121.83 230.93 120.846 231.359 119.863C231.549 119.425 231.793 119.012 231.944 118.56C231.953 118.528 231.97 118.498 231.994 118.474C232.017 118.45 232.046 118.432 232.078 118.422C232.11 118.412 232.144 118.411 232.177 118.418C232.21 118.425 232.24 118.44 232.266 118.462C232.379 118.526 232.488 118.599 232.592 118.678C233.918 119.652 235.072 120.844 236.006 122.203C236.68 123.2 237.162 124.316 237.425 125.493C237.489 125.747 237.532 126.007 237.552 126.269C237.591 126.697 237.596 127.125 237.615 127.553M238.517 127.867C238.517 127.376 238.517 126.909 238.488 126.432C238.397 125.496 238.169 124.58 237.81 123.713C237.406 122.703 236.859 121.757 236.186 120.905C235.606 120.19 234.975 119.518 234.299 118.894C233.855 118.482 233.381 118.104 232.88 117.763C232.776 117.683 232.663 117.616 232.544 117.562C232.311 117.455 232.046 117.441 231.804 117.523C231.561 117.605 231.358 117.777 231.237 118.004C231.159 118.147 231.1 118.304 231.032 118.452L229.745 121.338L228.711 123.609C228.272 124.593 227.867 125.615 227.389 126.589C227.233 126.862 227.191 127.185 227.271 127.49C227.352 127.794 227.549 128.053 227.818 128.211L227.857 128.241C228.65 128.824 229.368 129.504 229.993 130.267C230.481 130.847 230.886 131.486 231.334 132.096C231.602 132.461 231.81 132.868 231.949 133.3C232.042 133.548 232.077 133.814 232.051 134.078C232.024 134.341 231.938 134.595 231.798 134.819C231.695 134.987 231.588 135.154 231.471 135.311C230.602 136.469 229.611 137.529 228.516 138.473C227.423 139.456 226.272 140.331 225.141 141.255C224.569 141.722 224.026 142.224 223.517 142.76C223.295 143.003 223.108 143.276 222.961 143.571C222.826 143.899 222.79 144.26 222.859 144.609C222.902 144.656 222.943 144.705 222.981 144.756C223.086 144.917 223.232 145.047 223.403 145.133C223.574 145.22 223.765 145.259 223.956 145.248C224.263 145.236 224.566 145.182 224.858 145.086C225.483 144.863 226.126 144.698 226.78 144.594C226.858 144.412 227.038 144.412 227.189 144.358C228.754 143.827 230.258 143.128 231.676 142.273C232.991 141.459 234.096 140.342 234.899 139.013C235.321 138.345 235.698 137.649 236.026 136.929C236.518 135.806 236.949 134.657 237.318 133.487C237.606 132.563 237.859 131.624 238.118 130.685C238.387 129.785 238.522 128.851 238.517 127.912" fill="white"/>
<path d="M196.428 133.261C196.306 133.152 196.165 133.065 196.013 133.005C195.672 132.887 195.316 132.819 194.955 132.804C193.96 132.753 192.963 132.796 191.976 132.931C191.132 133.025 190.288 133.138 189.454 133.276C189.05 133.344 188.645 133.364 188.24 133.428C187.835 133.492 187.435 133.561 187.036 133.615C186.548 133.684 186.06 133.718 185.573 133.802C184.783 133.939 183.993 134.028 183.198 134.136L182.037 134.308C181.652 134.367 181.267 134.431 180.881 134.485L179.418 134.672L178.014 134.878L176.951 135.026C176.531 135.09 176.112 135.169 175.693 135.228C174.951 135.331 174.205 135.424 173.464 135.532C172.801 135.626 172.143 135.759 171.479 135.842C171.221 135.872 170.967 135.936 170.709 135.97L169.061 136.191C168.383 136.285 167.705 136.393 167.022 136.462C166.73 136.491 166.447 136.555 166.154 136.585C165.554 136.648 164.945 136.673 164.35 136.771C163.448 136.919 162.531 136.953 161.629 137.076C160.951 137.17 160.263 137.199 159.581 137.258C159.499 137.253 159.418 137.253 159.337 137.258C158.756 137.361 158.166 137.342 157.581 137.415C156.723 137.524 155.855 137.538 154.992 137.612C154.036 137.691 153.077 137.765 152.115 137.833C151.139 137.902 150.125 137.942 149.13 138.025C148.257 138.104 147.37 138.109 146.487 138.163C145.219 138.237 143.941 138.266 142.669 138.315C141.82 138.345 140.972 138.399 140.123 138.414C139.275 138.428 138.528 138.414 137.729 138.359C136.241 138.291 134.754 138.33 133.267 138.227C132.355 138.163 131.438 138.187 130.526 138.089C129.829 138.015 129.126 138.04 128.424 137.976C127.722 137.912 126.961 137.848 126.225 137.819C125.932 137.819 125.635 137.819 125.342 137.789C124.645 137.725 123.948 137.642 123.245 137.573C122.987 137.573 122.719 137.573 122.465 137.533C122.062 137.466 121.654 137.429 121.246 137.425C121.149 137.433 121.051 137.433 120.953 137.425C120.324 137.322 119.69 137.258 119.056 137.199C118.569 137.16 118.115 137.111 117.647 137.057C117.179 137.002 116.711 136.924 116.243 136.86L114.741 136.639C114.194 136.55 113.648 136.462 113.102 136.363C112.366 136.226 111.639 136.108 110.893 135.936C110.035 135.729 109.186 135.493 108.347 135.218C107.428 134.926 106.532 134.561 105.67 134.126C105.236 133.9 104.807 133.635 104.383 133.413C104.099 133.261 103.849 133.051 103.649 132.797C103.448 132.544 103.301 132.251 103.217 131.938C103.149 131.716 103.149 131.477 103.217 131.255C103.339 130.827 103.532 130.423 103.788 130.06C104.104 129.625 104.469 129.227 104.875 128.875C105.153 128.639 105.421 128.383 105.699 128.172C106.138 127.828 106.577 127.484 107.026 127.159C107.833 126.594 108.708 126.135 109.63 125.792C111 125.252 112.327 124.617 113.663 123.993C114.019 123.826 114.36 123.629 114.721 123.472C115.442 123.15 116.102 122.704 116.672 122.154C117.659 121.214 118.505 120.134 119.183 118.948C119.807 117.867 120.402 116.765 120.997 115.669C121.397 114.927 121.753 114.194 122.094 113.402C122.346 112.814 122.553 112.208 122.714 111.588C122.76 111.361 122.786 111.131 122.792 110.9C122.796 110.867 122.791 110.834 122.776 110.805C122.761 110.776 122.738 110.752 122.709 110.737C122.681 110.721 122.649 110.712 122.616 110.712C122.584 110.712 122.552 110.721 122.524 110.737C122.452 110.777 122.389 110.831 122.338 110.895C122.244 111.01 122.161 111.133 122.09 111.264C121.958 111.509 121.86 111.755 121.714 112.011C121.269 112.732 120.815 113.437 120.354 114.125C119.812 114.93 119.219 115.699 118.578 116.426C117.78 117.301 116.874 118.07 115.882 118.712C115.004 119.312 114.092 119.858 113.18 120.409C112.268 120.959 111.366 121.456 110.42 121.884C110.122 122.019 109.832 122.172 109.552 122.341C108.433 123.025 107.398 123.84 106.47 124.77C105.934 125.325 105.407 125.891 104.9 126.471C103.856 127.675 102.842 128.929 101.832 130.134C101.174 130.913 100.61 131.768 100.15 132.681C99.5838 133.885 99.0951 135.125 98.6869 136.393C98.4665 137.15 98.3371 137.93 98.3017 138.718C98.3073 138.998 98.3301 139.277 98.37 139.554C98.3866 140.019 98.5374 140.468 98.804 140.847C99.105 141.301 99.483 141.697 99.9207 142.017C100.552 142.488 101.238 142.878 101.964 143.178C102.222 143.281 102.486 143.379 102.734 143.497C103.832 143.967 104.964 144.354 106.119 144.653C106.904 144.884 107.704 145.026 108.508 145.179C109.537 145.376 110.571 145.498 111.605 145.612C112.639 145.725 113.556 145.779 114.531 145.852C115.121 145.897 115.706 145.941 116.291 145.975C116.75 145.975 117.213 145.975 117.667 146.039C118.539 146.167 119.427 146.113 120.3 146.226C120.885 146.305 121.475 146.29 122.065 146.329C123.221 146.398 124.382 146.438 125.542 146.462C126.517 146.462 127.493 146.462 128.434 146.462C129.897 146.462 131.36 146.462 132.798 146.398C133.774 146.359 134.749 146.398 135.724 146.31C136.7 146.221 137.592 146.31 138.514 146.147C139.709 146.147 140.894 146.029 142.088 145.961C143.098 145.907 144.107 145.803 145.117 145.725C145.229 145.725 145.341 145.69 145.458 145.68L146.921 145.528C147.228 145.498 147.54 145.479 147.848 145.444C148.335 145.395 148.823 145.331 149.311 145.282C149.896 145.218 150.486 145.179 151.066 145.11C151.646 145.041 152.329 144.943 152.963 144.874C153.997 144.756 155.031 144.604 156.065 144.461C156.855 144.353 157.649 144.259 158.435 144.122C158.854 144.048 159.273 144.019 159.693 143.955C160.371 143.851 161.044 143.724 161.721 143.65C162.399 143.576 163.184 143.424 163.906 143.34C164.794 143.237 165.676 143.055 166.559 142.907C166.832 142.863 167.105 142.799 167.378 142.78C168.08 142.725 168.763 142.539 169.456 142.45C170.036 142.376 170.611 142.253 171.192 142.155C171.772 142.057 172.352 141.968 172.928 141.865L174.61 141.541L175.278 141.413L176.819 141.137C176.931 141.137 177.039 141.073 177.151 141.049C177.746 140.936 178.336 140.828 178.926 140.71C179.345 140.626 179.75 140.498 180.169 140.439C181.145 140.297 182.057 140.056 182.993 139.834C184.456 139.49 185.919 139.136 187.357 138.723C188.269 138.468 189.181 138.232 190.083 137.927C190.41 137.824 190.727 137.691 191.059 137.602C191.9 137.359 192.729 137.072 193.541 136.742C194.087 136.527 194.623 136.284 195.145 136.014C195.549 135.833 195.93 135.606 196.282 135.336C196.465 135.199 196.611 135.016 196.705 134.806C196.799 134.596 196.838 134.366 196.818 134.136C196.819 133.973 196.785 133.811 196.718 133.662C196.65 133.513 196.551 133.381 196.428 133.276" fill="#C8C8C8"/>
<path d="M67.8963 131.786C67.3752 132.234 66.8209 132.642 66.2383 133.005C65.3891 133.53 64.4671 133.925 63.5026 134.175C62.9345 134.337 62.3469 134.418 61.7567 134.416C61.4983 134.416 61.2349 134.416 60.9765 134.372C60.8863 134.37 60.7985 134.343 60.7228 134.294C60.647 134.244 60.5863 134.175 60.5474 134.093C60.5085 134.011 60.4929 133.919 60.5024 133.829C60.5118 133.738 60.546 133.652 60.601 133.58C60.7327 133.354 60.8936 133.143 61.035 132.922C61.9857 131.385 63.0127 129.899 64.1121 128.467C64.654 127.719 65.3801 127.125 66.2188 126.746C66.6962 126.533 67.2255 126.466 67.7403 126.555C68.4153 126.686 69.0612 126.939 69.647 127.302C69.9737 127.494 70.238 127.777 70.4078 128.118C70.4676 128.217 70.4993 128.331 70.4993 128.447C70.4993 128.564 70.4676 128.678 70.4078 128.777C70.2615 129.013 70.1152 129.269 69.9542 129.475C69.366 130.328 68.6747 131.105 67.8963 131.786ZM90.0408 119.411C90.1432 118.944 90.1923 118.467 90.1871 117.99C90.1871 117.709 90.1871 117.429 90.1871 117.149C90.2538 116.012 90.1318 114.872 89.8262 113.776C89.382 111.92 88.3559 110.258 86.9003 109.036C86.4519 108.596 85.8859 108.297 85.2715 108.176C84.8482 108.078 84.4082 108.08 83.9855 108.18C83.5627 108.281 83.1685 108.478 82.8332 108.756C82.4571 109.074 82.1286 109.445 81.8579 109.857C81.5097 110.416 81.2064 111.001 80.9509 111.608C80.3998 112.857 79.8683 114.115 79.3465 115.374C78.9426 116.261 78.7506 117.231 78.7857 118.206C78.7803 118.57 78.8676 118.928 79.0393 119.248C79.3272 119.716 79.7863 120.049 80.3169 120.178C80.8908 120.31 81.4795 120.364 82.0676 120.34C82.4434 120.349 82.8187 120.31 83.1844 120.222C83.5503 120.141 83.8999 119.998 84.2182 119.799C84.2728 119.754 84.3359 119.721 84.4036 119.701C84.4714 119.682 84.5424 119.677 84.6123 119.686C84.6822 119.695 84.7494 119.718 84.81 119.755C84.8705 119.791 84.923 119.84 84.9643 119.897C85.0132 119.942 85.0573 119.991 85.096 120.045C85.5964 120.63 85.9969 121.294 86.281 122.011C86.4963 122.514 86.564 123.069 86.476 123.609C86.3897 124.012 86.2417 124.398 86.0371 124.755C85.8663 125.075 85.6022 125.335 85.2805 125.499C84.9588 125.664 84.5949 125.725 84.2377 125.674C83.7879 125.621 83.3417 125.541 82.9015 125.434C82.3001 125.268 81.6751 125.206 81.0533 125.252C80.5943 125.263 80.154 125.437 79.8098 125.743C79.5589 125.979 79.3212 126.228 79.0978 126.491C78.4476 127.271 77.7974 128.057 77.1472 128.851C76.4351 129.755 75.6364 130.587 74.7625 131.334C73.6481 132.276 72.4807 133.152 71.266 133.959C71.027 134.072 70.8181 134.24 70.6565 134.451C70.6251 134.489 70.5849 134.52 70.5394 134.539C70.4979 134.565 70.4516 134.583 70.4033 134.591C70.355 134.599 70.3056 134.597 70.258 134.585C70.2104 134.574 70.1655 134.553 70.1259 134.524C70.0864 134.495 70.0529 134.458 70.0274 134.416C69.959 134.321 69.9305 134.202 69.9478 134.085C69.9651 133.968 70.0269 133.863 70.12 133.792C70.3625 133.597 70.5632 133.354 70.7101 133.079C71.413 132.025 71.9861 130.889 72.4169 129.696C72.7456 128.816 72.9699 127.901 73.085 126.968C73.1655 126.114 73.1655 125.255 73.085 124.401C73.0639 123.986 72.906 123.59 72.6363 123.275C72.3903 122.965 72.0954 122.697 71.7634 122.484C71.5659 122.367 71.3522 122.281 71.1295 122.228C70.602 122.107 70.0584 122.074 69.5202 122.129C69.1894 122.15 68.862 122.209 68.5449 122.306C67.746 122.555 67.0104 122.976 66.3895 123.541C66.0237 123.875 65.6824 124.229 65.3264 124.573C64.0399 125.841 62.9116 127.263 61.9664 128.806C61.2447 129.967 60.5571 131.142 59.8549 132.312C59.7622 132.469 59.6598 132.617 59.572 132.774C59.3965 133.074 59.2307 133.374 59.0844 133.674C58.9608 133.89 58.7862 134.072 58.5761 134.204C58.366 134.336 58.1269 134.414 57.8799 134.431C57.5377 134.438 57.1963 134.397 56.8655 134.308C56.4486 134.221 56.0473 134.07 55.6757 133.861C55.182 133.602 54.6323 133.472 54.0762 133.482C53.6797 133.483 53.2988 133.638 53.0131 133.915C52.5524 134.335 52.1446 134.811 51.7988 135.331C51.4818 135.822 51.1551 136.314 50.8235 136.806C50.5455 137.219 50.2724 137.627 49.9847 138.025C49.5417 138.61 48.9528 139.067 48.2779 139.348C47.4323 139.749 46.5059 139.948 45.5714 139.928C45.1337 139.888 44.6989 139.82 44.2694 139.726C43.3957 139.58 42.5639 139.245 41.8311 138.743C41.3028 138.399 40.8429 137.959 40.4754 137.445C39.9938 136.759 39.6112 136.007 39.3392 135.213C39.1755 134.712 39.0452 134.202 38.9491 133.684C38.7958 132.843 38.7029 131.991 38.6711 131.137C38.6321 130.375 38.7442 129.623 38.7784 128.865C38.7784 128.62 38.7784 128.374 38.8174 128.128C38.8808 127.553 38.9637 126.982 39.0271 126.412C39.0252 126.198 39.0382 125.985 39.0661 125.773C39.1526 125.337 39.2032 124.894 39.2173 124.45C39.2904 123.55 39.4562 122.661 39.5294 121.756C39.5586 121.382 39.5976 121.004 39.6513 120.63C39.7391 119.976 39.861 119.332 39.8902 118.663C39.8902 118.594 39.9195 118.53 39.9292 118.467C39.9878 118.113 40.0512 117.754 40.0999 117.395C40.1975 116.613 40.2706 115.826 40.3925 115.049C40.4413 114.705 40.4559 114.356 40.5193 114.022C40.651 113.358 40.7046 112.685 40.8265 112.026C40.8802 111.716 40.9436 111.411 40.9875 111.101C41.0899 110.384 41.163 109.666 41.2801 108.948C41.3337 108.643 41.363 108.328 41.4117 108.024C41.5141 107.355 41.6312 106.691 41.7287 106.022C41.7434 105.826 41.7434 105.629 41.7287 105.432C41.7317 105.399 41.7223 105.367 41.7025 105.34C41.6826 105.314 41.6537 105.296 41.6214 105.29C41.5899 105.28 41.5563 105.281 41.5255 105.293C41.4947 105.305 41.4684 105.326 41.4507 105.354C41.3072 105.556 41.1938 105.778 41.1143 106.013C40.6607 107.139 40.217 108.274 39.7732 109.405C39.4367 110.266 39.0758 111.111 38.7979 111.981C38.5638 112.635 38.3102 113.27 38.0371 113.914C37.9913 114.018 37.957 114.127 37.9347 114.238C37.8762 114.661 37.8275 115.089 37.7738 115.512C37.7202 115.934 37.6812 116.362 37.6226 116.785C37.5544 117.321 37.4763 117.862 37.4032 118.398C37.3398 118.835 37.3008 119.283 37.252 119.72C37.1837 120.291 37.096 120.861 37.0277 121.431C36.9741 121.874 36.9204 122.311 36.8765 122.754C36.8326 123.196 36.7449 123.698 36.6815 124.17C36.6181 124.642 36.5547 125.217 36.4913 125.738L36.3011 127.307C36.2523 127.744 36.2133 128.187 36.1597 128.629C36.0865 129.234 36.0085 129.834 35.9256 130.439C35.8671 130.862 35.8427 131.294 35.7793 131.712C35.7159 132.13 35.6671 132.661 35.6135 133.133C35.4818 134.19 35.4087 135.262 35.3111 136.324C35.3111 136.373 35.3111 136.422 35.3111 136.471C35.1112 137.234 35.2087 138.025 35.1112 138.792C35.1192 138.989 35.142 139.184 35.1795 139.377C35.172 139.986 35.216 140.595 35.3111 141.196C35.3794 141.619 35.4233 142.047 35.5111 142.465C35.6518 143.176 35.8442 143.876 36.0865 144.559C36.3384 145.309 36.7216 146.007 37.2179 146.62C37.4276 146.87 37.6763 147.111 37.9006 147.332C38.147 147.575 38.4241 147.783 38.7247 147.952C39.6562 148.527 40.7095 148.557 41.7531 148.606C41.8177 148.6 41.8815 148.587 41.9433 148.567C42.0244 148.559 42.106 148.559 42.1871 148.567C42.6785 148.58 43.1696 148.534 43.6501 148.429C44.1631 148.355 44.6587 148.189 45.113 147.937C45.489 147.705 45.8432 147.438 46.1712 147.141C46.8254 146.543 47.4036 145.866 47.8927 145.125C48.1024 144.805 48.2877 144.476 48.4974 144.142C49.3995 142.824 50.3115 141.516 51.2087 140.208C51.3033 140.073 51.4185 139.953 51.5501 139.854C51.6301 139.782 51.7306 139.737 51.8373 139.725C51.9441 139.714 52.0517 139.737 52.145 139.79C52.345 139.898 52.5547 139.997 52.7449 140.12C54.0874 140.953 55.626 141.409 57.202 141.442C57.6604 141.442 58.1188 141.442 58.5772 141.442C59.3778 141.432 60.1758 141.35 60.9619 141.196C61.1216 141.149 61.2846 141.112 61.4495 141.088C61.9451 141.016 62.4342 140.904 62.9125 140.754C63.5123 140.616 64.1024 140.405 64.6924 140.218C65.9213 139.825 67.1307 139.392 68.3352 138.9C69.6691 138.359 70.9425 137.676 72.1341 136.865C73.1192 136.217 74.0475 135.485 74.9088 134.677C75.5964 134.018 76.2645 133.34 76.9375 132.661C77.1569 132.44 77.3617 132.204 77.5617 131.968C78.1221 131.27 78.8758 130.757 79.7269 130.493C80.0071 130.399 80.3098 130.399 80.59 130.493L81.658 130.857C81.9326 130.963 82.2224 131.024 82.5163 131.039H83.3892C83.5344 131.033 83.6785 131.01 83.8183 130.97C84.242 130.833 84.6256 130.594 84.935 130.272C85.7296 129.51 86.4009 128.627 86.9247 127.656C87.5467 126.61 88.0911 125.518 88.5534 124.391C88.9541 123.417 89.2945 122.419 89.5726 121.402C89.758 120.738 89.8896 120.06 90.0213 119.381" fill="#C8C8C8"/>
<path d="M224.449 129.367C224.471 129.187 224.471 129.006 224.449 128.826C224.442 128.812 224.433 128.799 224.422 128.788C224.41 128.778 224.397 128.77 224.382 128.764C224.368 128.759 224.352 128.757 224.337 128.759C224.321 128.76 224.306 128.764 224.293 128.772C224.174 128.862 224.08 128.98 224.019 129.116C223.948 129.285 223.865 129.45 223.771 129.608C223.283 130.36 222.761 131.083 222.254 131.86C222.114 132.056 221.936 132.223 221.732 132.351C221.454 132.571 221.12 132.709 220.769 132.748C220.417 132.787 220.062 132.726 219.743 132.572C219.556 132.468 219.35 132.404 219.138 132.386C218.436 132.32 217.732 132.493 217.139 132.877C216.778 133.133 216.436 133.414 216.115 133.718C215.604 134.23 215.132 134.781 214.705 135.365C214.259 135.954 213.741 136.484 213.164 136.943C212.584 137.437 211.895 137.783 211.155 137.951C210.672 138.042 210.183 138.093 209.692 138.104C209.366 138.112 209.04 138.092 208.717 138.045C207.925 137.916 207.166 137.632 206.483 137.209C206.111 136.972 205.773 136.684 205.479 136.353C204.78 135.516 204.28 134.529 204.016 133.467C203.899 133.058 203.805 132.643 203.733 132.223C203.645 131.633 203.592 131.048 203.548 130.458C203.526 129.337 203.569 128.216 203.674 127.1C203.674 127.056 203.674 127.007 203.699 126.958C203.767 126.304 203.84 125.65 203.904 124.991C203.952 124.499 204.006 123.973 204.055 123.467C204.118 122.813 204.225 122.164 204.299 121.5C204.343 121.107 204.357 120.709 204.43 120.325C204.503 119.942 204.552 119.479 204.611 119.057C204.733 118.127 204.855 117.203 204.991 116.274C205.128 115.344 205.215 114.415 205.371 113.491C205.474 112.891 205.552 112.291 205.64 111.686C205.684 111.396 205.737 111.101 205.776 110.811C205.83 110.418 205.874 110.029 205.932 109.636C206.035 108.953 206.152 108.274 206.244 107.591C206.261 107.393 206.261 107.194 206.244 106.996C206.241 106.972 206.231 106.949 206.217 106.93C206.202 106.912 206.182 106.897 206.16 106.888C206.138 106.879 206.114 106.876 206.09 106.879C206.066 106.883 206.044 106.892 206.025 106.907C205.858 107.042 205.737 107.226 205.679 107.433C205.43 108.097 205.191 108.756 204.923 109.4C204.655 110.044 204.377 110.851 204.108 111.573C203.84 112.296 203.553 113.122 203.27 113.894C203.058 114.361 202.919 114.859 202.86 115.369C202.821 115.974 202.694 116.574 202.621 117.178C202.577 117.537 202.563 117.901 202.489 118.255C202.416 118.609 202.372 119.032 202.309 119.425C202.172 120.281 202.055 121.146 201.943 122.011C201.831 122.877 201.69 123.865 201.553 124.794C201.47 125.36 201.402 125.935 201.329 126.505C201.202 127.449 201.077 128.393 200.953 129.337C200.856 130.07 200.802 130.812 200.695 131.54C200.588 132.268 200.514 132.877 200.475 133.551C200.432 134.392 200.28 135.223 200.3 136.063C200.305 136.129 200.305 136.195 200.3 136.26C200.209 137.279 200.23 138.304 200.363 139.318C200.438 140.074 200.602 140.819 200.851 141.536C201.085 142.325 201.433 143.076 201.885 143.763C202.08 144.043 202.28 144.328 202.499 144.594C203.11 145.333 203.924 145.872 204.84 146.143C205.582 146.352 206.354 146.429 207.122 146.369C207.529 146.342 207.931 146.254 208.312 146.108C209.126 145.789 209.856 145.284 210.443 144.633C210.996 144.005 211.486 143.323 211.906 142.598C212.438 141.713 213.008 140.847 213.603 139.997C213.998 139.412 214.46 138.876 214.978 138.399C215.642 137.781 216.438 137.327 217.304 137.071C217.584 136.985 217.883 136.985 218.163 137.071C218.589 137.192 219.032 137.246 219.474 137.234C219.95 137.222 220.407 137.049 220.772 136.742C221.337 136.265 221.83 135.706 222.235 135.085C223.063 133.857 223.693 132.504 224.102 131.078C224.283 130.529 224.4 129.962 224.453 129.386" fill="#C8C8C8"/>
<path d="M96.6875 114.248C96.6144 114.248 96.5656 114.282 96.5266 114.332C96.3422 114.542 96.1894 114.779 96.0731 115.035C95.7756 115.748 95.4684 116.456 95.2002 117.183C94.7125 118.589 94.2249 120.005 93.7128 121.417C93.4007 122.321 93.1325 123.236 92.7668 124.121C92.5885 124.546 92.4909 125.001 92.4791 125.463C92.4791 126.102 92.4498 126.741 92.4059 127.385C92.323 128.6 92.2499 129.814 92.1475 131.029C92.0792 131.865 92.0012 132.7 91.8987 133.531C91.7768 134.515 91.6549 135.454 91.5184 136.417C91.3965 137.278 91.2697 138.138 91.1136 138.994C91.0551 139.303 91.0161 139.613 90.9527 139.918C90.7966 140.606 90.6699 141.3 90.5138 141.993C90.3578 142.686 90.2066 143.37 90.0261 144.053C89.8457 144.736 89.6458 145.346 89.441 145.99C89.3811 146.246 89.3646 146.51 89.3922 146.772C89.3922 146.905 89.4849 146.964 89.6214 146.973C89.694 146.986 89.7687 146.979 89.8375 146.952C89.9063 146.925 89.9664 146.88 90.0115 146.821C90.1334 146.664 90.2553 146.506 90.3626 146.329C90.8616 145.578 91.3018 144.789 91.6793 143.969C92.0109 143.271 92.3425 142.573 92.6546 141.865C93.2489 140.513 93.773 139.132 94.2249 137.725C94.4492 137.037 94.6638 136.344 94.8296 135.641C94.9954 134.937 95.0978 134.288 95.2587 133.62C95.4196 132.951 95.4586 132.322 95.5513 131.653C95.6098 131.201 95.6098 130.739 95.6537 130.276C95.722 129.622 95.7269 128.964 95.7951 128.31C95.8293 128.015 95.7951 127.71 95.8488 127.42C95.9902 126.722 95.917 126.009 96.0292 125.306C96.117 124.76 96.078 124.194 96.1511 123.639C96.2438 122.97 96.2633 122.292 96.3072 121.618C96.3072 121.353 96.3072 121.087 96.3413 120.827C96.4632 120.064 96.4437 119.283 96.5364 118.516C96.5949 118.058 96.5851 117.601 96.629 117.139C96.707 116.372 96.6973 115.595 96.7899 114.907C96.7899 114.691 96.7899 114.563 96.7899 114.415C96.7899 114.268 96.7899 114.243 96.6875 114.219" fill="#C8C8C8"/>
<path d="M237.562 127.582C237.562 127.154 237.532 126.722 237.498 126.299C237.476 126.035 237.433 125.774 237.371 125.517C237.105 124.343 236.624 123.229 235.952 122.233C235.019 120.873 233.865 119.681 232.539 118.707C232.434 118.629 232.325 118.557 232.212 118.491C232.071 118.408 231.939 118.442 231.89 118.585C231.716 119.029 231.519 119.464 231.3 119.887C230.878 120.871 230.448 121.854 230.013 122.837C229.437 124.145 228.847 125.448 228.267 126.771C228.203 126.886 228.164 127.013 228.15 127.145C228.14 127.218 228.152 127.293 228.183 127.36C228.214 127.427 228.263 127.483 228.325 127.523C229.376 128.282 230.3 129.204 231.061 130.257C231.329 130.611 231.578 130.98 231.841 131.334C232.407 132.044 232.779 132.892 232.919 133.792C232.936 133.904 232.936 134.019 232.919 134.131C232.824 134.686 232.602 135.212 232.271 135.665C231.944 136.098 231.617 136.53 231.261 136.939C230.051 138.281 228.73 139.516 227.311 140.631C226.55 141.25 225.785 141.87 225.034 142.504C224.7 142.796 224.383 143.106 224.083 143.434C223.918 143.573 223.801 143.76 223.746 143.969C223.693 144.284 223.746 144.338 224.024 144.333C224.254 144.344 224.484 144.312 224.702 144.24C224.99 144.137 225.297 144.068 225.59 143.974C226.777 143.607 227.942 143.167 229.076 142.657C230.094 142.207 231.06 141.648 231.958 140.99C232.4 140.675 232.8 140.305 233.148 139.889C233.789 139.098 234.342 138.239 234.797 137.327C235.259 136.369 235.664 135.384 236.011 134.377C236.416 133.231 236.752 132.061 237.074 130.886C237.404 129.832 237.568 128.732 237.562 127.626" fill="#C8C8C8"/>
<path d="M32.4047 128.737C32.3096 128.104 32.1461 127.482 31.9171 126.884C31.582 126.004 31.1256 125.177 30.5614 124.426C29.8014 123.414 28.9202 122.5 27.9378 121.707C27.7378 121.539 27.5282 121.382 27.3136 121.215C27.099 121.048 26.904 121.072 26.7772 121.362C26.6504 121.653 26.5577 121.854 26.4456 122.134C26.1773 122.734 25.9043 123.334 25.6409 123.934C25.2508 124.824 24.8656 125.714 24.4705 126.599C24.0317 127.582 23.583 128.565 23.1344 129.549C23.1066 129.609 23.0837 129.671 23.0661 129.736C23.0498 129.791 23.0514 129.851 23.0707 129.906C23.0899 129.96 23.1259 130.007 23.1734 130.04L23.3733 130.188C24.2061 130.799 24.9568 131.516 25.6068 132.322C26.0944 132.907 26.509 133.536 26.9576 134.146C27.3334 134.666 27.6081 135.253 27.7671 135.877C27.849 136.179 27.8754 136.494 27.8451 136.806C27.7954 137.316 27.6101 137.804 27.3087 138.217C26.7638 138.999 26.1572 139.736 25.4946 140.42C24.9969 140.94 24.471 141.432 23.9195 141.895C22.7491 142.917 21.5397 143.901 20.3157 144.845C19.9016 145.167 19.5135 145.522 19.1551 145.907C18.9829 146.082 18.8353 146.281 18.7162 146.497C18.654 146.595 18.6218 146.709 18.6236 146.826C18.6222 146.875 18.6396 146.923 18.6723 146.96C18.705 146.996 18.7504 147.019 18.7991 147.023C19.0273 147.044 19.2575 147.021 19.477 146.954C20.5986 146.595 21.725 146.265 22.8271 145.838C24.2327 145.299 25.5661 144.585 26.7967 143.714C27.3496 143.331 27.8427 142.867 28.2596 142.337C28.8691 141.562 29.3939 140.723 29.825 139.834C30.2956 138.828 30.7091 137.796 31.0637 136.742C31.4782 135.562 31.8195 134.357 32.1268 133.148C32.3862 132.27 32.5144 131.359 32.5071 130.444C32.5133 129.876 32.4791 129.31 32.4047 128.747" fill="#C8C8C8"/>
<path d="M85.9445 102.581L86.559 103.112L88.9485 105.196C89.1338 105.354 89.324 105.496 89.5142 105.644L89.8116 105.88C89.992 106.018 90.2095 106.099 90.4358 106.111C90.6856 106.137 90.9381 106.112 91.1779 106.037C91.4177 105.962 91.6397 105.838 91.8305 105.673C92.2841 105.28 92.6828 104.827 93.0155 104.326C93.6167 103.427 94.1341 102.474 94.5614 101.479C94.9238 100.815 95.1165 100.07 95.1222 99.3111C95.1446 98.4116 94.8946 97.5266 94.4054 96.7741C94.055 96.2046 93.6302 95.6853 93.1423 95.2303C92.6108 94.7386 92.0695 94.301 91.5233 93.8487C91.2746 93.6471 91.0356 93.4553 90.7626 93.2636C90.6741 93.1774 90.568 93.1117 90.4518 93.0709C90.3356 93.0302 90.212 93.0154 90.0896 93.0276C89.984 93.0563 89.8858 93.1076 89.8016 93.178C89.7175 93.2484 89.6494 93.3363 89.6019 93.4357L89.4605 93.6717C89.0997 94.2666 88.729 94.8812 88.4121 95.5253L86.9832 98.3917L85.6666 101.057C85.5923 101.199 85.5319 101.349 85.4861 101.504C85.4421 101.654 85.4402 101.813 85.4807 101.964C85.5211 102.115 85.6024 102.252 85.7153 102.359L85.9445 102.581Z" fill="#C8C8C8"/>
<path d="M85.9445 102.581L86.559 103.112L88.9485 105.196C89.1338 105.354 89.324 105.496 89.5142 105.644L89.8116 105.88C89.992 106.018 90.2095 106.099 90.4358 106.111C90.6856 106.137 90.9381 106.112 91.1779 106.037C91.4177 105.962 91.6397 105.838 91.8305 105.673C92.2841 105.28 92.6828 104.827 93.0155 104.326C93.6167 103.427 94.1341 102.474 94.5614 101.479C94.9238 100.815 95.1165 100.07 95.1222 99.3111C95.1446 98.4116 94.8946 97.5266 94.4054 96.7741C94.055 96.2046 93.6302 95.6853 93.1423 95.2303C92.6108 94.7386 92.0695 94.301 91.5233 93.8487C91.2746 93.6471 91.0356 93.4553 90.7626 93.2636C90.6741 93.1774 90.568 93.1117 90.4518 93.0709C90.3356 93.0302 90.212 93.0154 90.0896 93.0276C89.984 93.0563 89.8858 93.1076 89.8016 93.178C89.7175 93.2484 89.6494 93.3363 89.6019 93.4357L89.4605 93.6717C89.0997 94.2666 88.729 94.8812 88.4121 95.5253L86.9832 98.3917L85.6666 101.057C85.5923 101.199 85.5319 101.349 85.4861 101.504C85.4421 101.654 85.4402 101.813 85.4807 101.964C85.5211 102.115 85.6024 102.252 85.7153 102.359L85.9445 102.581Z" stroke="white" stroke-width="2" stroke-miterlimit="10"/>
<path d="M55.3148 105.673L55.8024 106.121C56.2121 106.49 56.6168 106.858 57.0362 107.217C57.4556 107.576 57.8603 107.906 58.2749 108.25L59.0795 108.913C59.2423 109.056 59.4339 109.162 59.6409 109.223C59.848 109.284 60.0657 109.299 60.2791 109.267C60.6032 109.207 60.9069 109.065 61.1618 108.854C61.6152 108.497 62.0088 108.069 62.3273 107.586C62.5809 107.207 62.8149 106.824 63.049 106.426C63.5488 105.578 63.97 104.686 64.3072 103.761C64.4731 103.27 64.5523 102.755 64.5412 102.237C64.5259 101.565 64.3591 100.906 64.0536 100.309C63.815 99.8572 63.5271 99.4334 63.1953 99.0457C62.6044 98.3762 61.9512 97.7653 61.2447 97.2216C60.9033 96.9463 60.5717 96.6955 60.2352 96.4497L60.0402 96.3071C59.9668 96.2448 59.8806 96.1997 59.7878 96.175C59.6951 96.1504 59.5981 96.1468 59.5037 96.1645C59.4092 96.1852 59.3201 96.2262 59.2427 96.2848C59.1653 96.3433 59.1013 96.418 59.0551 96.5037L58.8698 96.8086C58.6796 97.1183 58.4845 97.4281 58.3139 97.7526C57.875 98.5638 57.4507 99.3849 57.0313 100.211C56.9192 100.432 56.8168 100.663 56.7095 100.894C56.6022 101.125 56.5486 101.248 56.4657 101.42L55.4903 103.412L55.0368 104.292L54.9539 104.469C54.8618 104.636 54.8294 104.829 54.8622 105.017C54.8951 105.205 54.9912 105.376 55.1343 105.501L55.3148 105.673Z" fill="#C8C8C8"/>
<path d="M55.3148 105.673L55.8024 106.121C56.2121 106.49 56.6168 106.858 57.0362 107.217C57.4556 107.576 57.8603 107.906 58.2749 108.25L59.0795 108.913C59.2423 109.056 59.4339 109.162 59.6409 109.223C59.848 109.284 60.0657 109.299 60.2791 109.267C60.6032 109.207 60.9069 109.065 61.1618 108.854C61.6152 108.497 62.0088 108.069 62.3273 107.586C62.5809 107.207 62.8149 106.824 63.049 106.426C63.5488 105.578 63.97 104.686 64.3072 103.761C64.4731 103.27 64.5523 102.755 64.5412 102.237C64.5259 101.565 64.3591 100.906 64.0536 100.309C63.815 99.8572 63.5271 99.4334 63.1953 99.0457C62.6044 98.3762 61.9512 97.7653 61.2447 97.2216C60.9033 96.9463 60.5717 96.6955 60.2352 96.4497L60.0402 96.3071C59.9668 96.2448 59.8806 96.1997 59.7878 96.175C59.6951 96.1504 59.5981 96.1468 59.5037 96.1645C59.4092 96.1852 59.3201 96.2262 59.2427 96.2848C59.1653 96.3433 59.1013 96.418 59.0551 96.5037L58.8698 96.8086C58.6796 97.1183 58.4845 97.4281 58.3139 97.7526C57.875 98.5638 57.4507 99.3849 57.0313 100.211C56.9192 100.432 56.8168 100.663 56.7095 100.894C56.6022 101.125 56.5486 101.248 56.4657 101.42L55.4903 103.412L55.0368 104.292L54.9539 104.469C54.8618 104.636 54.8294 104.829 54.8622 105.017C54.8951 105.205 54.9912 105.376 55.1343 105.501L55.3148 105.673Z" stroke="white" stroke-width="2" stroke-miterlimit="10"/>
<path d="M64.3706 105.57L64.434 105.624C64.7412 105.885 65.0484 106.15 65.3361 106.435C65.7653 106.853 66.2237 107.237 66.6869 107.615C66.9649 107.846 67.2429 108.073 67.5111 108.309C67.6671 108.446 67.8329 108.574 67.9987 108.702C68.1645 108.83 68.2231 108.869 68.3303 108.963C68.5638 109.16 68.8544 109.276 69.1586 109.293C69.4627 109.309 69.7642 109.226 70.0176 109.056C70.2664 108.922 70.4975 108.757 70.7052 108.564C71.1481 108.12 71.5376 107.625 71.8658 107.089C72.3919 106.223 72.8579 105.321 73.2605 104.39L73.3142 104.267C73.5722 103.669 73.7098 103.026 73.7189 102.374C73.7189 102.187 73.7189 102.089 73.6848 101.991C73.6632 101.593 73.5776 101.201 73.4312 100.83C73.1746 100.227 72.833 99.6638 72.4169 99.1587C72.0568 98.7489 71.6725 98.3614 71.266 97.9983C70.6808 97.4673 70.0518 96.9855 69.4422 96.5233L69.174 96.3168L69.0033 96.1841H68.6863C68.5224 96.2072 68.3738 96.2936 68.2718 96.425C68.2367 96.4707 68.2042 96.5183 68.1743 96.5676L67.8768 97.0593C67.5501 97.605 67.2234 98.1508 66.9405 98.726L65.0923 102.458L64.2682 104.12L64.1365 104.4C64.03 104.591 63.9951 104.814 64.038 105.029C64.081 105.244 64.199 105.436 64.3706 105.57Z" fill="#C8C8C8"/>
<path d="M64.3706 105.57L64.434 105.624C64.7412 105.885 65.0484 106.15 65.3361 106.435C65.7653 106.853 66.2237 107.237 66.6869 107.615C66.9649 107.846 67.2429 108.073 67.5111 108.309C67.6671 108.446 67.8329 108.574 67.9987 108.702C68.1645 108.83 68.2231 108.869 68.3303 108.963C68.5638 109.16 68.8544 109.276 69.1586 109.293C69.4627 109.309 69.7642 109.226 70.0176 109.056C70.2664 108.922 70.4975 108.757 70.7052 108.564C71.1481 108.12 71.5376 107.625 71.8658 107.089C72.3919 106.223 72.8579 105.321 73.2605 104.39L73.3142 104.267C73.5722 103.669 73.7098 103.026 73.7189 102.374C73.7189 102.187 73.7189 102.089 73.6848 101.991C73.6632 101.593 73.5776 101.201 73.4312 100.83C73.1746 100.227 72.833 99.6638 72.4169 99.1587C72.0568 98.7489 71.6725 98.3614 71.266 97.9983C70.6808 97.4673 70.0518 96.9855 69.4422 96.5233L69.174 96.3168L69.0033 96.1841H68.6863C68.5224 96.2072 68.3738 96.2936 68.2718 96.425C68.2367 96.4707 68.2042 96.5183 68.1743 96.5676L67.8768 97.0593C67.5501 97.605 67.2234 98.1508 66.9405 98.726L65.0923 102.458L64.2682 104.12L64.1365 104.4C64.03 104.591 63.9951 104.814 64.038 105.029C64.081 105.244 64.199 105.436 64.3706 105.57Z" stroke="white" stroke-width="2" stroke-miterlimit="10"/>
<path d="M205.172 153.783C204.907 153.368 204.603 152.98 204.265 152.623C203.432 151.796 202.539 151.033 201.592 150.341L201.436 150.219L201.295 150.13C201.169 150.058 201.023 150.032 200.881 150.056C200.739 150.08 200.609 150.153 200.514 150.263C200.46 150.328 200.411 150.397 200.368 150.469C199.745 151.461 199.177 152.487 198.666 153.542C198.12 154.629 197.589 155.725 197.062 156.822L196.394 158.203C196.345 158.297 196.321 158.351 196.296 158.41C196.218 158.588 196.201 158.786 196.246 158.976C196.291 159.165 196.396 159.334 196.545 159.457L196.706 159.59L196.901 159.757C197.603 160.45 198.364 161.084 199.1 161.724L199.476 162.038C199.724 162.25 199.963 162.456 200.232 162.663L200.432 162.825C200.682 163.043 200.996 163.173 201.326 163.194C201.656 163.215 201.984 163.127 202.26 162.943C202.493 162.807 202.708 162.642 202.899 162.451C203.266 162.093 203.593 161.696 203.874 161.266C204.55 160.232 205.118 159.13 205.567 157.977C205.813 157.432 205.921 156.834 205.879 156.237C205.911 155.363 205.663 154.503 205.172 153.783Z" fill="#C8C8C8"/>
<path d="M205.172 153.783C204.907 153.368 204.603 152.98 204.265 152.623C203.432 151.796 202.539 151.033 201.592 150.341L201.436 150.219L201.295 150.13C201.169 150.058 201.023 150.032 200.881 150.056C200.739 150.08 200.609 150.153 200.514 150.263C200.46 150.328 200.411 150.397 200.368 150.469C199.745 151.461 199.177 152.487 198.666 153.542C198.12 154.629 197.589 155.725 197.062 156.822L196.394 158.203C196.345 158.297 196.321 158.351 196.296 158.41C196.218 158.588 196.201 158.786 196.246 158.976C196.291 159.165 196.396 159.334 196.545 159.457L196.706 159.59L196.901 159.757C197.603 160.45 198.364 161.084 199.1 161.724L199.476 162.038C199.724 162.25 199.963 162.456 200.232 162.663L200.432 162.825C200.682 163.043 200.996 163.173 201.326 163.194C201.656 163.215 201.984 163.127 202.26 162.943C202.493 162.807 202.708 162.642 202.899 162.451C203.266 162.093 203.593 161.696 203.874 161.266C204.55 160.232 205.118 159.13 205.567 157.977C205.813 157.432 205.921 156.834 205.879 156.237C205.911 155.363 205.663 154.503 205.172 153.783Z" stroke="white" stroke-width="2" stroke-miterlimit="10"/>
<path d="M214.788 154.934C214.49 154.086 214.007 153.316 213.374 152.682C212.539 151.836 211.635 151.061 210.672 150.366L210.507 150.238C210.432 150.169 210.342 150.119 210.244 150.091C210.146 150.063 210.044 150.059 209.944 150.078C209.844 150.098 209.751 150.141 209.671 150.204C209.59 150.266 209.526 150.347 209.482 150.44L209.268 150.789C209.058 151.128 208.844 151.472 208.663 151.826C208.483 152.18 208.332 152.47 208.176 152.81C207.771 153.572 207.356 154.363 206.995 155.175C206.708 155.833 206.381 156.477 206.054 157.117L205.615 157.992C205.508 158.203 205.454 158.311 205.406 158.424C205.314 158.603 205.288 158.809 205.331 159.005C205.373 159.202 205.483 159.377 205.64 159.501L205.83 159.663C205.89 159.709 205.947 159.758 206.001 159.811C206.459 160.268 206.947 160.686 207.464 161.104L207.776 161.374C208.127 161.679 208.493 161.974 208.853 162.269L209.482 162.79C209.739 163.042 210.075 163.194 210.432 163.22C210.789 163.246 211.143 163.144 211.433 162.933C211.845 162.673 212.206 162.339 212.501 161.95C213.004 161.302 213.445 160.607 213.818 159.875C214.12 159.295 214.398 158.69 214.647 158.09C214.926 157.519 215.044 156.881 214.988 156.246C215.01 155.8 214.942 155.353 214.788 154.934Z" fill="#C8C8C8"/>
<path d="M214.788 154.934C214.49 154.086 214.007 153.316 213.374 152.682C212.539 151.836 211.635 151.061 210.672 150.366L210.507 150.238C210.432 150.169 210.342 150.119 210.244 150.091C210.146 150.063 210.044 150.059 209.944 150.078C209.844 150.098 209.751 150.141 209.671 150.204C209.59 150.266 209.526 150.347 209.482 150.44L209.268 150.789C209.058 151.128 208.844 151.472 208.663 151.826C208.483 152.18 208.332 152.47 208.176 152.81C207.771 153.572 207.356 154.363 206.995 155.175C206.708 155.833 206.381 156.477 206.054 157.117L205.615 157.992C205.508 158.203 205.454 158.311 205.406 158.424C205.314 158.603 205.288 158.809 205.331 159.005C205.373 159.202 205.483 159.377 205.64 159.501L205.83 159.663C205.89 159.709 205.947 159.758 206.001 159.811C206.459 160.268 206.947 160.686 207.464 161.104L207.776 161.374C208.127 161.679 208.493 161.974 208.853 162.269L209.482 162.79C209.739 163.042 210.075 163.194 210.432 163.22C210.789 163.246 211.143 163.144 211.433 162.933C211.845 162.673 212.206 162.339 212.501 161.95C213.004 161.302 213.445 160.607 213.818 159.875C214.12 159.295 214.398 158.69 214.647 158.09C214.926 157.519 215.044 156.881 214.988 156.246C215.01 155.8 214.942 155.353 214.788 154.934Z" stroke="white" stroke-width="2" stroke-miterlimit="10"/>
<path d="M218.631 104.1L219.041 104.469L219.499 104.887C220.089 105.447 220.708 105.973 221.328 106.494L221.962 107.035C222.215 107.252 222.449 107.463 222.732 107.67C222.988 107.889 223.308 108.019 223.643 108.042C223.979 108.064 224.312 107.976 224.595 107.792C224.663 107.753 224.722 107.709 224.785 107.665C225.298 107.287 225.741 106.821 226.092 106.288C226.743 105.356 227.294 104.357 227.735 103.308L227.828 103.112C228.09 102.578 228.281 102.01 228.394 101.425C228.524 100.669 228.478 99.8932 228.257 99.1587C227.931 98.1942 227.384 97.3203 226.663 96.6069C225.755 95.6971 224.776 94.8619 223.737 94.1093C223.643 94.0323 223.537 93.9709 223.425 93.9274L223.225 93.8585L223.005 93.9667C222.836 94.0668 222.699 94.2135 222.61 94.3895L222.259 94.9894C221.971 95.481 221.684 95.9727 221.435 96.4644L220.738 97.8853C220.445 98.4753 220.152 99.0604 219.865 99.6504C219.621 100.142 219.377 100.634 219.143 101.165L218.655 102.148C218.616 102.232 218.577 102.31 218.533 102.389C218.459 102.516 218.392 102.647 218.333 102.782C218.207 102.999 218.167 103.256 218.222 103.501C218.277 103.746 218.424 103.96 218.631 104.1Z" fill="#C8C8C8"/>
<path d="M218.631 104.1L219.041 104.469L219.499 104.887C220.089 105.447 220.708 105.973 221.328 106.494L221.962 107.035C222.215 107.252 222.449 107.463 222.732 107.67C222.988 107.889 223.308 108.019 223.643 108.042C223.979 108.064 224.312 107.976 224.595 107.792C224.663 107.753 224.722 107.709 224.785 107.665C225.298 107.287 225.741 106.821 226.092 106.288C226.743 105.356 227.294 104.357 227.735 103.308L227.828 103.112C228.09 102.578 228.281 102.01 228.394 101.425C228.524 100.669 228.478 99.8932 228.257 99.1587C227.931 98.1942 227.384 97.3203 226.663 96.6069C225.755 95.6971 224.776 94.8619 223.737 94.1093C223.643 94.0323 223.537 93.9709 223.425 93.9274L223.225 93.8585L223.005 93.9667C222.836 94.0668 222.699 94.2135 222.61 94.3895L222.259 94.9894C221.971 95.481 221.684 95.9727 221.435 96.4644L220.738 97.8853C220.445 98.4753 220.152 99.0604 219.865 99.6504C219.621 100.142 219.377 100.634 219.143 101.165L218.655 102.148C218.616 102.232 218.577 102.31 218.533 102.389C218.459 102.516 218.392 102.647 218.333 102.782C218.207 102.999 218.167 103.256 218.222 103.501C218.277 103.746 218.424 103.96 218.631 104.1Z" stroke="white" stroke-width="2" stroke-miterlimit="10"/>
</g>
<path d="M77.0204 102.581L77.63 103.112L80.0244 105.196C80.2048 105.354 80.395 105.496 80.5852 105.644L80.8875 105.88C81.067 106.02 81.285 106.101 81.5117 106.111C81.7607 106.137 82.0124 106.112 82.2514 106.037C82.4904 105.962 82.7116 105.838 82.9015 105.673C83.3568 105.281 83.7571 104.827 84.0914 104.326C84.6889 103.425 85.2062 102.472 85.6373 101.479C86.0005 100.815 86.1917 100.07 86.1932 99.3112C86.2146 98.4125 85.9665 97.5283 85.4812 96.7742C85.1279 96.2055 84.7016 95.6864 84.2133 95.2303C83.6818 94.7386 83.1356 94.3011 82.5894 93.8487C82.3456 93.6471 82.1018 93.4554 81.8287 93.2636C81.7406 93.1769 81.6346 93.1108 81.5183 93.07C81.402 93.0292 81.2782 93.0148 81.1557 93.0276C81.0505 93.0572 80.9527 93.1088 80.8687 93.1792C80.7846 93.2495 80.7163 93.3369 80.6681 93.4357L80.5267 93.6717C80.1707 94.2666 79.8001 94.8812 79.4782 95.5253L78.0591 98.3917L76.7424 101.057C76.6682 101.2 76.6078 101.349 76.562 101.504C76.5168 101.654 76.5139 101.813 76.5535 101.964C76.5931 102.115 76.6738 102.252 76.7863 102.36C76.9034 102.473 76.957 102.527 77.0204 102.581Z" fill="#C8C8C8"/>
<path d="M77.0204 102.581L77.63 103.112L80.0244 105.196C80.2048 105.354 80.395 105.496 80.5852 105.644L80.8875 105.88C81.067 106.02 81.285 106.101 81.5117 106.111C81.7607 106.137 82.0124 106.112 82.2514 106.037C82.4904 105.962 82.7116 105.838 82.9015 105.673C83.3568 105.281 83.7571 104.827 84.0914 104.326C84.6889 103.425 85.2062 102.472 85.6373 101.479C86.0005 100.815 86.1917 100.07 86.1932 99.3112C86.2146 98.4125 85.9665 97.5283 85.4812 96.7742C85.1279 96.2055 84.7016 95.6864 84.2133 95.2303C83.6818 94.7386 83.1356 94.3011 82.5894 93.8487C82.3456 93.6471 82.1018 93.4554 81.8287 93.2636C81.7406 93.1769 81.6346 93.1108 81.5183 93.07C81.402 93.0292 81.2782 93.0148 81.1557 93.0276C81.0505 93.0572 80.9527 93.1088 80.8687 93.1792C80.7846 93.2495 80.7163 93.3369 80.6681 93.4357L80.5267 93.6717C80.1707 94.2666 79.8001 94.8812 79.4782 95.5253L78.0591 98.3917L76.7424 101.057C76.6682 101.2 76.6078 101.349 76.562 101.504C76.5168 101.654 76.5139 101.813 76.5535 101.964C76.5931 102.115 76.6738 102.252 76.7863 102.36C76.9034 102.473 76.957 102.527 77.0204 102.581Z" stroke="white" stroke-width="2" stroke-miterlimit="10"/>
</g>
<defs>
<clipPath id="clip0_256_14">
<rect width="256" height="72" fill="white" transform="translate(0 92)"/>
</clipPath>
</defs>
</svg>
