<svg width="256" height="256" viewBox="0 0 256 256" fill="none" xmlns="http://www.w3.org/2000/svg">
<path d="M213.642 123.382L214.372 124.074C221.327 132.52 226.448 142.313 229.413 152.834C232.172 162.715 232.411 173.127 230.107 183.123C229.81 184.595 229.13 185.964 228.135 187.091C227.06 188.367 225.914 189.582 224.704 190.731C221.727 193.345 218.593 195.777 215.321 198.012C206.158 204.42 196.666 210.317 187.028 215.996C174.652 223.277 162.094 230.303 149.207 236.601C144.57 238.859 139.898 241.043 135.079 242.899C133.09 243.661 131.053 244.293 128.982 244.793C127.422 245.167 125.796 245.167 124.236 244.793C120.828 243.943 117.504 242.785 114.306 241.334C107.26 238.312 100.397 234.89 93.6431 231.286C77.1419 222.586 61.0423 213.084 45.4538 203.036L40.5618 199.76L39.1381 198.631C39.4531 198.59 39.7722 198.59 40.0872 198.631C41.1459 199.104 42.2047 199.65 43.2634 200.124C49.0066 202.556 55.0261 204.28 61.1883 205.257C65.7605 206.003 70.3929 206.32 75.0245 206.203C83.3517 206.059 91.5574 204.187 99.1192 200.706C106.202 197.43 113.284 194.044 120.22 190.44C134.239 183.159 148.051 175.478 161.656 167.396C173.521 160.37 185.276 153.198 196.666 145.553C199.696 143.478 202.653 141.293 205.574 139.073C207.272 137.786 208.882 136.387 210.393 134.886C212.42 132.955 213.71 130.381 214.043 127.605C214.119 126.867 214.119 126.123 214.043 125.385C213.97 124.766 213.824 124.256 213.642 123.382Z" fill="white"/>
<path d="M214.372 124.074L213.642 123.382C213.642 124.256 213.97 124.766 214.007 125.275C214.083 126.014 214.083 126.758 214.007 127.496C213.674 130.272 212.383 132.846 210.356 134.777C208.845 136.278 207.235 137.676 205.537 138.964C202.617 141.184 199.66 143.369 196.63 145.444C188.269 151.159 179.727 156.547 171.075 161.789C213.313 154.181 226.018 172.019 229.851 183.378V183.05C232.155 173.054 231.917 162.642 229.157 152.761C226.26 142.286 221.226 132.521 214.372 124.074Z" fill="white"/>
<path d="M233.283 166.486C232.735 166.158 232.808 165.685 232.808 165.284C232.687 162.579 232.345 159.888 231.786 157.239C229.615 145.454 224.604 134.372 217.183 124.948C213.808 120.766 209.849 117.088 205.428 114.026C199.915 110.386 194.476 106.418 188.781 102.777C175.09 93.8943 160.999 85.5576 146.797 77.5485C135.261 71.032 123.615 64.734 111.714 58.9092C107.114 56.6521 102.514 54.4678 97.732 52.6476C95.9985 51.9649 94.2318 51.3696 92.4384 50.8637C90.1733 50.2064 87.7672 50.2064 85.5021 50.8637C84.2194 51.2485 83.036 51.9069 82.0339 52.7932L81.0482 53.5941C81.0258 53.3276 81.0258 53.0597 81.0482 52.7932C85.8674 39.6988 94.2333 28.1934 105.216 19.5555C110.934 15.2091 117.371 11.8948 124.236 9.76262C126.246 9.16514 128.383 9.13992 130.406 9.68981C133.044 10.3251 135.622 11.19 138.109 12.2746C144.424 14.8593 150.521 17.8445 156.581 20.9753C175.187 30.593 193.259 41.2021 210.721 52.7568C214.956 55.56 219.081 58.4359 223.061 61.5668C224.851 62.9832 226.546 64.5155 228.135 66.1538C229.322 67.3814 230.187 68.8819 230.654 70.5224C231.642 74.0958 232.302 77.7513 232.626 81.4438C233.974 95.0904 234.632 108.796 234.597 122.509C234.597 132.229 234.597 141.949 234.159 151.632C233.94 156.401 233.575 161.171 233.283 165.94C233.392 165.867 233.319 166.194 233.283 166.486Z" fill="white"/>
<path d="M85.3195 50.9001C87.5846 50.2428 89.9908 50.2428 92.2559 50.9001C94.0492 51.406 95.8159 52.0014 97.5494 52.6839C102.332 54.5042 106.932 56.7249 111.532 58.9456C120.074 63.1321 128.471 67.5735 136.795 72.1241C103.464 35.7193 121.206 13.8763 125.477 9.58057L124.236 9.87181C117.359 12 110.909 15.3145 105.179 19.6647C94.1967 28.3026 85.8309 39.808 81.0117 52.9024C80.9892 53.1689 80.9892 53.4368 81.0117 53.7033L81.9974 52.9024C82.9501 52.0078 84.0824 51.3253 85.3195 50.9001Z" fill="white"/>
<path d="M108.502 15.4418C108.319 16.0971 107.808 16.2791 107.443 16.5339C97.5317 23.3496 89.4062 32.4386 83.7497 43.0367C80.5387 48.9245 78.3537 55.3134 77.288 61.9308C76.9959 63.7146 76.8134 65.5713 76.6674 67.3187C75.8277 77.1116 75.2071 86.9045 74.8785 96.7339C74.3674 112.679 74.1849 128.588 74.5865 144.533C74.5865 149.885 74.8055 155.273 75.0245 160.624C75.2801 167.578 75.6816 174.531 76.3023 181.448C76.5858 185.213 77.0978 188.957 77.8356 192.661C78.1183 194.394 78.6597 196.075 79.4419 197.648C80.0407 198.775 80.7898 199.816 81.6688 200.743C82.6837 201.805 83.934 202.615 85.3195 203.109L86.8163 203.655C85.0275 203.91 83.6402 204.201 82.2165 204.31C79.3689 204.529 76.4848 204.784 73.6008 204.856C65.9807 205.022 58.3811 204.003 51.0759 201.835C42.6192 199.325 34.8094 195.015 28.186 189.202L27.8209 188.875C25.6456 187.211 24.1218 184.842 23.5131 182.176C22.9255 180.024 22.4864 177.835 22.1988 175.623C21.3226 169.143 20.848 162.627 20.5195 156.11C19.6798 140.675 19.6798 125.202 20.0084 109.767C20.1544 102.971 20.483 96.1757 20.9941 89.3801C21.2712 84.7701 21.7829 80.1772 22.5274 75.619C22.8924 73.5804 23.367 71.5781 23.9146 69.5758C24.3747 68.0445 25.2162 66.6543 26.3606 65.5349C28.2991 63.5589 30.3861 61.7333 32.6033 60.0742C38.1524 55.8512 43.9205 51.9559 49.7981 48.2062C67.1026 37.1097 84.9791 26.9266 103.354 17.6989L107.954 15.4782L108.502 15.4418Z" fill="white"/>
<path d="M81.4863 200.706C80.6073 199.78 79.8582 198.739 79.2594 197.612C78.4772 196.039 77.9358 194.357 77.6531 192.624C76.9153 188.921 76.4033 185.177 76.1198 181.412C75.4627 174.495 75.0976 167.541 74.842 160.588C74.6595 155.71 74.55 150.832 74.4404 146.026C70.2421 158.913 56.1869 193.898 26.6162 188.037C26.9595 188.366 27.3254 188.67 27.7114 188.947L28.0765 189.275C34.7033 195.075 42.5128 199.372 50.9664 201.871C58.2717 204.039 65.8712 205.059 73.4913 204.893C76.3753 204.893 79.2229 204.602 82.107 204.347C83.5307 204.347 84.9545 203.946 86.7068 203.691L85.21 203.145C83.791 202.641 82.5141 201.804 81.4863 200.706Z" fill="white"/>
</svg>
