<svg width="256" height="256" viewBox="0 0 256 256" fill="none" xmlns="http://www.w3.org/2000/svg">
<g clip-path="url(#clip0_256_14)">
<path d="M125.523 79.5826C119.467 82.3498 113.778 88.9909 113.778 93.4183C113.778 95.632 114.328 95.632 115.98 93.9717C117.448 92.4959 126.44 91.758 144.424 91.758H170.667V84.379V77H151.031C138.552 77.1845 129.009 78.1068 125.523 79.5826Z" fill="white"/>
<path d="M211.039 83.4566L206.635 88.253L211.59 93.2338L216.545 98.2146L221.5 93.2338L226.454 88.253L222.05 83.4566C219.664 80.874 217.279 78.8447 216.545 78.8447C215.811 78.8447 213.425 80.874 211.039 83.4566Z" fill="white"/>
<path d="M8.44154 108.914C-1.28463 131.236 -1.83517 139.906 5.87236 149.868C10.0931 155.402 19.4523 160.014 26.2423 160.014C28.4444 160.014 33.5828 158.353 37.253 156.509C43.6759 153.188 44.777 153.188 50.4659 155.586C53.9526 157.062 58.1734 158.169 59.8251 158.169C64.9634 158.169 75.2401 152.266 77.4423 148.207C79.4609 144.518 79.2774 144.518 75.7906 147.469C70.6523 152.081 62.0272 151.712 57.2559 146.547C53.5856 142.673 53.2186 140.275 53.2186 120.721V99.137H45.8781H38.5376V112.05C38.5376 119.06 37.9871 124.964 37.253 124.964C36.519 124.964 34.1333 123.119 31.7476 120.905L27.5268 117.031L22.572 121.458C17.4337 126.255 17.4337 125.701 24.5906 109.652L29.362 99.137H21.1039C12.8458 99.137 12.8458 99.137 8.44154 108.914ZM31.7476 132.711C34.1333 130.498 36.519 128.653 37.253 128.653C40.0057 128.653 38.5376 148.761 35.6014 151.528C31.9311 155.217 23.4896 155.217 16.5161 151.712C10.2767 148.392 9.90964 145.809 14.1304 134.556L17.0666 126.624L22.205 131.605L27.5268 136.77L31.7476 132.711Z" fill="white"/>
<path d="M67.8996 100.244C67.8996 100.797 72.4874 111.866 77.9928 124.963C83.4982 138.061 88.086 150.052 88.086 151.528C88.086 155.955 91.5727 155.033 93.9584 149.868C96.5276 144.333 98.3627 143.964 100.932 149.13C103.868 154.479 114.879 158.722 122.219 157.431C128.642 156.14 137.634 149.868 137.634 146.732C137.634 145.625 136.166 145.994 134.331 147.654C129.009 152.45 120.201 151.712 115.796 145.994C112.493 141.751 111.943 138.43 111.943 120.167V99.137H104.602H97.4451L96.8946 114.264L96.344 129.575L89.9211 114.448L83.4982 99.137H75.7906C71.3863 99.137 67.8996 99.6904 67.8996 100.244Z" fill="white"/>
<path d="M143.14 128.653V158.169H150.48H157.821V128.653V99.137H150.48H143.14V128.653Z" fill="white"/>
<path d="M171.217 102.827C164.06 107.254 162.959 112.05 163.693 137.877L164.244 157.247L171.217 157.8L178.007 158.353V131.974C178.007 105.409 178.925 100.982 184.797 100.982C186.632 100.982 187.183 105.778 187.183 120.721C187.183 143.227 188.651 147.654 198.194 154.111C207.002 160.014 216.912 158.722 224.619 150.606C229.391 145.809 229.574 145.256 225.72 147.838C219.664 151.897 211.773 151.528 207.369 147.1C203.148 142.858 203.332 143.411 203.699 117.953L204.066 99.137H190.486C180.393 99.137 175.621 100.059 171.217 102.827Z" fill="white"/>
<path d="M214.893 102.089C216.361 103.749 222.417 116.847 228.473 131.236L239.484 157.247L247.375 157.8C251.596 158.169 255.082 157.8 255.082 156.878C255.082 156.14 250.311 144.333 244.622 130.682C233.244 104.302 229.024 99.137 217.646 99.137C213.058 99.137 212.691 99.506 214.893 102.089Z" fill="white"/>
<path d="M124.789 122.196L120.384 126.993L124.972 131.605L129.56 136.216L133.964 131.42L138.368 126.624L133.781 122.012L129.193 117.4L124.789 122.196Z" fill="white"/>
<path d="M44.043 162.781L39.6387 167.577L44.5935 172.558L49.5483 177.539L54.5032 172.558L59.458 167.577L55.0537 162.781C52.6681 160.198 50.2824 158.169 49.5483 158.169C48.8143 158.169 46.4286 160.198 44.043 162.781Z" fill="white"/>
<path d="M64.2294 162.781L59.8251 167.577L64.7799 172.374L69.5512 177.354L74.1391 173.111L78.7269 168.684L74.6896 163.519C72.4874 160.752 70.1018 158.353 69.5512 158.353C69.0007 158.169 66.615 160.198 64.2294 162.781Z" fill="white"/>
<path d="M183.512 162.781C178.741 167.762 179.475 171.451 185.898 175.51C188.284 176.985 189.935 176.432 193.606 172.742L198.193 168.131L193.055 163.15L187.917 158.169L183.512 162.781Z" fill="white"/>
</g>
<defs>
<clipPath id="clip0_256_14">
<rect width="256" height="101" fill="white" transform="translate(0 77)"/>
</clipPath>
</defs>
</svg>
