<svg width="256" height="256" viewBox="0 0 256 256" fill="none" xmlns="http://www.w3.org/2000/svg">
<g clip-path="url(#clip0_256_14)">
<path d="M119.879 71.3106C118.59 71.4142 113.743 71.7248 109.051 72.0355C77.5992 74.1065 48.4157 82.0282 27.6882 94.0919C20.5212 98.3374 15.6745 102.117 10.57 107.605C4.27952 114.388 1.03118 120.912 0.464013 128.16C-0.618766 140.431 6.18728 151.977 20.4697 162.332C26.0898 166.37 40.63 173.723 47.5907 176.052C53.0046 177.865 53.9843 177.968 53.5718 176.933C53.4171 176.518 50.839 175.379 47.7969 174.292C36.402 170.409 21.0884 161.711 14.5917 155.498C4.1764 145.557 -0.25784 134.011 2.62957 124.277C6.49664 111.281 17.5822 100.564 36.866 91.296C62.0793 79.1287 93.119 72.9675 129.418 72.9157C153.6 72.8639 171.698 75.0385 192.941 80.6302C218.051 87.2057 238.572 98.5963 247.699 111.022C252.752 117.96 255.072 125.623 254.092 132.095C252.906 139.758 249.349 145.971 241.975 153.427L236.407 159.018H183.093C134.11 159.018 129.779 159.07 129.469 159.847C129.263 160.313 129.263 160.882 129.469 161.038C129.624 161.193 153.291 161.4 182.01 161.504C231.354 161.659 234.396 161.659 236.252 160.779C239.14 159.381 249.194 149.026 251.514 145.039C254.092 140.586 255.484 135.875 255.845 130.542C257.598 103.722 218.515 79.75 162.159 73.071C149.939 71.6213 128.644 70.7411 119.879 71.3106Z" fill="white"/>
<path d="M116.734 78.5074C106.37 80.5784 96.2127 85.4971 84.8693 94.04C81.4663 96.577 75.2789 102.531 64.8636 113.301C56.5623 121.843 49.7563 129.092 49.7563 129.351C49.7563 129.61 51.4062 131.422 53.4171 133.389L57.0264 136.91L64.3996 129.558C68.4213 125.571 72.0306 122.258 72.34 122.258C72.6493 122.258 73.0618 123.604 73.2681 125.312C73.5774 128.108 73.7837 128.574 76.1555 130.801C77.5476 132.095 78.8882 133.752 79.146 134.477C80.5897 138.205 78.682 142.968 75.0211 144.884L72.804 146.074H47.6938C20.0056 146.074 20.0572 146.074 14.5402 142.761L11.6012 140.949L13.509 143.33C16.087 146.489 22.2227 152.08 24.7492 153.582C29.596 156.481 31.6584 156.688 54.9124 156.688C79.6616 156.688 78.8882 156.844 84.1474 151.459C93.9956 141.311 91.7784 126.296 79.5585 119.928C77.9085 119.048 76.568 118.219 76.568 118.064C76.568 117.857 80.1772 114.181 84.6115 109.883C93.3253 101.34 100.028 96.3699 108.226 92.435C121.529 86.0148 133.027 86.7397 140.71 94.4542C146.227 99.9424 147.774 106 145.969 114.698C145.144 118.84 145.144 120.031 146.072 118.271C147.155 116.252 147.928 110.867 147.928 105.431C147.928 96.3182 145.505 90.0016 139.988 84.4098C136.688 81.0962 133.801 79.5429 128.851 78.5074C124.571 77.5754 121.271 77.5754 116.734 78.5074Z" fill="white"/>
<path d="M110.598 93.1081C110.65 93.3152 111.578 94.1436 112.712 94.972C114.929 96.5253 116.785 99.1658 116.785 100.771C116.785 102.065 115.136 104.758 112.3 108.071C95.8002 127.487 95.0268 128.626 93.9955 134.114C92.4487 142.347 97.2954 151.718 104.926 155.342C107.35 156.481 108.433 156.688 112.661 156.688C117.198 156.688 117.817 156.533 121.168 154.928C124.829 153.116 127.459 150.682 140.143 137.428C145.402 131.992 145.402 132.509 140.349 127.487L136.997 124.173L135.502 125.261C134.677 125.83 130.707 129.817 126.634 134.114C122.56 138.36 118.384 142.502 117.301 143.227C114.568 145.142 111.836 145.401 108.897 144.107C106.061 142.864 104.823 140.742 104.823 137.169C104.823 134.27 105.545 133.027 111.114 126.659C113.125 124.381 116.631 120.187 119.003 117.339C121.323 114.491 124.777 110.556 126.634 108.537C130.655 104.292 131.223 103.308 131.223 100.719C131.223 99.2176 130.81 98.441 129.263 96.8877C126.891 94.4543 124.984 93.9365 117.301 93.4705C114.053 93.3152 111.217 93.0563 111.011 92.901C110.753 92.7975 110.598 92.8492 110.598 93.1081Z" fill="white"/>
<path d="M225.579 114.854C225.579 114.854 226.662 115.527 227.951 116.304C232.076 118.737 233.416 122.724 231.199 126.348C229.549 129.092 215.37 143.33 213.359 144.262C211.606 145.091 207.997 145.091 205.728 144.211C205.212 144.003 204.645 144.469 204.078 145.557C203.563 146.437 202.17 148.663 200.984 150.527L198.819 153.893L201.036 154.825C207.275 157.569 212.792 157.569 218.206 154.876C221.248 153.375 223.517 151.304 235.015 139.913L248.266 126.659V123.707C248.266 121.119 248.06 120.497 246.667 118.892C243.78 115.63 242.697 115.32 233.674 115.009C229.24 114.854 225.579 114.802 225.579 114.854Z" fill="white"/>
<path d="M121.323 116.873C119.415 117.909 118.332 120.135 118.332 123.034C118.332 127.487 120.446 129.713 125.293 130.386C127.407 130.645 127.768 130.542 129.985 128.73L132.357 126.762L132.151 123.5C131.996 120.912 131.687 119.928 130.707 118.841C128.232 116.2 124.159 115.32 121.323 116.873Z" fill="white"/>
<path d="M179.123 116.77C174.018 118.219 171.595 120.135 159.89 131.992C153.6 138.36 147.825 144.055 146.949 144.677C144.886 146.178 140.864 146.178 138.338 144.677L136.482 143.589L132.46 147.68L128.387 151.822L129.676 152.857C132.254 154.876 138.183 157.465 141.019 157.776C144.474 158.19 149.269 157.051 152.775 155.032C154.219 154.255 160.354 148.456 167.573 141.104C177.988 130.594 180.309 128.471 182.062 128.005C184.537 127.332 186.754 127.901 189.383 129.869C195.725 134.632 191.961 145.608 183.969 145.557C180.721 145.557 178.143 143.641 176.338 140.017C175.513 138.256 174.534 136.807 174.173 136.807C173.296 136.755 165.768 144.625 165.768 145.557C165.768 147.99 170.873 153.219 175.565 155.549C178.659 157.103 179.277 157.206 184.072 157.206C188.919 157.206 189.486 157.103 192.735 155.498C201.294 151.252 205.47 143.227 204.027 133.7C203.356 129.144 201.964 126.193 198.922 122.775C194.075 117.339 185.929 114.906 179.123 116.77Z" fill="white"/>
<path d="M211.4 117.494C208.925 119.099 207.945 120.497 207.687 122.983C207.12 127.798 211.812 131.784 216.453 130.49C221.712 129.04 223.156 121.74 218.979 117.96C217.432 116.562 213.308 116.304 211.4 117.494Z" fill="white"/>
<path d="M54.3967 175.328V183.871H135.605H216.814V175.328V166.785H135.605H54.3967V175.328ZM166.8 172.532L167.057 176.363L168.295 174.706C168.965 173.826 169.945 172.946 170.46 172.842C171.749 172.48 171.698 172.842 170.099 174.913L168.81 176.674L170.615 179.211C172.265 181.541 172.368 181.8 171.44 181.8C170.821 181.8 169.79 180.971 168.914 179.729C167.264 177.45 166.8 177.554 166.8 180.091C166.8 181.437 166.593 181.8 165.768 181.8C164.789 181.8 164.737 181.437 164.737 175.431C164.737 171.91 164.892 168.856 165.098 168.649C166.026 167.768 166.542 169.011 166.8 172.532ZM116.167 173.878L118.848 178.434V173.878C118.848 169.684 118.899 169.373 119.879 169.373C120.91 169.373 120.962 169.632 120.807 175.431C120.601 183.508 120.034 183.663 116.064 177.036L113.176 172.221V176.984C113.176 180.919 113.022 181.8 112.403 181.8C111.784 181.8 111.629 180.764 111.629 175.586C111.629 169.995 111.732 169.373 112.557 169.373C113.125 169.373 114.362 170.927 116.167 173.878ZM92.3971 177.657C90.8503 182.783 89.8706 183.042 88.4785 178.589C87.9629 176.777 87.3957 175.69 87.241 176.104C87.0864 176.518 86.6223 177.916 86.2098 179.211C85.127 182.783 84.0443 182.524 82.7552 178.331C82.1881 176.415 81.5693 174.396 81.4147 173.878C81.2084 173.257 81.4147 172.998 82.1365 172.998C82.9099 172.998 83.2708 173.671 83.8896 176.208L84.663 179.47L85.6427 176.26C86.9832 171.859 88.1176 171.807 89.3035 176.208L90.18 179.418L91.1081 176.363C91.9331 173.464 93.1705 171.807 93.4799 173.153C93.5315 173.464 93.0674 175.535 92.3971 177.657ZM70.4322 175.845C70.7931 177.399 71.2056 178.693 71.3603 178.693C71.5665 178.693 72.0306 177.45 72.4431 175.949C73.0618 173.93 73.4743 173.257 74.1961 173.257C74.9695 173.257 75.382 173.93 76.0523 176.363L76.9289 179.47L77.857 176.208C78.5272 173.826 78.9913 172.998 79.7131 172.998C80.5381 172.998 80.4866 173.36 79.1975 177.243C77.3413 182.731 76.5164 182.99 75.1758 178.589L74.1961 175.328L73.2165 178.434C71.9274 182.266 70.69 182.835 69.9166 179.884C69.6072 178.797 69.04 176.829 68.6275 175.431C67.9057 173.153 67.9057 172.998 68.8338 172.998C69.5556 172.998 69.9166 173.619 70.4322 175.845ZM97.1923 176.311L98.0173 179.366L98.9969 176.156C99.6672 173.93 100.183 172.998 100.802 172.998C101.42 172.998 101.936 173.93 102.606 176.156L103.586 179.366L104.411 176.311C104.978 174.344 105.545 173.205 106.112 173.101C107.247 172.894 107.247 173.049 105.648 177.813C104.101 182.524 103.122 182.887 101.987 179.211C101.575 177.916 101.111 176.518 100.956 176.104C100.802 175.69 100.234 176.777 99.7188 178.589C98.3266 182.99 97.3985 182.783 95.8002 177.657C94.408 172.998 94.408 172.894 95.4908 173.101C96.058 173.205 96.6251 174.344 97.1923 176.311ZM128.644 173.981C128.902 174.551 129.16 176.518 129.16 178.382C129.16 181.075 129.005 181.8 128.387 181.8C127.974 181.8 127.613 181.541 127.613 181.178C127.613 180.712 127.459 180.712 126.995 181.178C125.499 182.68 122.457 181.282 122.457 179.159C122.457 177.657 124.313 176.104 126.066 176.104C127.768 176.104 128.026 175.535 126.84 174.551C126.376 174.189 125.499 174.085 124.52 174.292C123.695 174.499 122.973 174.396 122.973 174.137C122.973 173.257 123.643 172.998 125.86 172.998C127.562 172.998 128.232 173.257 128.644 173.981ZM133.285 173.619C133.285 174.085 133.44 174.085 133.904 173.619C134.265 173.257 135.141 172.998 135.863 172.998C136.585 172.998 137.461 173.257 137.822 173.619C138.286 174.085 138.596 174.085 139.06 173.619C139.885 172.791 142.824 172.842 143.494 173.671C143.803 174.033 144.113 175.949 144.164 177.916C144.267 180.919 144.164 181.592 143.442 181.696C142.772 181.851 142.566 181.282 142.463 178.331L142.308 174.81H140.761H139.214L139.06 178.279C138.905 181.334 138.802 181.8 137.925 181.8C137.049 181.8 136.946 181.334 136.791 178.331C136.636 175.328 136.482 174.81 135.657 174.655C134.161 174.344 133.285 175.949 133.285 179.055C133.285 181.126 133.079 181.8 132.512 181.8C131.893 181.8 131.738 180.971 131.738 177.399C131.738 173.826 131.893 172.998 132.512 172.998C132.924 172.998 133.285 173.257 133.285 173.619ZM147.722 173.619C147.722 174.085 147.877 174.085 148.341 173.619C149.217 172.739 151.847 172.842 152.981 173.878C154.322 175.069 154.373 181.955 153.033 181.696C152.311 181.592 152.156 181.075 152.311 179.107C152.466 176.156 151.692 174.551 150.094 174.551C148.599 174.551 148.238 175.379 148.238 179.004C148.238 181.437 148.134 181.8 147.206 181.8C146.278 181.8 146.175 181.437 146.175 177.399C146.175 173.826 146.33 172.998 146.949 172.998C147.361 172.998 147.722 173.257 147.722 173.619ZM161.85 174.137C162.984 175.742 162.984 181.8 161.901 181.8C161.489 181.8 161.128 181.541 161.128 181.282C161.128 180.919 160.818 180.919 160.148 181.282C158.498 182.162 157.055 181.903 156.23 180.557C155.559 179.573 155.508 179.055 155.972 178.227C156.642 176.984 158.086 176.104 159.529 176.104C160.818 176.104 160.973 174.81 159.787 174.344C159.375 174.189 158.447 174.189 157.725 174.344C157.055 174.499 156.487 174.447 156.487 174.189C156.487 173.308 157.158 172.998 159.117 172.998C160.561 172.998 161.283 173.308 161.85 174.137ZM183.299 173.826C183.299 174.396 182.99 174.551 182.268 174.292C180.515 173.723 178.659 175.328 178.659 177.295C178.659 179.47 179.432 180.246 181.546 180.246C183.402 180.246 184.279 180.971 182.99 181.489C180.669 182.369 178.349 181.644 177.37 179.677C175.565 176.208 177.421 172.998 181.237 172.998C182.783 172.998 183.299 173.205 183.299 173.826ZM191.497 173.878C192.116 174.396 192.735 175.69 192.941 176.726C193.199 178.382 192.993 178.848 191.652 180.246C187.527 184.337 181.804 178.952 185.413 174.344C186.702 172.687 189.796 172.48 191.497 173.878ZM196.189 173.619C196.189 174.085 196.344 174.085 196.808 173.619C197.581 172.842 199.902 172.791 200.727 173.619C201.139 174.033 201.5 174.033 202.067 173.567C203.356 172.48 206.141 173.049 206.862 174.551C207.842 176.467 207.533 181.489 206.398 181.696C205.676 181.851 205.47 181.334 205.367 178.331L205.212 174.81H203.666H202.119L201.964 178.331C201.861 181.334 201.655 181.851 200.933 181.696C200.263 181.592 200.005 180.816 199.799 178.175C199.541 175.017 199.489 174.81 198.252 174.81C197.014 174.81 196.963 175.017 196.705 178.175C196.499 180.816 196.241 181.592 195.571 181.696C194.746 181.851 194.642 181.385 194.642 177.45C194.642 173.826 194.797 172.998 195.416 172.998C195.828 172.998 196.189 173.257 196.189 173.619ZM109.412 180.039C109.825 181.126 108.742 182.214 107.969 181.437C107.298 180.764 107.711 179.211 108.536 179.211C108.845 179.211 109.206 179.573 109.412 180.039ZM175.462 180.402C175.668 181.437 174.173 182.162 173.451 181.437C172.729 180.712 173.502 179.107 174.482 179.314C174.946 179.418 175.359 179.884 175.462 180.402Z" fill="white"/>
<path d="M125.551 177.502C123.849 178.175 123.849 180.246 125.499 180.246C126.634 180.246 127.613 179.263 127.613 178.072C127.613 177.14 126.995 176.984 125.551 177.502Z" fill="white"/>
<path d="M158.292 177.865C157.003 178.797 157.622 180.402 159.169 180.143C160.045 180.039 160.406 179.573 160.509 178.538C160.715 176.984 159.89 176.674 158.292 177.865Z" fill="white"/>
<path d="M187.218 174.706C186.135 175.483 185.98 178.331 186.908 179.47C187.269 179.884 188.094 180.246 188.765 180.246C190.93 180.246 191.858 176.518 190.105 174.913C188.971 173.878 188.404 173.826 187.218 174.706Z" fill="white"/>
</g>
<defs>
<clipPath id="clip0_256_14">
<rect width="256" height="113" fill="white" transform="translate(0 71)"/>
</clipPath>
</defs>
</svg>
