<svg width="256" height="256" viewBox="0 0 256 256" fill="none" xmlns="http://www.w3.org/2000/svg">
<path d="M247.147 152.343V171.796H231.7V160.926C231.7 152.116 225.669 147.193 218.297 147.193C210.128 147.193 207.4 152.178 207.4 160.418V175.875H224.503V192.993L231.72 189.903V175.875L254.78 175.826V148.902L247.147 152.343ZM224.503 171.796H209.88V160.768C209.88 155.961 212.373 151.491 216.427 151.491C222.124 151.491 224.469 154.382 224.469 160.253L224.503 171.796Z" fill="white"/>
<path d="M240.479 144.343C241.407 144.343 242.314 144.061 243.085 143.533C243.857 143.005 244.458 142.254 244.813 141.376C245.168 140.497 245.261 139.531 245.08 138.599C244.899 137.666 244.452 136.81 243.796 136.138C243.14 135.465 242.304 135.008 241.394 134.822C240.484 134.637 239.541 134.732 238.684 135.096C237.827 135.459 237.094 136.075 236.579 136.866C236.063 137.656 235.788 138.586 235.788 139.536C235.788 140.811 236.282 142.034 237.162 142.935C238.042 143.837 239.235 144.343 240.479 144.343Z" fill="white"/>
<path d="M167.626 186.058H151.127V190.37H167.626V186.058Z" fill="white"/>
<path d="M150.986 137.854H132.483V142.166H150.986V137.854Z" fill="white"/>
<path d="M191.236 171.851H178.262C177.526 171.849 176.822 171.549 176.302 171.016C175.782 170.483 175.489 169.761 175.487 169.008V165.588V165.437C175.487 165.252 175.487 165.067 175.487 164.874V153.441H167.988V168.974C167.992 169.35 167.923 169.723 167.785 170.071C167.647 170.42 167.443 170.737 167.186 171.004C166.928 171.271 166.621 171.484 166.282 171.629C165.944 171.775 165.581 171.85 165.214 171.851H153.741C153.005 171.849 152.301 171.549 151.781 171.016C151.261 170.483 150.968 169.761 150.966 169.008V165.588V165.437C150.966 165.252 150.966 165.067 150.966 164.874V153.441H143.983V168.974C143.987 169.35 143.918 169.723 143.78 170.071C143.642 170.42 143.438 170.737 143.181 171.004C142.923 171.271 142.616 171.484 142.277 171.629C141.939 171.775 141.576 171.85 141.209 171.851H129.742C128.995 171.867 128.251 171.731 127.555 171.451C126.859 171.17 126.225 170.75 125.688 170.216C125.152 169.682 124.725 169.044 124.431 168.339C124.138 167.634 123.984 166.877 123.979 166.11V163.281V163.075C123.984 161.174 123.623 159.291 122.915 157.533C122.207 155.776 121.167 154.179 119.855 152.835C118.542 151.491 116.984 150.426 115.268 149.702C113.553 148.977 111.714 148.608 109.859 148.614H91.9389L104.672 135.567L96.0536 135.828L83.6825 148.504L86.4436 152.624H108.505C111.186 152.664 113.743 153.783 115.625 155.741C117.506 157.698 118.56 160.335 118.557 163.082C118.549 164.236 118.318 165.376 117.878 166.438C117.438 167.5 116.798 168.462 115.994 169.27C115.19 170.078 114.238 170.715 113.194 171.145C112.149 171.575 111.032 171.789 109.906 171.775L73.7173 171.851C72.9808 171.851 72.2744 171.552 71.7531 171.019C71.2317 170.486 70.9379 169.763 70.9361 169.008V165.465C70.9361 165.266 70.9361 165.073 70.9361 164.874V149.946L64.9047 152.954V168.974C64.9091 169.348 64.8413 169.72 64.7051 170.067C64.5689 170.415 64.3671 170.731 64.1111 170.999C63.8552 171.266 63.5502 171.479 63.2137 171.625C62.8772 171.771 62.5159 171.848 62.1504 171.851H55.4488C54.7123 171.851 54.006 171.552 53.4846 171.019C52.9632 170.486 52.6694 169.763 52.6676 169.008V165.437C52.6676 165.252 52.6676 165.067 52.6676 164.874V154.471H46.6362V168.974C46.6435 169.722 46.3628 170.444 45.8549 170.982C45.347 171.521 44.6527 171.833 43.9221 171.851H37.1401C36.4043 171.851 35.6986 171.551 35.1783 171.018C34.658 170.485 34.3657 169.762 34.3657 169.008V154.471H27.3424V175.36C27.3424 178.7 26.0475 181.903 23.7426 184.265C21.4376 186.626 18.3114 187.953 15.0517 187.953C11.792 187.953 8.66585 186.626 6.3609 184.265C4.05595 181.903 2.76105 178.7 2.76105 175.36V154.719H0V174.597C0.00354732 179.403 1.86776 184.011 5.18346 187.409C8.49916 190.808 12.9954 192.72 17.6854 192.725C27.2352 192.725 33.9904 185.069 34.3456 175.284V174.838L34.7275 175.051C35.6768 175.568 36.7352 175.839 37.8103 175.84H43.9891C46.7636 175.84 47.3935 174.749 49.3973 172.771L49.6318 172.544L49.8128 172.819C50.4114 173.748 51.2255 174.51 52.1822 175.037C53.1389 175.565 54.2083 175.841 55.2947 175.84H62.2375C65.0119 175.84 65.6419 174.749 67.6457 172.771L67.8869 172.544L68.0612 172.819C68.6597 173.748 69.4739 174.51 70.4306 175.037C71.3873 175.565 72.4567 175.841 73.543 175.84H111.695C113.669 175.808 115.607 175.299 117.353 174.357C119.099 173.415 120.605 172.065 121.747 170.416L121.942 170.134L122.083 170.443C122.792 172.027 123.923 173.373 125.345 174.328C126.768 175.282 128.424 175.807 130.124 175.84H141.329C144.095 175.843 146.754 174.742 148.741 172.771L147.944 172.537L148.125 172.812C148.721 173.741 149.534 174.504 150.49 175.031C151.446 175.559 152.514 175.834 153.6 175.833H165.308C168.075 175.833 170.207 174.742 172.217 172.764L172.452 172.537L172.632 172.812C173.23 173.742 174.044 174.505 175.001 175.032C175.958 175.56 177.028 175.835 178.114 175.833H198.755V149.026L191.236 152.459V171.851Z" fill="white"/>
<path d="M184.709 192.993H184.809C185.84 192.993 186.829 192.574 187.558 191.827C188.287 191.08 188.696 190.067 188.696 189.01V188.907C188.696 187.851 188.287 186.838 187.558 186.091C186.829 185.344 185.84 184.925 184.809 184.925H184.709C183.678 184.925 182.689 185.344 181.96 186.091C181.231 186.838 180.822 187.851 180.822 188.907V189.017C180.822 190.074 181.231 191.087 181.96 191.833C182.689 192.58 183.678 193 184.709 193" fill="white"/>
<path d="M147.138 92.4441C147.175 96.1284 146.763 99.803 145.912 103.383C145.198 106.442 143.949 109.343 142.226 111.945C140.677 114.271 138.609 116.185 136.195 117.528C134.383 118.508 132.407 119.128 130.371 119.355C124.916 114.239 127.241 99.8876 133.018 99.1941C130.505 106.225 133.728 110.551 136.456 110.799C142.152 111.327 147.44 101.494 147.065 89.5121C147.118 90.4665 147.138 91.4416 147.138 92.4441Z" fill="#E1E1E1"/>
<path d="M150.395 112.035C144.545 118.627 135.96 122.554 131.839 120.405C131.305 120.133 130.814 119.778 130.384 119.355C132.421 119.128 134.397 118.508 136.208 117.528C138.623 116.185 140.69 114.271 142.239 111.945C143.963 109.343 145.211 106.442 145.925 103.383C146.776 99.803 147.188 96.1284 147.152 92.4442C147.152 91.4416 147.152 90.4597 147.071 89.4915C147.013 87.6116 146.818 85.7387 146.488 83.8883C144.974 75.4218 140.343 65.5338 136.034 63C137.066 63.2789 138.078 63.6299 139.063 64.0506C139.107 64.0551 139.148 64.0717 139.184 64.0987C146.716 67.3508 152.69 73.521 155.803 81.2653C159.777 91.2974 157.62 103.898 150.395 112.035Z" fill="white"/>
<path d="M122.577 85.0281C125.09 78.0035 121.873 73.6775 119.146 73.4304C113.637 72.9154 108.51 82.0892 108.51 93.529C108.51 93.172 108.51 92.8424 108.51 92.4441C108.481 88.7125 108.906 84.9917 109.777 81.3682C110.494 78.2506 111.742 75.2869 113.463 72.6132C115.017 70.2277 117.094 68.2478 119.528 66.8315C121.312 65.8197 123.272 65.1736 125.298 64.9294C130.659 70.0932 128.334 84.3415 122.577 85.0281Z" fill="#E1E1E1"/>
<path d="M119.568 121.229C118.858 121.023 118.161 120.81 117.484 120.542L117.303 120.474L116.887 120.336L116.458 120.151C108.913 116.881 102.931 110.692 99.8118 102.929C96.8028 95.3761 97.3054 86.271 100.891 78.7795C101.025 78.4773 101.172 78.1958 101.32 77.9074C101.621 77.3306 101.936 76.7607 102.291 76.2113C102.931 75.1782 103.625 74.1811 104.369 73.2243C104.617 72.9153 104.878 72.6063 105.146 72.2905L105.24 72.1875C105.287 72.1394 105.327 72.0776 105.374 72.0295C111.231 65.5474 119.715 61.6884 123.797 63.7896C124.351 64.0871 124.863 64.4614 125.318 64.902C123.292 65.1462 121.332 65.7922 119.548 66.804C117.104 68.2255 115.019 70.2153 113.463 72.6132C111.731 75.287 110.475 78.2532 109.75 81.3751C108.879 84.9986 108.454 88.7193 108.484 92.451C108.484 92.8217 108.484 93.1788 108.484 93.5359C108.484 93.8929 108.484 94.1813 108.484 94.5041C108.51 95.7306 108.601 96.9547 108.758 98.1709C108.792 98.5623 108.845 98.9468 108.913 99.3451C108.98 99.7433 109.013 100.032 109.073 100.368C109.073 100.526 109.127 100.677 109.16 100.835C109.308 101.707 109.496 102.552 109.703 103.39C109.911 104.227 110.139 105.017 110.373 105.793C110.395 105.875 110.422 105.955 110.454 106.033C112.618 112.783 116.217 119.245 119.568 121.229Z" fill="white"/>
</svg>
