<svg width="256" height="256" viewBox="0 0 256 256" fill="none" xmlns="http://www.w3.org/2000/svg">
<path opacity="0.964" d="M60.6185 164.199C65.3494 154.711 64.2279 146.062 57.2551 138.253C53.6409 134.15 49.6366 130.626 45.243 127.682C31.1542 114.395 17.5411 100.621 4.40181 86.3607C-3.09664 71.5102 -1.01518 58.2168 10.6481 46.4805C12.5701 45.8398 14.492 45.8398 16.4139 46.4805C39.3167 69.3836 62.2205 92.287 85.1233 115.19C91.6454 123.013 91.9663 131.021 86.0842 139.214C77.7219 147.737 69.2336 156.066 60.6185 164.199Z" fill="white"/>
<path opacity="0.957" d="M144.223 164.199C145.164 160.38 146.125 156.536 147.106 152.668C146.478 148.527 145.037 144.683 142.781 141.136C138.208 136.076 133.244 131.591 127.886 127.682C115.107 114.422 102.134 101.289 88.9671 88.2826C79.8812 74.1351 80.8421 60.6815 91.85 47.9219C94.2496 46.0209 96.973 45.5404 100.018 46.4805C121.64 68.1023 143.262 89.7241 164.884 111.346C168.2 114.667 170.763 118.511 172.571 122.878C173.749 128.42 172.788 133.545 169.689 138.253C161.675 147.387 153.187 156.036 144.223 164.199Z" fill="white"/>
<path opacity="0.958" d="M226.866 164.199C227.832 160.349 228.793 156.505 229.749 152.668C229.498 148.872 228.377 145.348 226.386 142.097C221.493 136.717 216.208 131.913 210.53 127.682C198.071 114.743 185.419 101.929 172.571 89.2437C161.812 73.7845 163.254 59.5301 176.896 46.4805C178.818 45.8398 180.74 45.8398 182.662 46.4805C205.244 69.0633 227.827 91.6461 250.41 114.229C256.15 121.307 257.111 128.995 253.293 137.292C244.959 146.746 236.15 155.716 226.866 164.199Z" fill="white"/>
<path opacity="0.97" d="M45.2431 127.682C49.6366 130.626 53.641 134.15 57.2552 138.253C64.228 146.062 65.3494 154.711 60.6186 164.199C46.0772 179.221 31.3427 194.116 16.414 208.884C14.4921 209.525 12.5701 209.525 10.6482 208.884C-1.37932 196.604 -3.14078 182.99 5.36284 168.043C18.85 154.716 32.1441 141.263 45.2431 127.682Z" fill="white"/>
<path opacity="0.962" d="M127.886 127.682C133.244 131.591 138.208 136.076 142.781 141.136C145.037 144.683 146.478 148.527 147.106 152.668C146.125 156.537 145.164 160.38 144.223 164.199C129.654 179.569 114.599 194.464 99.0573 208.884C96.6828 209.563 94.4399 209.243 92.3305 207.923C81.7109 196.495 79.9484 183.842 87.0452 169.965C100.505 155.705 114.119 141.611 127.886 127.682Z" fill="white"/>
<path opacity="0.955" d="M210.53 127.682C216.208 131.913 221.493 136.717 226.386 142.097C228.377 145.348 229.498 148.872 229.749 152.668C228.793 156.505 227.832 160.349 226.866 164.199C212.325 179.221 197.59 194.116 182.662 208.884C180.74 209.525 178.818 209.525 176.896 208.884C162.484 194.677 161.684 179.782 174.493 164.199C186.7 152.154 198.712 139.981 210.53 127.682Z" fill="white"/>
</svg>
