<svg width="256" height="256" viewBox="0 0 256 256" fill="none" xmlns="http://www.w3.org/2000/svg">
<path d="M245.197 62.3668C239.051 60.7991 231.38 64.5507 229.669 71.4067L210.399 147.193L192.727 77.8175C192.575 77.0164 191.928 74.7942 191.839 74.6695C190.427 70.9517 187.891 67.7469 184.571 65.4827C181.251 63.2186 177.306 62.0034 173.263 62C164.736 62 157.415 67.216 154.673 74.6563C154.651 74.7149 154.323 75.6819 154.194 76.118C154.176 76.1898 154.141 76.2633 154.125 76.3343L136.163 147.367C136.163 147.367 117.097 72.534 117.076 72.4398L117.014 72.1904C117.014 72.1747 116.99 72.1673 116.985 72.1533C116.275 69.2915 114.615 66.7429 112.268 64.9073C109.921 63.0719 107.019 62.0536 104.018 62.0126C103.989 62.0126 103.965 62 103.934 62H103.893C103.874 62 103.857 62 103.836 62C103.814 62 103.797 62 103.778 62H82.5805C86.4378 64.5727 88.5833 68.3244 89.4314 72.6611L93.4869 88.5406C93.4869 88.5406 116.693 179.548 116.714 179.618C117.924 183.795 120.489 187.471 124.019 190.09C127.551 192.708 131.855 194.126 136.281 194.129C145.229 194.129 152.619 188.337 155.344 180.454C155.344 180.475 155.138 180.346 155.344 180.454L173.249 110.034C173.249 110.034 190.73 179.643 190.963 179.702C193.435 188.001 201.122 194.126 210.379 194.126C215.104 194.122 219.681 192.507 223.324 189.556C226.968 186.604 229.452 182.501 230.351 177.95L255.676 77.9694C257.389 71.1136 252.082 64.118 245.197 62.3668Z" fill="white"/>
<path d="M0 75.2781C0 83.2752 7.05511 88.5488 13.395 88.5488H42.6282L42.6964 180.729C42.6766 182.482 43.0174 184.221 43.6991 185.846C44.3808 187.47 45.3897 188.949 46.6676 190.196C47.9455 191.442 49.4669 192.431 51.1438 193.106C52.8207 193.781 54.6197 194.129 56.4368 194.129C58.2539 194.129 60.053 193.781 61.7299 193.106C63.4067 192.431 64.9281 191.442 66.206 190.196C67.4839 188.949 68.4929 187.47 69.1745 185.846C69.8562 184.221 70.197 182.482 70.1772 180.729L70.1089 88.5537H90.8386L86.6707 72.4175C86.6707 72.4175 84.4634 61.6347 71.8028 62.0096C71.8028 62.0096 65.1948 62.0096 68.09 62.0096H13.1592C6.81939 62.0064 0 67.5969 0 75.2781Z" fill="white"/>
</svg>
