<svg width="256" height="256" viewBox="0 0 256 256" fill="none" xmlns="http://www.w3.org/2000/svg">
<path d="M105.77 5.24664C99.0103 6.34697 91.308 8.39045 88.4786 9.64797C83.7629 11.6914 87.8498 11.8486 128.091 11.8486C168.017 11.8486 172.261 11.6914 167.86 9.64797C160.786 6.66135 137.208 2.73159 126.676 2.88878C121.803 2.88878 112.372 3.98912 105.77 5.24664Z" fill="white"/>
<path d="M55.783 26.3102L50.2813 30.8687L87.3782 31.0259C119.917 31.0259 124.79 30.7115 125.575 28.5108C128.248 21.5945 128.248 21.5945 93.823 21.5945H61.1274L55.783 26.3102Z" fill="white"/>
<path d="M130.291 25.0526C130.763 27.0961 131.234 29.1396 131.234 29.7684C131.234 30.5543 147.897 31.0259 168.174 31.0259C188.452 31.0259 205.114 30.5543 205.114 29.7684C205.114 29.1396 202.599 27.0961 199.612 25.0526C194.425 21.7516 192.696 21.5945 161.729 21.5945H129.348L130.291 25.0526Z" fill="white"/>
<path d="M35.6627 44.0728C33.7764 46.1162 32.2045 48.1597 32.2045 48.7885C32.2045 49.4172 51.6961 49.8888 75.4318 49.8888C116.458 49.8888 118.659 49.7316 120.231 46.9022C121.017 45.1731 121.803 43.1296 121.803 42.1865C121.803 40.9289 108.599 40.4574 80.4619 40.4574C39.1208 40.4574 38.9637 40.4574 35.6627 44.0728Z" fill="white"/>
<path d="M134.378 41.0861C134.378 41.5577 135.007 43.6012 135.95 45.8018L137.522 49.8888H180.749C204.485 49.8888 223.977 49.26 223.977 48.6313C223.977 47.8453 222.405 45.8018 220.361 43.9156C216.746 40.6146 215.646 40.4574 175.562 40.4574C152.927 40.4574 134.378 40.7718 134.378 41.0861Z" fill="white"/>
<path d="M20.4151 64.0359L17.9001 68.7516H64.114H110.328L112.057 64.8218C113.157 62.6212 113.943 60.4205 113.943 60.1061C113.943 59.6345 93.5086 59.3202 68.3582 59.3202H22.9302L20.4151 64.0359Z" fill="white"/>
<path d="M142.238 60.5777C142.238 61.2064 143.338 63.4071 144.753 65.2934C147.111 68.7516 147.425 68.7516 192.696 68.7516C217.689 68.7516 238.124 68.4372 238.124 67.9656C238.124 67.4941 237.023 65.2934 235.609 63.2499L233.094 59.3202H187.666C162.672 59.3202 142.238 59.7917 142.238 60.5777Z" fill="white"/>
<path d="M11.7697 81.1697C10.9837 82.8988 10.1978 84.9423 10.1978 85.8854C10.1978 87.1429 23.8733 87.6145 53.1107 87.6145C96.0237 87.6145 96.1809 87.6145 99.4819 83.9991C101.368 81.9556 102.94 79.9122 102.94 79.2834C102.94 78.6547 82.8197 78.1831 58.1408 78.1831C15.5422 78.1831 13.3416 78.3403 11.7697 81.1697Z" fill="white"/>
<path d="M154.184 80.0692C158.586 87.7716 157.328 87.6144 203.07 87.6144C232.308 87.6144 245.983 87.1428 245.983 85.8853C245.983 84.9421 245.197 82.8987 244.411 81.1696C242.84 78.3402 240.639 78.183 197.883 78.183C162.515 78.183 153.241 78.6545 154.184 80.0692Z" fill="white"/>
<path d="M6.58239 98.1461C5.95363 98.6177 5.48206 100.818 5.48206 102.862V106.477H40.5355H75.589L80.9334 101.762L86.4351 97.203L46.9803 97.0458C25.288 97.0458 7.05396 97.5174 6.58239 98.1461Z" fill="white"/>
<path d="M170.532 97.6746C170.532 98.1461 173.204 100.347 176.348 102.547C182.164 106.477 182.478 106.477 216.589 106.477H250.856L250.385 102.076L249.913 97.8318L210.301 97.3602C188.452 97.203 170.532 97.3602 170.532 97.6746Z" fill="white"/>
<path d="M2.96699 118.267C2.33823 119.524 2.33823 121.725 2.96699 122.982C4.38171 126.755 32.2044 126.283 43.6793 122.353C60.6559 116.38 59.8699 116.066 30.9469 115.909C8.31147 115.909 3.59575 116.223 2.96699 118.267Z" fill="white"/>
<path d="M198.826 116.537C198.826 116.852 204.013 119.052 210.301 121.253C220.204 125.026 223.505 125.34 237.338 125.026L253.057 124.554L253.528 120.153L254 115.909H226.492C211.244 115.909 198.826 116.223 198.826 116.537Z" fill="white"/>
<path d="M3.12422 139.016C3.59579 141.373 4.38174 143.574 4.53894 143.889C4.85332 144.046 17.2714 144.046 32.3616 143.889L59.7127 143.417L51.8532 139.487C44.9369 136.186 41.4787 135.557 22.9302 135.086L1.8667 134.457L3.12422 139.016Z" fill="white"/>
<path d="M207.157 138.544C202.756 140.43 198.512 142.474 197.883 143.103C197.254 143.731 209.358 144.046 224.92 143.889L253.057 143.417L253.528 139.016L254 134.771L234.666 134.929C218.475 135.086 213.917 135.557 207.157 138.544Z" fill="white"/>
<path d="M5.48206 155.363C5.48206 156.307 6.26801 158.35 7.05396 160.079C8.62586 162.909 10.8265 163.066 48.395 163.066L88.007 162.909L82.8197 158.35L77.7896 153.634H41.6358C17.1141 153.634 5.48206 154.106 5.48206 155.363Z" fill="white"/>
<path d="M173.676 158.35L168.174 162.909L208.415 163.066C243.783 163.066 248.97 162.751 249.756 160.551C252.428 153.634 252.585 153.634 214.86 153.634H179.02L173.676 158.35Z" fill="white"/>
<path d="M12.084 176.427L13.8131 180.357H58.4552C82.8197 180.357 102.94 179.728 102.94 179.099C102.94 178.313 101.683 176.584 100.111 175.169C97.5956 172.812 91.9367 172.497 53.7395 172.497H10.1978L12.084 176.427Z" fill="white"/>
<path d="M156.856 174.383C152.141 180.514 151.669 180.357 197.726 180.357H242.368L244.097 176.427L245.983 172.497H202.127C168.96 172.497 157.957 172.969 156.856 174.383Z" fill="white"/>
<path d="M20.5724 193.246C24.9737 200.949 23.559 200.791 71.0305 200.791C95.395 200.791 115.515 200.477 115.515 200.005C115.515 199.691 114.729 197.49 113.629 195.29L111.9 191.36H65.686C29.0607 191.36 19.6292 191.832 20.5724 193.246Z" fill="white"/>
<path d="M143.181 194.818C141.766 196.704 140.666 198.905 140.666 199.534C140.666 200.32 160.786 200.791 185.151 200.791C225.706 200.791 229.95 200.477 232.151 197.962C237.967 191.203 239.067 191.36 191.124 191.36C145.853 191.36 145.539 191.36 143.181 194.818Z" fill="white"/>
<path d="M36.9202 214.153L40.5356 218.082H82.0338H123.375L121.489 214.153L119.76 210.223H76.5322H33.3048L36.9202 214.153Z" fill="white"/>
<path d="M135.321 212.738C134.85 214.153 134.378 215.882 134.378 216.668C134.378 217.454 151.355 218.082 174.933 218.082H215.646L219.261 214.153L222.876 210.223H179.649C141.609 210.223 136.107 210.537 135.321 212.738Z" fill="white"/>
<path d="M54.2111 229.714C54.2111 230.029 56.569 231.915 59.5556 233.644C64.4285 236.631 67.1007 236.945 95.7094 236.945H126.676L126.204 233.33C125.733 229.872 125.733 229.872 90.0505 229.4C70.2445 229.243 54.2111 229.4 54.2111 229.714Z" fill="white"/>
<path d="M130.763 230.186C130.134 230.658 129.662 232.544 129.662 234.116C129.662 236.788 131.706 236.945 160.472 236.945C189.08 236.945 191.753 236.631 196.626 233.644C199.612 231.915 201.97 230.029 201.97 229.714C201.97 228.614 131.863 229.086 130.763 230.186Z" fill="white"/>
<path d="M99.7963 250.621C111.428 253.765 144.753 253.765 156.385 250.621C164.716 248.42 163.616 248.263 128.091 248.263C92.5655 248.263 91.4652 248.42 99.7963 250.621Z" fill="white"/>
</svg>
