<svg width="256" height="256" viewBox="0 0 256 256" fill="none" xmlns="http://www.w3.org/2000/svg">
<path d="M207.681 81.7672V53.0113C207.686 52.4293 207.576 51.8521 207.357 51.3129C207.138 50.7736 206.815 50.2831 206.405 49.8697C205.996 49.4563 205.508 49.1281 204.971 48.9041C204.434 48.6802 203.858 48.5649 203.276 48.5649H175.06C174.476 48.5649 173.898 48.4499 173.359 48.2264C172.819 48.003 172.329 47.6755 171.916 47.2626C171.503 46.8497 171.176 46.3595 170.952 45.8201C170.729 45.2806 170.614 44.7024 170.614 44.1185V15.9859C170.603 15.395 170.71 14.8079 170.928 14.2588C171.147 13.7097 171.472 13.2097 171.886 12.788C172.3 12.3663 172.794 12.0313 173.339 11.8027C173.884 11.574 174.469 11.4563 175.06 11.4564H226.006C227.127 11.4558 228.207 11.8703 229.04 12.62L243.542 26.6655C243.996 27.0847 244.359 27.5921 244.609 28.1566C244.859 28.7212 244.991 29.3309 244.997 29.9483V119.042C245.019 119.64 244.921 120.236 244.707 120.795C244.494 121.353 244.17 121.863 243.755 122.294C243.34 122.725 242.842 123.067 242.291 123.301C241.741 123.535 241.149 123.655 240.551 123.655H137.328C136.149 123.655 135.018 123.186 134.184 122.352C133.35 121.518 132.882 120.387 132.882 119.208V90.66C132.893 89.4879 133.366 88.3676 134.199 87.5427C135.031 86.7178 136.156 86.2551 137.328 86.2551H203.276C203.861 86.2552 204.441 86.1386 204.981 85.9121C205.521 85.6855 206.01 85.3536 206.42 84.9358C206.83 84.5179 207.153 84.0225 207.369 83.4784C207.586 82.9344 207.692 82.3526 207.681 81.7672Z" fill="white"/>
<path d="M81.686 48.8558H52.8885C51.7652 48.8639 50.6865 49.2969 49.8694 50.0678C49.0522 50.8387 48.5572 51.8903 48.4837 53.0113V81.227C48.5061 81.8248 48.4076 82.4209 48.1942 82.9797C47.9807 83.5385 47.6568 84.0485 47.2416 84.4791C46.8265 84.9098 46.3288 85.2522 45.7782 85.486C45.2276 85.7198 44.6355 85.84 44.0373 85.8396H15.8216C14.6935 85.7657 13.6359 85.2648 12.8639 84.4388C12.092 83.6128 11.6637 82.5238 11.6661 81.3933V30.4055C11.6519 29.8545 11.7475 29.3062 11.9473 28.7926C12.147 28.2789 12.447 27.8101 12.8296 27.4135L26.5843 12.8693C27.0055 12.4215 27.5143 12.065 28.079 11.822C28.6437 11.579 29.2523 11.4545 29.8671 11.4564H118.961C120.14 11.4564 121.271 11.9249 122.105 12.7588C122.939 13.5926 123.407 14.7236 123.407 15.9028V119.125C123.418 119.716 123.311 120.303 123.093 120.852C122.874 121.401 122.549 121.901 122.135 122.323C121.721 122.745 121.227 123.08 120.682 123.308C120.137 123.537 119.552 123.655 118.961 123.655H90.6203C89.4411 123.655 88.3101 123.186 87.4763 122.352C86.6424 121.518 86.1739 120.387 86.1739 119.208V53.0113C86.0996 51.876 85.5928 50.8123 84.758 50.0393C83.9231 49.2663 82.8237 48.8427 81.686 48.8558Z" fill="white"/>
<path d="M48.5255 174.352V203.149C48.5255 203.731 48.6408 204.307 48.8647 204.844C49.0887 205.382 49.4169 205.869 49.8303 206.279C50.2437 206.688 50.7342 207.012 51.2735 207.231C51.8127 207.449 52.3899 207.559 52.9719 207.554H81.1876C81.7715 207.554 82.3497 207.669 82.8892 207.892C83.4286 208.116 83.9188 208.443 84.3317 208.856C84.7446 209.269 85.0721 209.759 85.2955 210.299C85.519 210.838 85.634 211.416 85.634 212V240.008C85.634 240.59 85.5187 241.166 85.2948 241.704C85.0708 242.241 84.7426 242.728 84.3292 243.138C83.9157 243.547 83.4252 243.871 82.886 244.09C82.3468 244.309 81.7695 244.419 81.1876 244.413H30.1998C29.0939 244.403 28.0297 243.99 27.2079 243.249L12.6637 229.453C12.2235 229.026 11.872 228.516 11.6296 227.953C11.3871 227.39 11.2584 226.784 11.2508 226.17V137.077C11.2506 136.482 11.3696 135.894 11.6008 135.346C11.832 134.798 12.1707 134.302 12.5969 133.888C13.023 133.473 13.528 133.148 14.082 132.932C14.6359 132.716 15.2275 132.614 15.8218 132.63H118.919C120.099 132.63 121.23 133.099 122.063 133.933C122.897 134.767 123.366 135.898 123.366 137.077V165.459C123.366 166.638 122.897 167.769 122.063 168.603C121.23 169.437 120.099 169.905 118.919 169.905H52.9719C51.7926 169.905 50.6617 170.374 49.8278 171.207C48.994 172.041 48.5255 173.172 48.5255 174.352Z" fill="white"/>
<path d="M174.685 207.388H203.441C204.621 207.388 205.752 206.919 206.585 206.085C207.419 205.251 207.888 204.12 207.888 202.941V174.725C207.888 173.546 208.356 172.415 209.19 171.581C210.024 170.748 211.155 170.279 212.334 170.279H240.467C241.646 170.279 242.777 170.748 243.611 171.581C244.445 172.415 244.913 173.546 244.913 174.725V225.713C244.922 226.267 244.82 226.817 244.613 227.331C244.406 227.845 244.098 228.312 243.708 228.705L229.746 243.249C229.342 243.709 228.843 244.074 228.283 244.318C227.722 244.562 227.115 244.68 226.504 244.662H137.369C136.787 244.662 136.211 244.547 135.674 244.323C135.137 244.099 134.649 243.771 134.24 243.357C133.83 242.944 133.507 242.454 133.288 241.914C133.069 241.375 132.959 240.798 132.964 240.216V136.994C132.959 136.412 133.069 135.834 133.288 135.295C133.507 134.756 133.83 134.266 134.24 133.852C134.649 133.439 135.137 133.11 135.674 132.887C136.211 132.663 136.787 132.547 137.369 132.547H165.793C166.972 132.547 168.103 133.016 168.937 133.85C169.771 134.683 170.239 135.814 170.239 136.994V202.941C170.239 204.12 170.707 205.251 171.541 206.085C172.375 206.919 173.506 207.388 174.685 207.388Z" fill="white"/>
<path d="M156.235 12.9524H136.829C134.373 12.9524 132.383 14.9431 132.383 17.3988V36.8049C132.383 39.2605 134.373 41.2512 136.829 41.2512H156.235C158.691 41.2512 160.682 39.2605 160.682 36.8049V17.3988C160.682 14.9431 158.691 12.9524 156.235 12.9524Z" fill="white"/>
<path d="M156.235 50.1855H136.829C134.373 50.1855 132.383 52.1763 132.383 54.6319V74.038C132.383 76.4937 134.373 78.4844 136.829 78.4844H156.235C158.691 78.4844 160.682 76.4937 160.682 74.038V54.6319C160.682 52.1763 158.691 50.1855 156.235 50.1855Z" fill="white"/>
<path d="M118.961 216.114H99.5546C97.0989 216.114 95.1082 218.105 95.1082 220.56V239.967C95.1082 242.422 97.0989 244.413 99.5546 244.413H118.961C121.416 244.413 123.407 242.422 123.407 239.967V220.56C123.407 218.105 121.416 216.114 118.961 216.114Z" fill="white"/>
<path d="M118.961 180.211H99.5546C97.0989 180.211 95.1082 182.201 95.1082 184.657V204.063C95.1082 206.519 97.0989 208.509 99.5546 208.509H118.961C121.416 208.509 123.407 206.519 123.407 204.063V184.657C123.407 182.201 121.416 180.211 118.961 180.211Z" fill="white"/>
</svg>
